SplineFontDB: 3.0
FontName: TengwarSindarinGlaemscrafu
FullName: Tengwar Sindarin Glaemscrafu
FamilyName: Tengwar Sindarin Glaemscrafu
Weight: Book
Copyright: (c)copyright - 1998 - Daniel Steven Smith\nModified by Benjamin Babut for Glaemscrafu.
Version: 1.0
ItalicAngle: 0
UnderlinePosition: -75
UnderlineWidth: 50
Ascent: 1638
Descent: 410
InvalidEm: 0
sfntRevision: 0x00010000
LayerCount: 2
Layer: 0 1 "Back" 1
Layer: 1 1 "Fore" 0
XUID: [1021 63 976991550 8234348]
FSType: 4
OS2Version: 4
OS2_WeightWidthSlopeOnly: 0
OS2_UseTypoMetrics: 1
CreationTime: -2082844800
ModificationTime: 1515341748
PfmFamily: 17
TTFWeight: 400
TTFWidth: 5
LineGap: 0
VLineGap: 0
Panose: 2 11 5 0 0 0 0 0 0 0
OS2TypoAscent: 1747
OS2TypoAOffset: 0
OS2TypoDescent: -1001
OS2TypoDOffset: 0
OS2TypoLinegap: 0
OS2WinAscent: 2038
OS2WinAOffset: 0
OS2WinDescent: 1522
OS2WinDOffset: 0
HheadAscent: 1747
HheadAOffset: 0
HheadDescent: -1021
HheadDOffset: 0
OS2SubXSize: 410
OS2SubYSize: 369
OS2SubXOff: 0
OS2SubYOff: -1001
OS2SupXSize: 410
OS2SupYSize: 369
OS2SupXOff: 0
OS2SupYOff: 1360
OS2StrikeYSize: 102
OS2StrikeYPos: 530
OS2Vendor: 'PfEd'
OS2CodePages: 00000001.00000000
OS2UnicodeRanges: 00000000.00000000.00000000.00000000
MarkAttachClasses: 1
DEI: 91125
TtTable: prep
PUSHW_1
 511
SCANCTRL
PUSHB_1
 1
SCANTYPE
SVTCA[y-axis]
MPPEM
PUSHB_1
 8
LT
IF
PUSHB_2
 1
 1
INSTCTRL
EIF
PUSHB_2
 70
 6
CALL
IF
POP
PUSHB_1
 16
EIF
MPPEM
PUSHB_1
 20
GT
IF
POP
PUSHB_1
 128
EIF
SCVTCI
PUSHB_1
 6
CALL
NOT
IF
SVTCA[y-axis]
PUSHB_1
 3
DUP
RCVT
PUSHB_1
 3
CALL
WCVTP
PUSHB_1
 9
DUP
RCVT
PUSHB_3
 3
 175
 2
CALL
PUSHB_1
 3
CALL
WCVTP
PUSHB_1
 8
DUP
RCVT
PUSHB_3
 9
 65
 2
CALL
PUSHB_1
 3
CALL
WCVTP
PUSHB_1
 7
DUP
RCVT
PUSHB_3
 8
 45
 2
CALL
PUSHB_1
 3
CALL
WCVTP
PUSHB_1
 6
DUP
RCVT
PUSHB_3
 7
 25
 2
CALL
PUSHB_1
 3
CALL
WCVTP
PUSHB_1
 5
DUP
RCVT
PUSHB_3
 6
 87
 2
CALL
PUSHB_1
 3
CALL
WCVTP
PUSHB_1
 4
DUP
RCVT
PUSHB_3
 5
 15
 2
CALL
PUSHB_1
 3
CALL
WCVTP
SVTCA[x-axis]
PUSHB_1
 10
DUP
RCVT
PUSHB_1
 3
CALL
WCVTP
PUSHB_1
 14
DUP
RCVT

StartChar: uniE018
Encoding: 57368 57368 4
Width: 1331
GlyphClass: 2
Flags: W
LayerCount: 2
Fore
SplineSet
47 1393 m 1,0,1
 117 1417 117 1417 190 1473 c 0,2,3
 264 1526 264 1526 322 1595 c 0,4,5
 342 1618 342 1618 356 1618 c 0,6,7
 385 1618 385 1618 385 1516 c 0,8,9
 385 1448 385 1448 373 1333 c 0,10,11
 373 1305 373 1305 373 1249 c 0,12,13
 371 1196 371 1196 371 1163 c 256,14,15
 371 1130 371 1130 371 1090 c 0,16,17
 371 1040 371 1040 371 997 c 0,18,19
 371 956 371 956 373 881 c 0,20,21
 373 803 373 803 373 760 c 1,22,23
 432 799 432 799 485 821 c 0,24,25
 539 846 539 846 592 856 c 0,26,27
 643 866 643 866 707 866 c 0,28,29
 836 862 836 862 969 821 c 0,30,31
 1100 780 1100 780 1188 701.5 c 128,-1,32
 1276 623 1276 623 1276 512 c 1,33,34
 1265 367 1265 367 1214 276 c 0,35,36
 1159 184 1159 184 1063 111 c 0,37,38
 983 51 983 51 893 16 c 0,39,40
 799 -20 799 -20 725 -20 c 1,41,42
 645 -12 645 -12 598 43 c 0,43,44
 547 100 547 100 547 154 c 0,45,46
 547 213 547 213 582 256 c 0,47,48
 616 297 616 297 678 297 c 0,49,50
 705 297 705 297 737 287 c 1,51,52
 737 238 737 238 780 199 c 0,53,54
 825 160 825 160 885 160 c 0,55,56
 930 160 930 160 971 190 c 0,57,58
 1012 221 1012 221 1036 270 c 1,59,60
 1042 299 1042 299 1042 326 c 0,61,62
 1042 361 1042 361 1035.5 398 c 128,-1,63
 1029 435 1029 435 1016 465 c 0,64,65
 987 522 987 522 946 567 c 0,66,67
 903 612 903 612 856 639 c 0,68,69
 793 676 793 676 719 696 c 0,70,71
 643 715 643 715 582 715 c 1,72,73
 518 707 518 707 475 682 c 0,74,75
 434 657 434 657 414 625 c 0,76,77
 391 590 391 590 383 551 c 0,78,79
 375 510 375 510 365 451 c 0,80,81
 348 334 348 334 348 143 c 0,82,83
 348 53 348 53 352 -80 c 256,84,85
 356 -213 356 -213 358 -295 c 0,86,87
 362 -377 362 -377 369 -526 c 0,88,89
 377 -676 377 -676 379 -778 c 1,90,91
 350 -854 350 -854 274 -913 c 0,92,93
 199 -975 199 -975 80 -1001 c 1,94,95
 61 -1001 61 -1001 55 -999 c 128,-1,96
 49 -997 49 -997 49 -989 c 0,97,98
 49 -979 49 -979 59 -954 c 0,99,100
 106 -795 106 -795 133 -602 c 0,101,102
 162 -412 162 -412 170 -252 c 0,103,104
 180 -92 180 -92 180 0 c 1,105,106
 184 78 184 78 184 225 c 0,107,108
 184 352 184 352 180 532 c 0,109,110
 178 584 178 584 176 694 c 0,111,112
 174 807 174 807 166 928 c 1,113,114
 154 1047 154 1047 125 1176 c 0,115,116
 94 1305 94 1305 47 1393 c 1,0,1
EndSplineSet
Validated: 1
EndChar

StartChar: uniEC02
Encoding: 60418 60418 5
Width: 2
GlyphClass: 2
Flags: W
LayerCount: 2
Fore
SplineSet
-1692 -322 m 1,0,-1
 -1626 -199 l 1,1,-1
 -209 -199 l 1,2,-1
 -266 -322 l 1,3,-1
 -1692 -322 l 1,0,-1
EndSplineSet
Validated: 1
EndChar

StartChar: uniEC43
Encoding: 60483 60483 6
Width: 2
GlyphClass: 2
Flags: W
LayerCount: 2
Fore
SplineSet
-1251 1432 m 0,0,1
 -1251 1473 -1251 1473 -1221 1505 c 0,2,3
 -1190 1538 -1190 1538 -1147 1538 c 256,4,5
 -1104 1538 -1104 1538 -1071 1507 c 0,6,7
 -1040 1475 -1040 1475 -1040 1432 c 256,8,9
 -1040 1389 -1040 1389 -1071 1358 c 0,10,11
 -1104 1325 -1104 1325 -1147 1325 c 0,12,13
 -1188 1325 -1188 1325 -1219 1358 c 0,14,15
 -1251 1389 -1251 1389 -1251 1432 c 0,0,1
-1092 1681 m 0,16,17
 -1092 1722 -1092 1722 -1061 1755 c 128,-1,18
 -1030 1788 -1030 1788 -987 1788 c 256,19,20
 -944 1788 -944 1788 -911 1757 c 0,21,22
 -881 1724 -881 1724 -881 1681 c 256,23,24
 -881 1638 -881 1638 -911 1608 c 0,25,26
 -944 1575 -944 1575 -987 1575 c 0,27,28
 -1028 1575 -1028 1575 -1059 1608 c 0,29,30
 -1092 1638 -1092 1638 -1092 1681 c 0,16,17
-942 1432 m 256,31,32
 -942 1473 -942 1473 -909 1505 c 0,33,34
 -877 1538 -877 1538 -836 1538 c 0,35,36
 -793 1538 -793 1538 -760 1507 c 0,37,38
 -729 1475 -729 1475 -729 1432 c 256,39,40
 -729 1389 -729 1389 -760 1358 c 0,41,42
 -793 1325 -793 1325 -836 1325 c 0,43,44
 -877 1325 -877 1325 -909.5 1358 c 128,-1,45
 -942 1391 -942 1391 -942 1432 c 256,31,32
EndSplineSet
Validated: 1
EndChar

StartChar: uniEC53
Encoding: 60499 60499 7
Width: 2
GlyphClass: 2
Flags: W
LayerCount: 2
Fore
SplineSet
-1208 1327 m 1,0,-1
 -913 1624 l 2,1,2
 -883 1655 -883 1655 -850 1674.5 c 128,-1,3
 -817 1694 -817 1694 -784 1694 c 0,4,5
 -768 1694 -768 1694 -748.5 1670.5 c 128,-1,6
 -729 1647 -729 1647 -729 1626 c 0,7,8
 -729 1595 -729 1595 -754 1569 c 0,9,10
 -770 1550 -770 1550 -815 1522 c 2,11,-1
 -1122 1327 l 1,12,-1
 -1208 1327 l 1,0,-1
EndSplineSet
Validated: 1
EndChar

StartChar: uniEC63
Encoding: 60515 60515 8
Width: 2
GlyphClass: 2
Flags: W
LayerCount: 2
Fore
SplineSet
-1090 1432 m 0,0,1
 -1090 1473 -1090 1473 -1059 1505 c 0,2,3
 -1028 1538 -1028 1538 -985 1538 c 256,4,5
 -942 1538 -942 1538 -909 1507 c 0,6,7
 -879 1475 -879 1475 -879 1432 c 256,8,9
 -879 1389 -879 1389 -909 1358 c 0,10,11
 -942 1325 -942 1325 -985 1325 c 0,12,13
 -1026 1325 -1026 1325 -1057 1358 c 0,14,15
 -1090 1389 -1090 1389 -1090 1432 c 0,0,1
EndSplineSet
Validated: 1
EndChar

StartChar: uniEC83
Encoding: 60547 60547 9
Width: 2
GlyphClass: 2
Flags: W
LayerCount: 2
Fore
SplineSet
-1106 1356 m 1,0,1
 -1010 1411 -1010 1411 -954 1462 c 0,2,3
 -901 1511 -901 1511 -864 1571 c 1,4,5
 -850 1602 -850 1602 -850 1630 c 0,6,7
 -850 1671 -850 1671 -872 1692 c 0,8,9
 -891 1710 -891 1710 -924 1710 c 0,10,11
 -952 1710 -952 1710 -989 1698 c 1,12,-1
 -1010 1722 l 1,13,14
 -981 1753 -981 1753 -965 1767 c 0,15,16
 -946 1782 -946 1782 -913 1788 c 1,17,18
 -819 1788 -819 1788 -770 1743 c 0,19,20
 -729 1706 -729 1706 -729 1640 c 0,21,22
 -729 1587 -729 1587 -760 1536 c 0,23,24
 -786 1499 -786 1499 -834 1460 c 0,25,26
 -881 1419 -881 1419 -944 1384 c 0,27,28
 -1010 1348 -1010 1348 -1085 1319 c 1,29,-1
 -1106 1356 l 1,0,1
EndSplineSet
Validated: 1
EndChar

StartChar: uniEC01
Encoding: 60417 60417 10
Width: 2
GlyphClass: 2
Flags: W
LayerCount: 2
Fore
SplineSet
-1061 -326 m 1,0,-1
 -995 -203 l 1,1,-1
 -193 -203 l 1,2,-1
 -250 -326 l 1,3,-1
 -1061 -326 l 1,0,-1
EndSplineSet
Validated: 1
EndChar

StartChar: uni6028
Encoding: 24616 24616 11
Width: 2
GlyphClass: 2
Flags: W
LayerCount: 2
Fore
SplineSet
-1057 -537 m 0,0,1
 -1057 -496 -1057 -496 -1026 -463 c 128,-1,2
 -995 -430 -995 -430 -952 -430 c 256,3,4
 -909 -430 -909 -430 -877 -461 c 0,5,6
 -846 -494 -846 -494 -846 -537 c 256,7,8
 -846 -580 -846 -580 -877 -610 c 0,9,10
 -909 -643 -909 -643 -952 -643 c 0,11,12
 -993 -643 -993 -643 -1024 -610 c 0,13,14
 -1057 -580 -1057 -580 -1057 -537 c 0,0,1
EndSplineSet
Validated: 1
EndChar

StartChar: uni6029
Encoding: 24617 24617 12
Width: 2
GlyphClass: 2
Flags: W
LayerCount: 2
Fore
SplineSet
-1671 1700 m 1,0,1
 -1546 1849 -1546 1849 -1425.5 1921 c 128,-1,2
 -1305 1993 -1305 1993 -1163 1993 c 0,3,4
 -1051 1993 -1051 1993 -901 1946 c 0,5,6
 -772 1905 -772 1905 -727 1890 c 0,7,8
 -682 1876 -682 1876 -623 1864 c 0,9,10
 -563 1851 -563 1851 -518 1851 c 0,11,12
 -446 1851 -446 1851 -373 1880 c 0,13,14
 -299 1909 -299 1909 -207 1972 c 1,15,16
 -219 1946 -219 1946 -250 1888 c 0,17,18
 -279 1831 -279 1831 -322 1782 c 0,19,20
 -365 1731 -365 1731 -432 1698 c 0,21,22
 -502 1665 -502 1665 -598 1665 c 0,23,24
 -735 1665 -735 1665 -901 1733 c 0,25,26
 -993 1772 -993 1772 -1077 1790 c 128,-1,27
 -1161 1808 -1161 1808 -1235 1808 c 0,28,29
 -1325 1808 -1325 1808 -1411 1786 c 0,30,31
 -1497 1761 -1497 1761 -1671 1700 c 1,0,1
EndSplineSet
Validated: 1
EndChar

StartChar: uni602A
Encoding: 24618 24618 13
Width: 1434
GlyphClass: 2
Flags: W
LayerCount: 2
Fore
SplineSet
74 774 m 0,0,1
 74 956 74 956 115 1137 c 0,2,3
 156 1315 156 1315 236 1466 c 0,4,5
 317 1620 317 1620 434 1726 c 0,6,7
 520 1802 520 1802 631 1860 c 0,8,9
 739 1915 739 1915 877 1944 c 0,10,11
 1014 1974 1014 1974 1171 1974 c 1,12,-1
 1180 1954 l 1,13,14
 944 1937 944 1937 762 1860 c 0,15,16
 578 1782 578 1782 494 1675 c 0,17,18
 444 1614 444 1614 410 1536 c 0,19,20
 373 1458 373 1458 349.5 1368 c 128,-1,21
 326 1278 326 1278 315 1184 c 0,22,23
 305 1087 305 1087 305 985 c 0,24,25
 305 809 305 809 338 637 c 0,26,27
 371 463 371 463 428 336 c 0,28,29
 485 207 485 207 553 156 c 1,30,31
 598 115 598 115 662 78 c 0,32,33
 725 43 725 43 803 18 c 0,34,35
 879 -6 879 -6 948 -6 c 0,36,37
 1171 -6 1171 -6 1171 252 c 1,38,39
 1165 305 1165 305 1128 385 c 0,40,41
 1094 463 1094 463 1042 539 c 0,42,43
 991 614 991 614 944 659 c 1,44,45
 836 733 836 733 799 733 c 0,46,47
 772 733 772 733 772 696 c 0,48,49
 772 686 772 686 776 666 c 0,50,51
 778 645 778 645 786 618 c 0,52,53
 793 592 793 592 801 561 c 0,54,55
 809 528 809 528 811 512 c 1,56,57
 745 512 745 512 674 528 c 0,58,59
 635 539 635 539 625 555 c 0,60,61
 614 567 614 567 598 618 c 1,62,63
 598 670 598 670 635 721 c 0,64,65
 670 770 670 770 715 803 c 1,66,67
 813 864 813 864 938 864 c 0,68,69
 1028 864 1028 864 1110 831 c 0,70,71
 1190 801 1190 801 1225 758 c 0,72,73
 1305 666 1305 666 1343 573 c 0,74,75
 1380 487 1380 487 1380 401 c 0,76,77
 1380 395 1380 395 1380 391 c 0,78,79
 1380 254 1380 254 1294 139 c 0,80,81
 1206 27 1206 27 1063 -39 c 0,82,83
 918 -104 918 -104 745 -104 c 0,84,85
 655 -104 655 -104 553 -82 c 0,86,87
 434 -59 434 -59 344 16 c 0,88,89
 256 90 256 90 195 211 c 0,90,91
 133 330 133 330 104 471 c 0,92,93
 74 614 74 614 74 774 c 0,0,1
EndSplineSet
Validated: 1
EndChar

StartChar: uniEBD8
Encoding: 60376 60376 14
Width: 410
GlyphClass: 2
Flags: W
LayerCount: 2
Fore
SplineSet
-618 -16 m 5,0,-1
 -549 45 l 5,1,-1
 -271 159 l 5,2,3
 -222 144 -222 144 -106 144 c 4,4,5
 -57 145 -57 145 -1 146 c 132,-1,6
 55 147 55 147 78 147 c 4,7,8
 147 147 147 147 233 102 c 5,9,10
 299 58 299 58 322 2 c 4,11,12
 346 -59 346 -59 346 -133 c 4,13,14
 346 -251 346 -251 307 -332 c 4,15,16
 226 -502 226 -502 23 -502 c 5,17,18
 -53 -497 -53 -497 -123 -452 c 4,19,20
 -193 -409 -193 -409 -193 -344 c 5,21,22
 -184 -309 -184 -309 -168 -287 c 4,23,24
 -152 -264 -152 -264 -129 -254 c 4,25,26
 -109 -244 -109 -244 -88 -244 c 4,27,28
 -59 -244 -59 -244 -39 -260 c 4,29,30
 -20 -274 -20 -274 -20 -301 c 4,31,32
 -20 -321 -20 -321 -43 -352 c 5,33,34
 -25 -446 -25 -446 63 -446 c 4,35,36
 92 -446 92 -446 118.5 -436 c 132,-1,37
 145 -426 145 -426 160 -409 c 4,38,39
 217 -344 217 -344 217 -262 c 4,40,41
 217 -209 217 -209 194.5 -169 c 132,-1,42
 172 -129 172 -129 135 -107.5 c 132,-1,43
 98 -86 98 -86 57 -86 c 5,44,45
 32 -78 32 -78 -13 -78 c 4,46,47
 -36 -78 -36 -78 -106 -82 c 132,-1,48
 -176 -86 -176 -86 -224 -86 c 4,49,50
 -288 -86 -288 -86 -343.5 -80.5 c 132,-1,51
 -399 -75 -399 -75 -471 -59.5 c 132,-1,52
 -543 -44 -543 -44 -618 -16 c 5,0,-1
EndSplineSet
Validated: 1
EndChar

StartChar: uniE027
Encoding: 57383 57383 15
Width: 1434
GlyphClass: 2
Flags: W
LayerCount: 2
Fore
SplineSet
96 -305 m 0,0,1
 96 -250 96 -250 115 -190 c 0,2,3
 145 -96 145 -96 231 -33 c 0,4,5
 315 31 315 31 440 55 c 0,6,7
 631 94 631 94 784 162 c 0,8,9
 938 229 938 229 1085 344 c 1,10,11
 1124 401 1124 401 1124 477 c 0,12,13
 1124 528 1124 528 1106 582 c 0,14,15
 1087 633 1087 633 1060.5 672 c 128,-1,16
 1034 711 1034 711 1008 733 c 0,17,18
 932 793 932 793 848 825 c 0,19,20
 762 858 762 858 705 864 c 0,21,22
 676 868 676 868 627 868 c 0,23,24
 555 868 555 868 510 854 c 0,25,26
 461 838 461 838 406 803 c 0,27,28
 371 780 371 780 352 733 c 0,29,30
 334 686 334 686 330 639 c 0,31,32
 326 590 326 590 326 532 c 1,33,34
 358 444 358 444 413.5 387 c 128,-1,35
 469 330 469 330 524 330 c 0,36,37
 543 330 543 330 557 336 c 0,38,39
 575 342 575 342 584 365 c 0,40,41
 590 387 590 387 594 428 c 128,-1,42
 598 469 598 469 602 481 c 1,43,44
 653 481 653 481 702 467 c 0,45,46
 752 451 752 451 762 418 c 0,47,48
 766 406 766 406 766 385 c 0,49,50
 766 319 766 319 682 262 c 1,51,52
 614 240 614 240 547 240 c 0,53,54
 389 240 389 240 221 340 c 0,55,56
 162 375 162 375 133 438 c 0,57,58
 106 500 106 500 106 569 c 0,59,60
 106 598 106 598 115 639 c 1,61,62
 158 748 158 748 242 813 c 0,63,64
 324 879 324 879 451 913 c 0,65,66
 598 952 598 952 766 952 c 0,67,68
 836 952 836 952 870 948 c 1,69,70
 989 948 989 948 1085 911 c 0,71,72
 1182 872 1182 872 1245 813 c 0,73,74
 1311 752 1311 752 1345.5 678 c 128,-1,75
 1380 604 1380 604 1380 530 c 0,76,77
 1380 471 1380 471 1341 406 c 0,78,79
 1303 340 1303 340 1243 299 c 0,80,81
 1180 256 1180 256 1057 197 c 1,82,83
 934 133 934 133 852 102 c 1,84,85
 999 102 999 102 1100 59 c 0,86,87
 1200 18 1200 18 1257 -47 c 0,88,89
 1313 -115 1313 -115 1335 -186 c 0,90,91
 1358 -260 1358 -260 1358 -332 c 0,92,93
 1358 -365 1358 -365 1335 -422 c 0,94,95
 1313 -477 1313 -477 1276 -530 c 0,96,97
 1237 -584 1237 -584 1194 -610 c 0,98,99
 967 -752 967 -752 793 -864 c 1,100,101
 621 -981 621 -981 520 -1059 c 0,102,103
 422 -1137 422 -1137 377 -1194 c 0,104,105
 330 -1251 330 -1251 330 -1300 c 0,106,107
 330 -1333 330 -1333 352 -1368 c 0,108,109
 367 -1386 367 -1386 385 -1391 c 0,110,111
 403 -1393 403 -1393 465 -1393 c 1,112,113
 461 -1397 461 -1397 440 -1411 c 0,114,115
 422 -1427 422 -1427 385 -1458 c 1,116,117
 350 -1493 350 -1493 332 -1507 c 0,118,119
 309 -1522 309 -1522 283 -1522 c 0,120,121
 244 -1522 244 -1522 211 -1489 c 128,-1,122
 178 -1456 178 -1456 178 -1419 c 1,123,124
 203 -1243 203 -1243 313 -1126 c 0,125,126
 426 -1010 426 -1010 639 -872 c 0,127,128
 850 -735 850 -735 961 -637 c 0,129,130
 1071 -537 1071 -537 1106 -385 c 0,131,132
 1110 -373 1110 -373 1110 -344 c 0,133,134
 1110 -303 1110 -303 1094 -260 c 0,135,136
 1075 -217 1075 -217 1049 -182 c 0,137,138
 1020 -145 1020 -145 989 -123 c 0,139,140
 911 -57 911 -57 825 -20.5 c 128,-1,141
 739 16 739 16 688 16 c 0,142,143
 582 16 582 16 473 -25 c 0,144,145
 326 -78 326 -78 326 -205 c 0,146,147
 326 -231 326 -231 338 -285 c 0,148,149
 350 -338 350 -338 352 -348 c 0,150,151
 399 -420 399 -420 459 -467 c 0,152,153
 518 -512 518 -512 561 -512 c 0,154,155
 580 -512 580 -512 590 -504 c 1,156,157
 606 -500 606 -500 616 -469 c 0,158,159
 627 -442 627 -442 633 -395 c 128,-1,160
 639 -348 639 -348 639 -344 c 1,161,162
 682 -344 682 -344 733 -373 c 0,163,164
 782 -401 782 -401 791 -438 c 1,165,166
 791 -485 791 -485 770 -518 c 0,167,168
 752 -551 752 -551 711 -580 c 1,169,170
 618 -623 618 -623 522 -623 c 0,171,172
 436 -623 436 -623 360 -596 c 0,173,174
 283 -567 283 -567 225 -532 c 0,175,176
 96 -444 96 -444 96 -305 c 0,0,1
EndSplineSet
Validated: 1
EndChar

StartChar: colon
Encoding: 58 58 16
Width: 573
GlyphClass: 2
Flags: W
LayerCount: 2
Fore
SplineSet
166 106 m 0,0,1
 166 147 166 147 198.5 180 c 128,-1,2
 231 213 231 213 272 213 c 0,3,4
 315 213 315 213 348 182 c 0,5,6
 379 150 379 150 379 106 c 0,7,8
 379 63 379 63 348 33 c 0,9,10
 315 0 315 0 272 0 c 0,11,12
 231 0 231 0 198.5 33 c 128,-1,13
 166 66 166 66 166 106 c 0,0,1
176 838 m 256,14,15
 176 879 176 879 209 911 c 0,16,17
 242 944 242 944 283 944 c 0,18,19
 326 944 326 944 357.5 912.5 c 128,-1,20
 389 881 389 881 389 838 c 256,21,22
 389 795 389 795 358 764 c 0,23,24
 326 731 326 731 283 731 c 0,25,26
 242 731 242 731 209 764 c 128,-1,27
 176 797 176 797 176 838 c 256,14,15
EndSplineSet
Validated: 1
EndChar

StartChar: uniE02B
Encoding: 57387 57387 17
Width: 1331
GlyphClass: 2
Flags: W
LayerCount: 2
Fore
SplineSet
49 369 m 1,0,1
 55 498 55 498 104 586 c 0,2,3
 152 672 152 672 250 754 c 0,4,5
 311 807 311 807 393 840 c 0,6,7
 473 874 473 874 567 893 c 0,8,9
 662 911 662 911 768 920 c 1,10,11
 879 920 879 920 977 897 c 0,12,13
 1073 874 1073 874 1151 823 c 0,14,15
 1227 772 1227 772 1268 694 c 1,16,17
 1284 621 1284 621 1284 537 c 0,18,19
 1284 389 1284 389 1233 279 c 0,20,21
 1180 168 1180 168 1116 111 c 0,22,23
 1085 82 1085 82 1024 55 c 0,24,25
 963 29 963 29 893 12 c 0,26,27
 821 -2 821 -2 766 -2 c 0,28,29
 741 -2 741 -2 684 -4 c 0,30,31
 629 -6 629 -6 598 -6 c 0,32,33
 528 -6 528 -6 494 0 c 0,34,35
 371 20 371 20 273.5 61 c 128,-1,36
 176 102 176 102 113 178 c 0,37,38
 49 256 49 256 49 369 c 1,0,1
301 528 m 0,39,40
 301 451 301 451 346 377 c 0,41,42
 393 301 393 301 469 238 c 1,43,44
 543 182 543 182 645 150 c 0,45,46
 748 115 748 115 827 115 c 0,47,48
 920 115 920 115 999 186 c 0,49,50
 1061 240 1061 240 1081 309 c 0,51,52
 1102 379 1102 379 1102 465 c 1,53,54
 987 748 987 748 653 748 c 0,55,56
 571 748 571 748 498 733 c 0,57,58
 434 717 434 717 389 684 c 0,59,60
 342 653 342 653 317 596 c 0,61,62
 301 565 301 565 301 528 c 0,39,40
EndSplineSet
Validated: 1
EndChar

StartChar: uni602F
Encoding: 24623 24623 18
Width: 2
GlyphClass: 2
Flags: W
LayerCount: 2
Fore
SplineSet
-1059 -881 m 1,0,1
 -1036 -813 -1036 -813 -958 -713 c 0,2,3
 -883 -612 -883 -612 -739 -612 c 0,4,5
 -664 -612 -664 -612 -569 -659 c 0,6,7
 -477 -707 -477 -707 -414 -707 c 0,8,9
 -365 -707 -365 -707 -309.5 -682 c 128,-1,10
 -254 -657 -254 -657 -184 -606 c 1,11,12
 -285 -868 -285 -868 -461 -868 c 0,13,14
 -516 -868 -516 -868 -590 -840 c 0,15,16
 -637 -819 -637 -819 -664 -809 c 0,17,18
 -688 -797 -688 -797 -715 -788 c 0,19,20
 -741 -782 -741 -782 -774 -782 c 0,21,22
 -872 -782 -872 -782 -1059 -881 c 1,0,1
EndSplineSet
Validated: 1
EndChar

StartChar: uni6030
Encoding: 24624 24624 19
Width: 2
GlyphClass: 2
Flags: W
LayerCount: 2
Fore
SplineSet
-1087 1692 m 1,0,1
 -1077 1722 -1077 1722 -1044 1782 c 0,2,3
 -1010 1841 -1010 1841 -938 1901 c 0,4,5
 -864 1960 -864 1960 -768 1960 c 0,6,7
 -686 1960 -686 1960 -598 1913 c 0,8,9
 -508 1866 -508 1866 -442 1866 c 0,10,11
 -348 1866 -348 1866 -213 1966 c 1,12,13
 -262 1837 -262 1837 -330 1772 c 0,14,15
 -397 1704 -397 1704 -489 1704 c 0,16,17
 -547 1704 -547 1704 -618 1733 c 0,18,19
 -653 1749 -653 1749 -686 1761 c 0,20,21
 -719 1776 -719 1776 -745 1784 c 0,22,23
 -772 1790 -772 1790 -803 1790 c 0,24,25
 -901 1790 -901 1790 -1087 1692 c 1,0,1
EndSplineSet
Validated: 1
EndChar

StartChar: uniE000
Encoding: 57344 57344 20
Width: 1331
GlyphClass: 2
Flags: W
LayerCount: 2
Fore
SplineSet
47 717 m 1,0,1
 121 743 121 743 195 799 c 0,2,3
 266 852 266 852 322 920 c 0,4,5
 344 942 344 942 356 942 c 0,6,7
 385 942 385 942 385 840 c 0,8,9
 385 820 385 820 381 810 c 128,-1,10
 377 800 377 800 373 760 c 1,11,12
 393 774 393 774 411.5 787 c 128,-1,13
 430 800 430 800 447.5 811 c 128,-1,14
 465 822 465 822 485 831 c 0,15,16
 539 854 539 854 592 866 c 0,17,18
 643 877 643 877 707 877 c 0,19,20
 836 872 836 872 969 831 c 0,21,22
 1100 791 1100 791 1188 713 c 0,23,24
 1276 633 1276 633 1276 522 c 1,25,26
 1265 366 1265 366 1214 276 c 0,27,28
 1159 184 1159 184 1063 111 c 0,29,30
 985 53 985 53 891 18 c 0,31,32
 797 -16 797 -16 721 -16 c 1,33,34
 641 -8 641 -8 594 47 c 0,35,36
 543 104 543 104 543 158 c 0,37,38
 543 215 543 215 580 256 c 0,39,40
 614 297 614 297 676 297 c 0,41,42
 700 297 700 297 737 287 c 1,43,44
 737 238 737 238 780 199 c 0,45,46
 825 160 825 160 885 160 c 0,47,48
 930 160 930 160 971 190 c 0,49,50
 1012 221 1012 221 1036 270 c 1,51,52
 1042 299 1042 299 1042 326 c 0,53,54
 1042 362 1042 362 1035.5 402.5 c 128,-1,55
 1029 443 1029 443 1016 473 c 0,56,57
 987 532 987 532 946 578 c 0,58,59
 903 623 903 623 856 649 c 0,60,61
 793 686 793 686 719 707 c 0,62,63
 643 725 643 725 582 725 c 1,64,65
 518 717 518 717 475 692 c 0,66,67
 438 669 438 669 414 625 c 0,68,69
 391 590 391 590 383 551 c 0,70,71
 375 510 375 510 365 451 c 0,72,73
 348 334 348 334 348 143 c 0,74,75
 348 53 348 53 352 -80 c 256,76,77
 356 -213 356 -213 358 -295 c 0,78,79
 362 -377 362 -377 369 -526 c 0,80,81
 377 -676 377 -676 379 -778 c 1,82,83
 350 -854 350 -854 274 -913 c 0,84,85
 199 -975 199 -975 80 -1001 c 1,86,87
 61 -1001 61 -1001 55 -999 c 128,-1,88
 49 -997 49 -997 49 -989 c 0,89,90
 49 -979 49 -979 59 -954 c 0,91,92
 106 -795 106 -795 133 -602 c 0,93,94
 162 -412 162 -412 170 -252 c 0,95,96
 180 -92 180 -92 180 0 c 2,97,-1
 180 51 l 2,98,99
 180 218 180 218 165 336.5 c 128,-1,100
 150 455 150 455 123 538.5 c 128,-1,101
 96 622 96 622 47 717 c 1,0,1
EndSplineSet
Validated: 1
EndChar

StartChar: uniE004
Encoding: 57348 57348 21
Width: 1946
GlyphClass: 2
Flags: W
LayerCount: 2
Fore
SplineSet
47 717 m 1,0,1
 121 743 121 743 195 799 c 0,2,3
 266 852 266 852 322 920 c 0,4,5
 344 942 344 942 356 942 c 0,6,7
 385 942 385 942 385 840 c 0,8,9
 385 820 385 820 381 810 c 128,-1,10
 377 800 377 800 373 760 c 1,11,12
 413 786 413 786 441.5 804.5 c 128,-1,13
 470 823 470 823 492.5 835.5 c 128,-1,14
 515 848 515 848 535 854 c 0,15,16
 602 877 602 877 672 877 c 0,17,18
 909 868 909 868 1057 770 c 1,19,20
 1217 877 1217 877 1356 877 c 1,21,22
 1477 872 1477 872 1602 831 c 0,23,24
 1726 791 1726 791 1810 711 c 0,25,26
 1894 633 1894 633 1894 522 c 1,27,28
 1885 400 1885 400 1864 340 c 0,29,30
 1839 270 1839 270 1796 215 c 0,31,32
 1751 160 1751 160 1692 111 c 0,33,34
 1640 72 1640 72 1583 43 c 0,35,36
 1528 12 1528 12 1473 -2 c 0,37,38
 1415 -20 1415 -20 1370 -20 c 1,39,40
 1296 -12 1296 -12 1249 45 c 0,41,42
 1202 100 1202 100 1202 154 c 0,43,44
 1202 213 1202 213 1237 256 c 0,45,46
 1270 297 1270 297 1327 297 c 0,47,48
 1350 297 1350 297 1382 287 c 1,49,50
 1382 238 1382 238 1423 199 c 0,51,52
 1466 160 1466 160 1524 160 c 0,53,54
 1640 160 1640 160 1665 270 c 0,55,56
 1673 311 1673 311 1673 332 c 0,57,58
 1673 382 1673 382 1659 438 c 128,-1,59
 1645 494 1645 494 1620 530 c 0,60,61
 1565 610 1565 610 1495 649 c 0,62,63
 1337 737 1337 737 1225 737 c 0,64,65
 1161 737 1161 737 1124 709 c 1,66,67
 1212 608 1212 608 1212 522 c 1,68,69
 1203 400 1203 400 1182 340 c 0,70,71
 1157 270 1157 270 1114 215 c 0,72,73
 1069 160 1069 160 1010 111 c 0,74,75
 958 72 958 72 901 43 c 0,76,77
 846 12 846 12 791 -2 c 0,78,79
 733 -20 733 -20 688 -20 c 1,80,81
 612 -12 612 -12 567 43 c 0,82,83
 520 100 520 100 520 154 c 0,84,85
 520 213 520 213 555 256 c 0,86,87
 588 297 588 297 645 297 c 0,88,89
 668 297 668 297 700 287 c 1,90,91
 700 238 700 238 741 199 c 0,92,93
 784 160 784 160 842 160 c 0,94,95
 901 160 901 160 938 182 c 0,96,97
 973 203 973 203 983 270 c 0,98,99
 991 311 991 311 991 330 c 0,100,101
 991 367 991 367 984.5 407 c 128,-1,102
 978 447 978 447 965 475 c 0,103,104
 938 532 938 532 897 580 c 0,105,106
 854 625 854 625 813 649 c 0,107,108
 641 756 641 756 547 756 c 1,109,110
 513 751 513 751 459 711 c 0,111,112
 424 682 424 682 406 641 c 0,113,114
 387 598 387 598 385 571 c 1,115,116
 379 545 379 545 365 451 c 0,117,118
 348 334 348 334 348 143 c 0,119,120
 348 53 348 53 352 -80 c 256,121,122
 356 -213 356 -213 358 -295 c 0,123,124
 362 -377 362 -377 369 -526 c 0,125,126
 377 -676 377 -676 379 -778 c 1,127,128
 350 -854 350 -854 274 -913 c 0,129,130
 199 -975 199 -975 80 -1001 c 1,131,132
 61 -1001 61 -1001 55 -999 c 128,-1,133
 49 -997 49 -997 49 -989 c 0,134,135
 49 -979 49 -979 59 -954 c 0,136,137
 106 -795 106 -795 133 -602 c 0,138,139
 162 -412 162 -412 170 -252 c 0,140,141
 180 -92 180 -92 180 0 c 2,142,-1
 180 51 l 2,143,144
 180 218 180 218 165 336.5 c 128,-1,145
 150 455 150 455 123 538.5 c 128,-1,146
 96 622 96 622 47 717 c 1,0,1
EndSplineSet
Validated: 1
EndChar

StartChar: uniE008
Encoding: 57352 57352 22
Width: 1331
GlyphClass: 2
Flags: W
LayerCount: 2
Fore
SplineSet
47 1393 m 1,0,1
 117 1417 117 1417 190 1473 c 0,2,3
 264 1526 264 1526 322 1595 c 0,4,5
 342 1618 342 1618 356 1618 c 0,6,7
 385 1618 385 1618 385 1516 c 0,8,9
 385 1448 385 1448 373 1333 c 0,10,11
 373 1305 373 1305 373 1249 c 0,12,13
 371 1196 371 1196 371 1163 c 256,14,15
 371 1130 371 1130 371 1090 c 0,16,17
 371 1040 371 1040 371 997 c 0,18,19
 371 956 371 956 373 881 c 0,20,21
 373 803 373 803 373 760 c 1,22,23
 393 774 393 774 411.5 787 c 128,-1,24
 430 800 430 800 447.5 811 c 128,-1,25
 465 822 465 822 485 831 c 0,26,27
 539 854 539 854 592 866 c 0,28,29
 643 877 643 877 707 877 c 0,30,31
 836 872 836 872 969 831 c 0,32,33
 1100 791 1100 791 1188 713 c 0,34,35
 1276 633 1276 633 1276 522 c 1,36,37
 1265 366 1265 366 1214 276 c 0,38,39
 1159 184 1159 184 1063 111 c 0,40,41
 983 51 983 51 893 16 c 0,42,43
 799 -20 799 -20 725 -20 c 1,44,45
 645 -12 645 -12 598 43 c 0,46,47
 547 100 547 100 547 154 c 0,48,49
 547 213 547 213 582 256 c 0,50,51
 616 297 616 297 678 297 c 0,52,53
 705 297 705 297 737 287 c 1,54,55
 737 238 737 238 780 199 c 0,56,57
 825 160 825 160 885 160 c 0,58,59
 930 160 930 160 971 190 c 0,60,61
 1012 221 1012 221 1036 270 c 1,62,63
 1042 299 1042 299 1042 326 c 0,64,65
 1042 362 1042 362 1035.5 402.5 c 128,-1,66
 1029 443 1029 443 1016 473 c 0,67,68
 987 532 987 532 946 578 c 0,69,70
 903 623 903 623 856 649 c 0,71,72
 793 686 793 686 719 707 c 0,73,74
 643 725 643 725 582 725 c 1,75,76
 518 717 518 717 475 692 c 0,77,78
 438 669 438 669 414 625 c 0,79,80
 391 590 391 590 383 551 c 0,81,82
 375 510 375 510 365 451 c 1,83,84
 365 307 365 307 379 164 c 1,85,86
 360 115 360 115 322 72 c 0,87,88
 281 29 281 29 221 -4 c 0,89,90
 164 -39 164 -39 80 -59 c 1,91,92
 61 -59 61 -59 55 -57 c 128,-1,93
 49 -55 49 -55 49 -47 c 0,94,95
 49 -37 49 -37 59 -12 c 0,96,97
 109 154 109 154 131 246 c 0,98,99
 156 338 156 338 162 381 c 0,100,101
 168 426 168 426 180 532 c 0,102,103
 186 578 186 578 186 664 c 0,104,105
 186 848 186 848 153.5 1050.5 c 128,-1,106
 121 1253 121 1253 47 1393 c 1,0,1
EndSplineSet
Validated: 1
EndChar

StartChar: uniE00C
Encoding: 57356 57356 23
Width: 1946
GlyphClass: 2
Flags: W
LayerCount: 2
Fore
SplineSet
47 1393 m 1,0,1
 117 1417 117 1417 190 1473 c 0,2,3
 264 1526 264 1526 322 1595 c 0,4,5
 340 1616 340 1616 352 1616 c 0,6,7
 385 1616 385 1616 385 1499 c 0,8,9
 385 1427 385 1427 373 1313 c 1,10,11
 371 1241 371 1241 369 1176 c 0,12,13
 367 1108 367 1108 365 1036 c 0,14,15
 362 967 362 967 362 897 c 0,16,17
 360 825 360 825 360 737 c 1,18,19
 408 810 408 810 492 842 c 0,20,21
 576 872 576 872 672 877 c 1,22,23
 774 877 774 877 874 850 c 0,24,25
 977 823 977 823 1057 770 c 1,26,27
 1217 877 1217 877 1356 877 c 1,28,29
 1477 872 1477 872 1602 831 c 0,30,31
 1726 791 1726 791 1810 711 c 0,32,33
 1894 633 1894 633 1894 522 c 1,34,35
 1885 400 1885 400 1864 340 c 0,36,37
 1839 270 1839 270 1796 215 c 0,38,39
 1751 160 1751 160 1692 111 c 0,40,41
 1640 72 1640 72 1583 43 c 0,42,43
 1528 12 1528 12 1473 -2 c 0,44,45
 1415 -20 1415 -20 1370 -20 c 1,46,47
 1296 -12 1296 -12 1249 45 c 0,48,49
 1202 100 1202 100 1202 154 c 0,50,51
 1202 213 1202 213 1237 256 c 0,52,53
 1270 297 1270 297 1327 297 c 0,54,55
 1350 297 1350 297 1382 287 c 1,56,57
 1382 238 1382 238 1423 199 c 0,58,59
 1466 160 1466 160 1524 160 c 0,60,61
 1640 160 1640 160 1665 270 c 0,62,63
 1673 311 1673 311 1673 332 c 0,64,65
 1673 382 1673 382 1659 438 c 128,-1,66
 1645 494 1645 494 1620 530 c 0,67,68
 1565 610 1565 610 1495 649 c 0,69,70
 1337 737 1337 737 1225 737 c 0,71,72
 1161 737 1161 737 1124 709 c 1,73,74
 1212 608 1212 608 1212 522 c 1,75,76
 1203 400 1203 400 1182 340 c 0,77,78
 1157 270 1157 270 1114 215 c 0,79,80
 1069 160 1069 160 1010 111 c 0,81,82
 958 72 958 72 901 43 c 0,83,84
 846 12 846 12 791 -2 c 0,85,86
 733 -20 733 -20 688 -20 c 1,87,88
 612 -12 612 -12 567 43 c 0,89,90
 520 100 520 100 520 154 c 0,91,92
 520 213 520 213 555 256 c 0,93,94
 588 297 588 297 645 297 c 0,95,96
 668 297 668 297 700 287 c 1,97,98
 700 238 700 238 741 199 c 0,99,100
 784 160 784 160 842 160 c 0,101,102
 901 160 901 160 938 182 c 0,103,104
 973 203 973 203 983 270 c 0,105,106
 991 311 991 311 991 330 c 0,107,108
 991 367 991 367 984.5 407 c 128,-1,109
 978 447 978 447 965 475 c 0,110,111
 938 532 938 532 897 580 c 0,112,113
 854 625 854 625 813 649 c 0,114,115
 641 756 641 756 547 756 c 1,116,117
 507 748 507 748 455 705 c 0,118,119
 420 674 420 674 399 629 c 0,120,121
 379 584 379 584 354 502 c 1,122,123
 354 487 354 487 354 477 c 0,124,125
 352 469 352 469 352 457 c 0,126,127
 352 416 352 416 356 373 c 0,128,129
 360 332 360 332 369 266 c 0,130,131
 377 203 377 203 379 164 c 1,132,133
 360 115 360 115 322 72 c 0,134,135
 281 29 281 29 221 -4 c 0,136,137
 164 -39 164 -39 80 -59 c 1,138,139
 61 -59 61 -59 55 -57 c 128,-1,140
 49 -55 49 -55 49 -47 c 0,141,142
 49 -37 49 -37 59 -12 c 0,143,144
 109 154 109 154 131 246 c 0,145,146
 156 338 156 338 162 381 c 0,147,148
 168 426 168 426 180 532 c 0,149,150
 186 578 186 578 186 664 c 0,151,152
 186 848 186 848 153.5 1050.5 c 128,-1,153
 121 1253 121 1253 47 1393 c 1,0,1
EndSplineSet
Validated: 1
EndChar

StartChar: uniE010
Encoding: 57360 57360 24
Width: 1946
GlyphClass: 2
Flags: W
LayerCount: 2
Fore
SplineSet
47 717 m 1,0,1
 121 743 121 743 195 799 c 0,2,3
 266 852 266 852 322 920 c 0,4,5
 344 942 344 942 356 942 c 0,6,7
 385 942 385 942 385 840 c 0,8,9
 385 820 385 820 381 810 c 128,-1,10
 377 800 377 800 373 760 c 1,11,12
 393 774 393 774 411.5 787 c 128,-1,13
 430 800 430 800 447.5 811 c 128,-1,14
 465 822 465 822 485 831 c 0,15,16
 539 854 539 854 592 866 c 0,17,18
 643 877 643 877 707 877 c 1,19,20
 791 868 791 868 856 850 c 0,21,22
 924 829 924 829 969 805 c 0,23,24
 1012 780 1012 780 1038 762 c 0,25,26
 1065 743 1065 743 1065 743 c 1,27,28
 1073 750 1073 750 1096 766 c 0,29,30
 1116 782 1116 782 1155 805 c 0,31,32
 1194 825 1194 825 1248.5 841.5 c 128,-1,33
 1303 858 1303 858 1364 858 c 0,34,35
 1477 852 1477 852 1591 817 c 0,36,37
 1706 782 1706 782 1788 707 c 0,38,39
 1868 631 1868 631 1872 510 c 1,40,41
 1872 355 1872 355 1829 279 c 0,42,43
 1786 205 1786 205 1690 123 c 0,44,45
 1604 51 1604 51 1528 12 c 0,46,47
 1450 -27 1450 -27 1366 -29 c 1,48,49
 1288 -8 1288 -8 1247 41 c 0,50,51
 1206 88 1206 88 1206 141 c 0,52,53
 1206 184 1206 184 1222.5 219 c 128,-1,54
 1239 254 1239 254 1270 274 c 0,55,56
 1298 295 1298 295 1335 295 c 0,57,58
 1360 295 1360 295 1380 287 c 1,59,60
 1403 211 1403 211 1464 184 c 0,61,62
 1505 162 1505 162 1548 162 c 0,63,64
 1657 162 1657 162 1659 346 c 0,65,66
 1659 418 1659 418 1621.5 495.5 c 128,-1,67
 1584 573 1584 573 1511 633 c 0,68,69
 1473 666 1473 666 1419 686 c 0,70,71
 1368 709 1368 709 1321 717 c 128,-1,72
 1274 725 1274 725 1241 725 c 0,73,74
 1194 725 1194 725 1167 709 c 0,75,76
 1141 692 1141 692 1141 674 c 1,77,78
 1163 631 1163 631 1169 604 c 0,79,80
 1176 575 1176 575 1178 522 c 0,81,82
 1178 482 1178 482 1171 436 c 128,-1,83
 1164 390 1164 390 1153 354.5 c 128,-1,84
 1142 319 1142 319 1122 285 c 0,85,86
 1067 195 1067 195 967 111 c 0,87,88
 874 33 874 33 823 4 c 0,89,90
 770 -23 770 -23 657 -29 c 1,91,92
 598 -23 598 -23 547 20 c 0,93,94
 494 63 494 63 494 133 c 0,95,96
 494 147 494 147 502 184 c 0,97,98
 512 229 512 229 540.5 264 c 128,-1,99
 569 299 569 299 616 299 c 0,100,101
 641 299 641 299 672 287 c 1,102,103
 680 252 680 252 719 222.5 c 128,-1,104
 758 193 758 193 797 176 c 1,105,106
 821 172 821 172 836 172 c 0,107,108
 881 172 881 172 911 211 c 0,109,110
 940 246 940 246 948 348 c 0,111,112
 948 389 948 389 938 441 c 128,-1,113
 928 493 928 493 911 524 c 0,114,115
 872 596 872 596 811 645 c 0,116,117
 766 682 766 682 702 705 c 0,118,119
 637 729 637 729 580 729 c 0,120,121
 549 729 549 729 535 725 c 0,122,123
 477 714 477 714 410 653 c 0,124,125
 362 608 362 608 354 502 c 0,126,127
 354 487 354 487 354 477 c 0,128,129
 352 469 352 469 352 457 c 0,130,131
 352 416 352 416 356 373 c 0,132,133
 360 332 360 332 369 266 c 0,134,135
 377 203 377 203 379 164 c 1,136,137
 360 115 360 115 322 72 c 0,138,139
 281 29 281 29 221 -4 c 0,140,141
 164 -39 164 -39 80 -59 c 1,142,143
 61 -59 61 -59 55 -57 c 128,-1,144
 49 -55 49 -55 49 -47 c 0,145,146
 49 -37 49 -37 59 -12 c 0,147,148
 78 49 78 49 94 133 c 0,149,150
 113 215 113 215 125 313 c 0,151,152
 135 410 135 410 135 500 c 0,153,154
 135 608 135 608 119 638.5 c 128,-1,155
 103 669 103 669 47 717 c 1,0,1
EndSplineSet
Validated: 1
EndChar

StartChar: uniE014
Encoding: 57364 57364 25
Width: 1331
GlyphClass: 2
Flags: W
LayerCount: 2
Fore
SplineSet
47 717 m 1,0,1
 121 743 121 743 195 799 c 0,2,3
 266 852 266 852 322 920 c 0,4,5
 344 942 344 942 356 942 c 0,6,7
 385 942 385 942 385 840 c 0,8,9
 385 820 385 820 381 810 c 128,-1,10
 377 800 377 800 373 760 c 1,11,12
 393 774 393 774 411.5 787 c 128,-1,13
 430 800 430 800 447.5 811 c 128,-1,14
 465 822 465 822 485 831 c 0,15,16
 539 854 539 854 592 866 c 0,17,18
 643 877 643 877 707 877 c 0,19,20
 836 872 836 872 969 831 c 0,21,22
 1100 791 1100 791 1188 713 c 0,23,24
 1276 633 1276 633 1276 522 c 1,25,26
 1265 366 1265 366 1214 276 c 0,27,28
 1159 184 1159 184 1063 111 c 0,29,30
 983 51 983 51 893 16 c 0,31,32
 799 -20 799 -20 725 -20 c 1,33,34
 645 -12 645 -12 598 43 c 0,35,36
 547 100 547 100 547 154 c 0,37,38
 547 213 547 213 582 256 c 0,39,40
 616 297 616 297 678 297 c 0,41,42
 705 297 705 297 737 287 c 1,43,44
 737 238 737 238 780 199 c 0,45,46
 825 160 825 160 885 160 c 0,47,48
 930 160 930 160 971 190 c 0,49,50
 1012 221 1012 221 1036 270 c 1,51,52
 1042 299 1042 299 1042 326 c 0,53,54
 1042 362 1042 362 1035.5 402.5 c 128,-1,55
 1029 443 1029 443 1016 473 c 0,56,57
 987 532 987 532 946 578 c 0,58,59
 903 623 903 623 856 649 c 0,60,61
 793 686 793 686 719 707 c 0,62,63
 643 725 643 725 582 725 c 1,64,65
 518 717 518 717 475 692 c 0,66,67
 438 669 438 669 414 625 c 0,68,69
 391 590 391 590 383 551 c 0,70,71
 375 510 375 510 365 451 c 0,72,73
 362 416 362 416 362 367 c 0,74,75
 362 350 362 350 365 332 c 0,76,77
 365 311 365 311 369 266 c 128,-1,78
 373 221 373 221 379 164 c 1,79,80
 360 115 360 115 322 72 c 0,81,82
 281 29 281 29 221 -4 c 0,83,84
 164 -39 164 -39 80 -59 c 1,85,86
 61 -59 61 -59 55 -57 c 128,-1,87
 49 -55 49 -55 49 -47 c 0,88,89
 49 -37 49 -37 59 -12 c 1,90,91
 111 233 111 233 127 326 c 0,92,93
 143 420 143 420 143 492 c 1,94,95
 116 633 116 633 47 717 c 1,0,1
EndSplineSet
Validated: 1
EndChar

StartChar: uniE020
Encoding: 57376 57376 26
Width: 1331
GlyphClass: 2
Flags: W
LayerCount: 2
Fore
SplineSet
12 803 m 1,0,-1
 246 905 l 1,1,2
 271 905 271 905 304 891 c 128,-1,3
 337 877 337 877 363 851 c 128,-1,4
 389 825 389 825 401 788 c 1,5,-1
 770 154 l 1,6,7
 918 277 918 277 975 329 c 128,-1,8
 1032 381 1032 381 1057.5 418 c 128,-1,9
 1083 455 1083 455 1083 494 c 0,10,11
 1083 518 1083 518 1061 604 c 1,12,13
 1039 662 1039 662 1013 698 c 128,-1,14
 987 734 987 734 962 751 c 128,-1,15
 937 768 937 768 910 777 c 128,-1,16
 883 786 883 786 842 795 c 1,17,-1
 1079 895 l 2,18,19
 1107 905 1107 905 1124 905 c 0,20,21
 1202 905 1202 905 1255 811 c 0,22,23
 1307 719 1307 719 1307 625 c 0,24,25
 1307 600 1307 600 1298 571 c 1,26,27
 1287 503 1287 503 1230.5 428.5 c 128,-1,28
 1174 354 1174 354 1092 280 c 128,-1,29
 1010 206 1010 206 909 126.5 c 128,-1,30
 808 47 808 47 655 -72 c 0,31,32
 602 -114 602 -114 579.5 -134.5 c 128,-1,33
 557 -155 557 -155 519.5 -191 c 128,-1,34
 482 -227 482 -227 434 -270 c 0,35,36
 401 -298 401 -298 363.5 -364.5 c 128,-1,37
 326 -431 326 -431 326 -494 c 0,38,39
 326 -544 326 -544 354 -582 c 0,40,41
 444 -702 444 -702 565 -758 c 1,42,43
 452 -863 452 -863 322 -922 c 1,44,45
 305 -903 305 -903 251.5 -847 c 128,-1,46
 198 -791 198 -791 176.5 -763.5 c 128,-1,47
 155 -736 155 -736 133 -688 c 0,48,49
 109 -636 109 -636 109 -582 c 0,50,51
 109 -409 109 -409 324 -217 c 0,52,53
 545 -19 545 -19 580 10 c 1,54,-1
 221 618 l 2,55,56
 186 680 186 680 158.5 717.5 c 128,-1,57
 131 755 131 755 112 769.5 c 128,-1,58
 93 784 93 784 77.5 788 c 128,-1,59
 62 792 62 792 12 803 c 1,0,-1
EndSplineSet
Validated: 1
EndChar

StartChar: uniE024
Encoding: 57380 57380 27
Width: 1434
GlyphClass: 2
Flags: W
LayerCount: 2
Fore
SplineSet
41 465 m 0,0,1
 41 541 41 541 61 610 c 0,2,3
 80 680 80 680 121 745 c 0,4,5
 162 811 162 811 221 868 c 0,6,7
 338 987 338 987 444 1051 c 0,8,9
 551 1114 551 1114 705 1178 c 0,10,11
 858 1239 858 1239 940 1284 c 0,12,13
 1024 1327 1024 1327 1120 1421 c 0,14,15
 1159 1460 1159 1460 1159 1489 c 0,16,17
 1159 1520 1159 1520 1128 1536 c 0,18,19
 1098 1554 1098 1554 1049 1554 c 1,20,21
 1102 1620 1102 1620 1155 1653 c 128,-1,22
 1208 1686 1208 1686 1284 1686 c 0,23,24
 1311 1683 1311 1683 1333 1663 c 0,25,26
 1356 1642 1356 1642 1356 1606 c 0,27,28
 1356 1567 1356 1567 1327 1522 c 1,29,30
 1286 1395 1286 1395 1188 1327 c 0,31,32
 1087 1260 1087 1260 844 1126 c 0,33,34
 598 993 598 993 475 862 c 0,35,36
 354 731 354 731 332 516 c 1,37,38
 332 395 332 395 393 291 c 0,39,40
 455 184 455 184 518 152 c 1,41,42
 610 86 610 86 712.5 49 c 128,-1,43
 815 12 815 12 909 12 c 0,44,45
 1024 12 1024 12 1096 70 c 0,46,47
 1165 125 1165 125 1165 238 c 0,48,49
 1165 328 1165 328 1137 414 c 0,50,51
 1106 500 1106 500 1057 569 c 0,52,53
 1006 637 1006 637 946 678 c 0,54,55
 885 717 885 717 827 717 c 1,56,57
 778 713 778 713 778 672 c 0,58,59
 778 641 778 641 799 600 c 0,60,61
 811 580 811 580 817 571 c 0,62,63
 825 563 825 563 868 528 c 1,64,65
 819 502 819 502 772 502 c 0,66,67
 741 502 741 502 702 516 c 1,68,69
 664 535 664 535 647 559 c 0,70,71
 631 586 631 586 610 639 c 1,72,73
 610 686 610 686 641 725 c 0,74,75
 674 764 674 764 723 799 c 0,76,77
 795 852 795 852 897 852 c 0,78,79
 991 852 991 852 1083 811 c 0,80,81
 1176 768 1176 768 1221 721 c 0,82,83
 1384 549 1384 549 1384 360 c 0,84,85
 1384 307 1384 307 1372 254 c 0,86,87
 1337 102 1337 102 1255 37 c 0,88,89
 1171 -31 1171 -31 1040 -66 c 0,90,91
 948 -90 948 -90 829 -90 c 0,92,93
 768 -90 768 -90 565 -74 c 1,94,95
 426 -47 426 -47 330 8 c 0,96,97
 231 61 231 61 170 131 c 128,-1,98
 109 201 109 201 80 270 c 0,99,100
 49 340 49 340 43 406 c 0,101,102
 41 426 41 426 41 465 c 0,0,1
EndSplineSet
Validated: 1
EndChar

StartChar: uniE028
Encoding: 57384 57384 28
Width: 1331
GlyphClass: 2
Flags: W
LayerCount: 2
Fore
SplineSet
29 90 m 0,0,1
 31 119 31 119 53 152 c 0,2,3
 76 184 76 184 109 209 c 0,4,5
 141 231 141 231 168 231 c 0,6,7
 184 231 184 231 201 225 c 1,8,9
 227 178 227 178 295 168 c 1,10,11
 338 168 338 168 373 221 c 0,12,13
 406 274 406 274 418 311 c 2,14,-1
 588 797 l 1,15,16
 569 874 569 874 500 1042 c 0,17,18
 430 1212 430 1212 291 1389 c 1,19,20
 225 1427 225 1427 197 1427 c 0,21,22
 172 1427 172 1427 160 1417 c 0,23,24
 145 1407 145 1407 74 1352 c 1,25,-1
 209 1542 l 2,26,27
 233 1579 233 1579 285 1579 c 0,28,29
 338 1579 338 1579 401 1544 c 0,30,31
 467 1509 467 1509 516 1460 c 128,-1,32
 565 1411 565 1411 569 1376 c 1,33,34
 604 1303 604 1303 717 1059 c 0,35,36
 827 815 827 815 897 672 c 0,37,38
 965 526 965 526 1049 381 c 1,39,40
 1130 233 1130 233 1217 115 c 0,41,42
 1247 76 1247 76 1257 63 c 0,43,44
 1268 53 1268 53 1282 45 c 0,45,46
 1296 39 1296 39 1315 37 c 0,47,48
 1331 35 1331 35 1372 29 c 1,49,-1
 1169 -33 l 1,50,51
 1069 -33 1069 -33 958 115 c 0,52,53
 848 262 848 262 766 438 c 0,54,55
 682 612 682 612 645 719 c 1,56,57
 637 719 637 719 606 641 c 0,58,59
 575 565 575 565 496 358 c 0,60,61
 418 150 418 150 414 147 c 0,62,63
 381 72 381 72 319 16 c 0,64,65
 256 -39 256 -39 193 -39 c 0,66,67
 164 -39 164 -39 135 -27 c 0,68,69
 84 -2 84 -2 55 25 c 0,70,71
 29 49 29 49 29 90 c 0,0,1
EndSplineSet
Validated: 1
EndChar

StartChar: uniEC12
Encoding: 60434 60434 29
Width: 2
GlyphClass: 2
Flags: W
LayerCount: 2
Fore
SplineSet
-1675 -381 m 1,0,1
 -1591 -279 -1591 -279 -1511 -213 c 0,2,3
 -1432 -152 -1432 -152 -1348 -119 c 0,4,5
 -1264 -88 -1264 -88 -1167 -88 c 0,6,7
 -1051 -88 -1051 -88 -905 -135 c 0,8,9
 -776 -176 -776 -176 -731 -190.5 c 128,-1,10
 -686 -205 -686 -205 -625 -215 c 1,11,12
 -565 -229 -565 -229 -522 -229 c 0,13,14
 -451 -229 -451 -229 -377 -201 c 0,15,16
 -303 -172 -303 -172 -211 -109 c 1,17,18
 -227 -141 -227 -141 -254 -195 c 0,19,20
 -283 -250 -283 -250 -326 -299 c 128,-1,21
 -369 -348 -369 -348 -436 -383 c 0,22,23
 -506 -416 -506 -416 -602 -416 c 0,24,25
 -737 -416 -737 -416 -905 -348 c 0,26,27
 -1094 -272 -1094 -272 -1239 -272 c 0,28,29
 -1331 -272 -1331 -272 -1415 -297 c 0,30,31
 -1501 -319 -1501 -319 -1675 -381 c 1,0,1
EndSplineSet
Validated: 1
EndChar

StartChar: uniEC11
Encoding: 60433 60433 30
Width: 2
GlyphClass: 2
Flags: W
LayerCount: 2
Fore
SplineSet
-1047 -406 m 1,0,1
 -1036 -377 -1036 -377 -1004 -315 c 0,2,3
 -971 -256 -971 -256 -897 -197 c 0,4,5
 -825 -137 -825 -137 -727 -137 c 0,6,7
 -651 -137 -651 -137 -557 -184 c 0,8,9
 -467 -231 -467 -231 -401 -231 c 0,10,11
 -307 -231 -307 -231 -172 -131 c 1,12,13
 -221 -260 -221 -260 -289 -326 c 0,14,15
 -356 -393 -356 -393 -449 -393 c 0,16,17
 -504 -393 -504 -393 -578 -365 c 0,18,19
 -659 -330 -659 -330 -688 -317 c 0,20,21
 -717 -307 -717 -307 -762 -307 c 0,22,23
 -860 -307 -860 -307 -1047 -406 c 1,0,1
EndSplineSet
Validated: 1
EndChar

StartChar: uni603C
Encoding: 24636 24636 31
Width: 1331
GlyphClass: 2
Flags: W
LayerCount: 2
Fore
SplineSet
40 113 m 1,0,-1
 215 113 l 1,1,2
 164 133 164 133 126 172 c 128,-1,3
 88 211 88 211 69.5 258 c 128,-1,4
 51 305 51 305 51 356 c 0,5,6
 57 477 57 477 109 569 c 0,7,8
 162 662 162 662 260 739 c 0,9,10
 307 776 307 776 377 809 c 0,11,12
 444 842 444 842 514 858 c 0,13,14
 582 874 582 874 647 874 c 0,15,16
 897 866 897 866 1044 770 c 1,17,18
 1044 891 1044 891 1040 961 c 0,19,20
 1038 1030 1038 1030 1026 1108 c 0,21,22
 1016 1186 1016 1186 991 1257 c 0,23,24
 967 1331 967 1331 930 1393 c 1,25,26
 999 1417 999 1417 1073 1473 c 0,27,28
 1149 1528 1149 1528 1204 1595 c 0,29,30
 1227 1618 1227 1618 1239 1618 c 0,31,32
 1270 1618 1270 1618 1270 1509 c 0,33,34
 1270 1440 1270 1440 1257 1333 c 1,35,36
 1249 1081 1249 1081 1249 451 c 0,37,38
 1251 369 1251 369 1251 330 c 0,39,40
 1251 289 1251 289 1255 236 c 0,41,42
 1257 180 1257 180 1264 131 c 1,43,44
 1237 55 1237 55 1159 -4 c 0,45,46
 1083 -63 1083 -63 965 -92 c 1,47,-1
 270 -92 l 2,48,49
 211 -92 211 -92 170 -80 c 0,50,51
 131 -70 131 -70 96 -27 c 0,52,53
 40 39 40 39 40 113 c 1,0,-1
283 526 m 0,54,55
 283 465 283 465 310.5 407.5 c 128,-1,56
 338 350 338 350 381 305 c 128,-1,57
 424 260 424 260 471 233 c 0,58,59
 537 197 537 197 610 178 c 0,60,61
 682 160 682 160 748 160 c 1,62,63
 891 170 891 170 963 270 c 0,64,65
 993 317 993 317 993 375 c 0,66,67
 993 432 993 432 963 485 c 0,68,69
 930 539 930 539 887 580 c 0,70,71
 842 621 842 621 795 647 c 0,72,73
 752 672 752 672 705 688 c 0,74,75
 657 707 657 707 610 715 c 128,-1,76
 563 723 563 723 522 723 c 0,77,78
 444 721 444 721 379 686 c 0,79,80
 311 651 311 651 289 580 c 0,81,82
 283 553 283 553 283 526 c 0,54,55
EndSplineSet
Validated: 1
EndChar

StartChar: uni2E31
Encoding: 11825 11825 32
Width: 573
GlyphClass: 2
Flags: W
LayerCount: 2
Fore
SplineSet
172 479 m 256,0,1
 172 520 172 520 205 553 c 128,-1,2
 238 586 238 586 279 586 c 0,3,4
 322 586 322 586 354 555 c 0,5,6
 385 522 385 522 385 479 c 256,7,8
 385 436 385 436 354 406 c 0,9,10
 322 373 322 373 279 373 c 0,11,12
 238 373 238 373 205 405.5 c 128,-1,13
 172 438 172 438 172 479 c 256,0,1
EndSplineSet
Validated: 1
EndChar

StartChar: uni603E
Encoding: 24638 24638 33
Width: 2
GlyphClass: 2
Flags: W
LayerCount: 2
Fore
SplineSet
-483 -532 m 0,0,1
 -483 -500 -483 -500 -457 -471 c 0,2,3
 -430 -442 -430 -442 -393 -442 c 0,4,5
 -358 -442 -358 -442 -330 -469 c 0,6,7
 -303 -498 -303 -498 -303 -532 c 0,8,9
 -303 -567 -303 -567 -330.5 -596 c 128,-1,10
 -358 -625 -358 -625 -393 -625 c 256,11,12
 -428 -625 -428 -625 -455 -596 c 0,13,14
 -483 -569 -483 -569 -483 -532 c 0,0,1
-369 -743 m 0,15,16
 -369 -711 -369 -711 -342 -682 c 128,-1,17
 -315 -653 -315 -653 -279 -653 c 0,18,19
 -244 -653 -244 -653 -215 -680 c 0,20,21
 -188 -709 -188 -709 -188 -743 c 0,22,23
 -188 -778 -188 -778 -215 -807 c 0,24,25
 -244 -836 -244 -836 -279 -836 c 0,26,27
 -313 -836 -313 -836 -340 -807 c 0,28,29
 -369 -780 -369 -780 -369 -743 c 0,15,16
-244 -537 m 0,30,31
 -244 -504 -244 -504 -217 -475 c 128,-1,32
 -190 -446 -190 -446 -154 -446 c 0,33,34
 -119 -446 -119 -446 -90 -473 c 0,35,36
 -63 -502 -63 -502 -63 -537 c 0,37,38
 -63 -571 -63 -571 -90 -600 c 0,39,40
 -119 -629 -119 -629 -154 -629 c 0,41,42
 -188 -629 -188 -629 -215 -600 c 0,43,44
 -244 -573 -244 -573 -244 -537 c 0,30,31
EndSplineSet
Validated: 1
EndChar

StartChar: uni603F
Encoding: 24639 24639 34
Width: 2
GlyphClass: 2
Flags: W
LayerCount: 2
Fore
SplineSet
-1675 -872 m 1,0,1
 -1550 -721 -1550 -721 -1430 -649 c 0,2,3
 -1311 -580 -1311 -580 -1167 -580 c 0,4,5
 -1051 -580 -1051 -580 -905 -627 c 0,6,7
 -776 -670 -776 -670 -731 -682 c 0,8,9
 -686 -696 -686 -696 -625 -709 c 0,10,11
 -565 -721 -565 -721 -522 -721 c 0,12,13
 -451 -721 -451 -721 -377 -692 c 0,14,15
 -301 -664 -301 -664 -211 -600 c 1,16,17
 -223 -627 -223 -627 -254 -682 c 0,18,19
 -283 -741 -283 -741 -326 -791.5 c 128,-1,20
 -369 -842 -369 -842 -436 -874 c 0,21,22
 -506 -907 -506 -907 -602 -907 c 0,23,24
 -739 -907 -739 -907 -905 -840 c 0,25,26
 -1092 -764 -1092 -764 -1239 -764 c 0,27,28
 -1329 -764 -1329 -764 -1415 -786 c 0,29,30
 -1501 -811 -1501 -811 -1675 -872 c 1,0,1
EndSplineSet
Validated: 1
EndChar

StartChar: uniE01C
Encoding: 57372 57372 35
Width: 1946
GlyphClass: 2
Flags: W
LayerCount: 2
Fore
SplineSet
47 1393 m 1,0,1
 117 1417 117 1417 190 1473 c 0,2,3
 264 1526 264 1526 322 1595 c 0,4,5
 340 1616 340 1616 352 1616 c 0,6,7
 385 1616 385 1616 385 1499 c 0,8,9
 385 1427 385 1427 373 1313 c 1,10,11
 371 1241 371 1241 369 1176 c 0,12,13
 367 1108 367 1108 365 1036 c 0,14,15
 362 967 362 967 362 897 c 0,16,17
 360 825 360 825 360 737 c 1,18,19
 418 805 418 805 506 836 c 0,20,21
 592 866 592 866 672 866 c 0,22,23
 909 858 909 858 1057 760 c 1,24,25
 1217 866 1217 866 1356 866 c 1,26,27
 1477 862 1477 862 1601.5 821 c 128,-1,28
 1726 780 1726 780 1810 700 c 0,29,30
 1894 623 1894 623 1894 512 c 1,31,32
 1886 403 1886 403 1864 340 c 0,33,34
 1839 270 1839 270 1796 215 c 0,35,36
 1751 160 1751 160 1692 111 c 0,37,38
 1640 72 1640 72 1583 43 c 0,39,40
 1528 12 1528 12 1473 -2 c 0,41,42
 1415 -20 1415 -20 1370 -20 c 1,43,44
 1296 -12 1296 -12 1249 45 c 0,45,46
 1202 100 1202 100 1202 154 c 0,47,48
 1202 213 1202 213 1237 256 c 0,49,50
 1270 297 1270 297 1327 297 c 0,51,52
 1350 297 1350 297 1382 287 c 1,53,54
 1382 238 1382 238 1423 199 c 0,55,56
 1466 160 1466 160 1524 160 c 0,57,58
 1640 160 1640 160 1665 270 c 0,59,60
 1673 311 1673 311 1673 332 c 0,61,62
 1673 381 1673 381 1658.5 433.5 c 128,-1,63
 1644 486 1644 486 1620 520 c 0,64,65
 1565 600 1565 600 1495 639 c 0,66,67
 1337 727 1337 727 1225 727 c 0,68,69
 1161 727 1161 727 1124 698 c 1,70,71
 1212 598 1212 598 1212 512 c 1,72,73
 1204 403 1204 403 1182 340 c 0,74,75
 1157 270 1157 270 1114 215 c 0,76,77
 1069 160 1069 160 1010 111 c 0,78,79
 958 72 958 72 901 43 c 0,80,81
 846 12 846 12 791 -2 c 0,82,83
 733 -20 733 -20 688 -20 c 1,84,85
 612 -12 612 -12 567 43 c 0,86,87
 520 100 520 100 520 154 c 0,88,89
 520 213 520 213 555 256 c 0,90,91
 588 297 588 297 645 297 c 0,92,93
 668 297 668 297 700 287 c 1,94,95
 700 238 700 238 741 199 c 0,96,97
 784 160 784 160 842 160 c 0,98,99
 901 160 901 160 938 182 c 0,100,101
 973 203 973 203 983 270 c 0,102,103
 991 311 991 311 991 330 c 0,104,105
 991 404 991 404 965 467 c 0,106,107
 938 522 938 522 897 569 c 0,108,109
 854 614 854 614 813 639 c 0,110,111
 641 745 641 745 547 745 c 1,112,113
 492 737 492 737 459 711 c 0,114,115
 424 682 424 682 406 641 c 0,116,117
 387 598 387 598 385 571 c 1,118,119
 379 545 379 545 365 451 c 0,120,121
 348 334 348 334 348 143 c 0,122,123
 348 53 348 53 352 -80 c 256,124,125
 356 -213 356 -213 358 -295 c 0,126,127
 362 -377 362 -377 369 -526 c 0,128,129
 377 -676 377 -676 379 -778 c 1,130,131
 350 -854 350 -854 274 -913 c 0,132,133
 199 -975 199 -975 80 -1001 c 1,134,135
 61 -1001 61 -1001 55 -999 c 128,-1,136
 49 -997 49 -997 49 -989 c 0,137,138
 49 -979 49 -979 59 -954 c 0,139,140
 106 -795 106 -795 133 -602 c 0,141,142
 162 -412 162 -412 170 -252 c 0,143,144
 180 -92 180 -92 180 0 c 2,145,-1
 180 532 l 1,146,-1
 180 584 l 2,147,148
 180 707 180 707 172 844 c 128,-1,149
 164 981 164 981 135 1133 c 0,150,151
 104 1282 104 1282 47 1393 c 1,0,1
EndSplineSet
Validated: 1
EndChar

StartChar: uniE01A
Encoding: 57370 57370 36
Width: 1331
GlyphClass: 2
Flags: W
LayerCount: 2
Fore
SplineSet
51 356 m 0,0,1
 58 500 58 500 109 590 c 0,2,3
 162 682 162 682 260 760 c 0,4,5
 340 819 340 819 430 856 c 0,6,7
 522 893 522 893 598 893 c 1,8,9
 653 889 653 889 692 860 c 128,-1,10
 731 831 731 831 754 795 c 0,11,12
 776 756 776 756 778 721 c 0,13,14
 778 662 778 662 741 621 c 0,15,16
 707 578 707 578 645 578 c 0,17,18
 614 578 614 578 588 586 c 1,19,20
 588 637 588 637 545 676 c 0,21,22
 500 713 500 713 440 713 c 0,23,24
 395 713 395 713 356 682 c 0,25,26
 315 649 315 649 289 600 c 1,27,28
 283 571 283 571 283 547 c 0,29,30
 283 467 283 467 311 408 c 0,31,32
 338 350 338 350 381 305 c 128,-1,33
 424 260 424 260 471 233 c 0,34,35
 537 197 537 197 610 178 c 0,36,37
 682 160 682 160 748 160 c 1,38,39
 905 174 905 174 974.5 280.5 c 128,-1,40
 1044 387 1044 387 1044 561 c 1,41,42
 1049 694 1049 694 1049 791 c 0,43,44
 1049 922 1049 922 1039.5 1022 c 128,-1,45
 1030 1122 1030 1122 1004 1217 c 0,46,47
 979 1311 979 1311 930 1393 c 1,48,49
 999 1417 999 1417 1073 1473 c 0,50,51
 1149 1528 1149 1528 1204 1595 c 0,52,53
 1227 1618 1227 1618 1239 1618 c 0,54,55
 1270 1618 1270 1618 1270 1509 c 0,56,57
 1270 1440 1270 1440 1257 1333 c 1,58,59
 1253 1145 1253 1145 1253 760 c 1,60,61
 1235 643 1235 643 1235 272 c 0,62,63
 1235 109 1235 109 1237 -78 c 0,64,65
 1241 -262 1241 -262 1247 -463 c 0,66,67
 1255 -666 1255 -666 1260 -778 c 1,68,69
 1231 -854 1231 -854 1153 -913 c 0,70,71
 1077 -975 1077 -975 961 -1001 c 1,72,73
 928 -1001 928 -1001 928 -989 c 256,74,75
 928 -977 928 -977 940 -954 c 1,76,77
 985 -801 985 -801 1014 -604 c 0,78,79
 1040 -410 1040 -410 1051 -252 c 0,80,81
 1061 -92 1061 -92 1061 0 c 0,82,83
 1061 121 1061 121 1057 213 c 1,84,85
 993 147 993 147 926 100 c 1,86,87
 854 55 854 55 780 33 c 0,88,89
 705 8 705 8 623 6 c 0,90,91
 524 6 524 6 424 29 c 0,92,93
 322 51 322 51 236 98 c 128,-1,94
 150 145 150 145 100 211 c 0,95,96
 51 274 51 274 51 356 c 0,0,1
EndSplineSet
Validated: 1
EndChar

StartChar: uniEC60
Encoding: 60512 60512 37
Width: 2
GlyphClass: 2
Flags: W
LayerCount: 2
Fore
SplineSet
-381 1430 m 0,0,1
 -381 1470 -381 1470 -350 1503 c 128,-1,2
 -319 1536 -319 1536 -276 1536 c 256,3,4
 -233 1536 -233 1536 -201.5 1504.5 c 128,-1,5
 -170 1473 -170 1473 -170 1430 c 0,6,7
 -170 1386 -170 1386 -201 1356 c 0,8,9
 -233 1323 -233 1323 -276 1323 c 0,10,11
 -317 1323 -317 1323 -348 1356 c 0,12,13
 -381 1386 -381 1386 -381 1430 c 0,0,1
EndSplineSet
Validated: 1
EndChar

StartChar: uniEC40
Encoding: 60480 60480 38
Width: 2
GlyphClass: 2
Flags: W
LayerCount: 2
Fore
SplineSet
-483 1417 m 0,0,1
 -483 1450 -483 1450 -457 1479 c 0,2,3
 -430 1507 -430 1507 -393 1507 c 0,4,5
 -358 1507 -358 1507 -330 1481 c 0,6,7
 -303 1452 -303 1452 -303 1417 c 256,8,9
 -303 1382 -303 1382 -330.5 1353.5 c 128,-1,10
 -358 1325 -358 1325 -393 1325 c 256,11,12
 -428 1325 -428 1325 -455 1354 c 0,13,14
 -483 1380 -483 1380 -483 1417 c 0,0,1
-369 1657 m 0,15,16
 -369 1690 -369 1690 -342 1718 c 0,17,18
 -315 1747 -315 1747 -279 1747 c 0,19,20
 -244 1747 -244 1747 -215 1720 c 0,21,22
 -188 1692 -188 1692 -188 1657 c 256,23,24
 -188 1622 -188 1622 -215 1593 c 0,25,26
 -244 1565 -244 1565 -279 1565 c 0,27,28
 -313 1565 -313 1565 -340 1593 c 0,29,30
 -369 1620 -369 1620 -369 1657 c 0,15,16
-244 1413 m 0,31,32
 -244 1446 -244 1446 -217 1474.5 c 128,-1,33
 -190 1503 -190 1503 -154 1503 c 0,34,35
 -119 1503 -119 1503 -90 1477 c 0,36,37
 -63 1448 -63 1448 -63 1413 c 256,38,39
 -63 1378 -63 1378 -90 1350 c 0,40,41
 -119 1321 -119 1321 -154 1321 c 0,42,43
 -188 1321 -188 1321 -215 1350 c 0,44,45
 -244 1376 -244 1376 -244 1413 c 0,31,32
EndSplineSet
Validated: 1
EndChar

StartChar: uniEC41
Encoding: 60481 60481 39
Width: 2
GlyphClass: 2
Flags: W
LayerCount: 2
Fore
SplineSet
-723 1432 m 0,0,1
 -723 1473 -723 1473 -692 1505 c 0,2,3
 -662 1538 -662 1538 -618 1538 c 0,4,5
 -575 1538 -575 1538 -543.5 1506.5 c 128,-1,6
 -512 1475 -512 1475 -512 1432 c 256,7,8
 -512 1389 -512 1389 -543 1358 c 0,9,10
 -575 1325 -575 1325 -618 1325 c 0,11,12
 -659 1325 -659 1325 -690 1358 c 0,13,14
 -723 1389 -723 1389 -723 1432 c 0,0,1
-563 1681 m 0,15,16
 -563 1722 -563 1722 -532.5 1755 c 128,-1,17
 -502 1788 -502 1788 -459 1788 c 256,18,19
 -416 1788 -416 1788 -383 1757 c 0,20,21
 -352 1724 -352 1724 -352 1681 c 256,22,23
 -352 1638 -352 1638 -383 1608 c 0,24,25
 -416 1575 -416 1575 -459 1575 c 0,26,27
 -500 1575 -500 1575 -530 1608 c 1,28,29
 -563 1638 -563 1638 -563 1681 c 0,15,16
-414 1432 m 256,30,31
 -414 1473 -414 1473 -381 1505 c 0,32,33
 -348 1538 -348 1538 -307 1538 c 0,34,35
 -264 1538 -264 1538 -231 1507 c 0,36,37
 -201 1475 -201 1475 -201 1432 c 256,38,39
 -201 1389 -201 1389 -231 1358 c 0,40,41
 -264 1325 -264 1325 -307 1325 c 0,42,43
 -348 1325 -348 1325 -381 1358 c 128,-1,44
 -414 1391 -414 1391 -414 1432 c 256,30,31
EndSplineSet
Validated: 1
EndChar

StartChar: uniEC42
Encoding: 60482 60482 40
Width: 2
GlyphClass: 2
Flags: W
LayerCount: 2
Fore
SplineSet
-883 1432 m 0,0,1
 -883 1473 -883 1473 -852 1505 c 0,2,3
 -821 1538 -821 1538 -778 1538 c 256,4,5
 -735 1538 -735 1538 -702 1507 c 0,6,7
 -672 1475 -672 1475 -672 1432 c 256,8,9
 -672 1389 -672 1389 -702 1358 c 0,10,11
 -735 1325 -735 1325 -778 1325 c 0,12,13
 -819 1325 -819 1325 -850 1358 c 0,14,15
 -883 1389 -883 1389 -883 1432 c 0,0,1
-723 1681 m 0,16,17
 -723 1722 -723 1722 -692.5 1755 c 128,-1,18
 -662 1788 -662 1788 -618 1788 c 0,19,20
 -575 1788 -575 1788 -543 1757 c 0,21,22
 -512 1724 -512 1724 -512 1681 c 256,23,24
 -512 1638 -512 1638 -543 1608 c 0,25,26
 -575 1575 -575 1575 -618 1575 c 0,27,28
 -659 1575 -659 1575 -690 1608 c 0,29,30
 -723 1638 -723 1638 -723 1681 c 0,16,17
-573 1432 m 256,31,32
 -573 1473 -573 1473 -541 1505 c 0,33,34
 -508 1538 -508 1538 -467 1538 c 0,35,36
 -424 1538 -424 1538 -391 1507 c 0,37,38
 -360 1475 -360 1475 -360 1432 c 256,39,40
 -360 1389 -360 1389 -391 1358 c 0,41,42
 -424 1325 -424 1325 -467 1325 c 0,43,44
 -508 1325 -508 1325 -541 1358 c 0,45,46
 -573 1391 -573 1391 -573 1432 c 256,31,32
EndSplineSet
Validated: 1
EndChar

StartChar: uniEC51
Encoding: 60497 60497 41
Width: 2
GlyphClass: 2
Flags: W
LayerCount: 2
Fore
SplineSet
-680 1323 m 1,0,-1
 -385 1620 l 2,1,2
 -354 1651 -354 1651 -322 1671 c 0,3,4
 -289 1690 -289 1690 -256 1690 c 0,5,6
 -240 1690 -240 1690 -219 1667 c 0,7,8
 -201 1642 -201 1642 -201 1622 c 0,9,10
 -201 1591 -201 1591 -225 1565 c 0,11,12
 -242 1546 -242 1546 -287 1518 c 2,13,-1
 -594 1323 l 1,14,-1
 -680 1323 l 1,0,-1
EndSplineSet
Validated: 1
EndChar

StartChar: uniEC61
Encoding: 60513 60513 42
Width: 2
GlyphClass: 2
Flags: W
LayerCount: 2
Fore
SplineSet
-563 1436 m 0,0,1
 -563 1477 -563 1477 -532 1509 c 0,2,3
 -502 1542 -502 1542 -459 1542 c 256,4,5
 -416 1542 -416 1542 -383 1511 c 0,6,7
 -352 1479 -352 1479 -352 1436 c 256,8,9
 -352 1393 -352 1393 -383 1362 c 0,10,11
 -416 1329 -416 1329 -459 1329 c 0,12,13
 -500 1329 -500 1329 -530 1362 c 0,14,15
 -563 1393 -563 1393 -563 1436 c 0,0,1
EndSplineSet
Validated: 1
EndChar

StartChar: uniEC71
Encoding: 60529 60529 43
Width: 2
GlyphClass: 2
Flags: W
LayerCount: 2
Fore
SplineSet
-711 1325 m 1,0,1
 -657 1489 -657 1489 -610 1571 c 0,2,3
 -563 1651 -563 1651 -473 1724 c 1,4,5
 -420 1755 -420 1755 -367 1755 c 0,6,7
 -301 1755 -301 1755 -242 1702 c 0,8,9
 -219 1683 -219 1683 -211 1655 c 0,10,11
 -203 1622 -203 1622 -203 1569 c 1,12,13
 -209 1542 -209 1542 -233 1503 c 0,14,15
 -260 1464 -260 1464 -262 1462 c 2,16,-1
 -291 1481 l 1,17,18
 -289 1495 -289 1495 -289 1522 c 0,19,20
 -289 1567 -289 1567 -309 1593 c 0,21,22
 -330 1616 -330 1616 -367 1616 c 0,23,24
 -399 1616 -399 1616 -430 1595 c 0,25,26
 -475 1567 -475 1567 -543 1489 c 0,27,28
 -608 1411 -608 1411 -659 1311 c 1,29,-1
 -711 1325 l 1,0,1
EndSplineSet
Validated: 1
EndChar

StartChar: uniE03F
Encoding: 57407 57407 44
Width: 1434
GlyphClass: 2
Flags: W
LayerCount: 2
Fore
SplineSet
37 -731 m 0,0,1
 37 -719 37 -719 43 -702 c 0,2,3
 61 -655 61 -655 119 -618 c 0,4,5
 172 -584 172 -584 227 -584 c 0,6,7
 276 -584 276 -584 311 -610 c 1,8,9
 342 -649 342 -649 373 -672 c 0,10,11
 403 -692 403 -692 446 -702 c 0,12,13
 469 -709 469 -709 496 -709 c 0,14,15
 514 -709 514 -709 524 -709 c 0,16,17
 537 -711 537 -711 549 -711 c 0,18,19
 604 -711 604 -711 659 -676 c 0,20,21
 809 -578 809 -578 903 -453 c 0,22,23
 997 -330 997 -330 1044 -199 c 0,24,25
 1094 -70 1094 -70 1110 47 c 128,-1,26
 1126 164 1126 164 1126 270 c 0,27,28
 1126 356 1126 356 1092 434 c 0,29,30
 1059 514 1059 514 995 575 c 0,31,32
 934 637 934 637 846 680 c 128,-1,33
 758 723 758 723 647 741 c 0,34,35
 575 756 575 756 510 756 c 0,36,37
 455 756 455 756 416 742.5 c 128,-1,38
 377 729 377 729 342 700 c 0,39,40
 309 672 309 672 274 623 c 1,41,42
 346 596 346 596 377 563 c 0,43,44
 406 530 406 530 406 442 c 1,45,46
 401 387 401 387 356 350 c 0,47,48
 309 315 309 315 258 315 c 0,49,50
 231 315 231 315 213 324 c 0,51,52
 70 383 70 383 70 518 c 0,53,54
 70 582 70 582 106 647 c 0,55,56
 141 713 141 713 201 758 c 0,57,58
 299 831 299 831 424 877 c 0,59,60
 545 922 545 922 645 922 c 2,61,-1
 694 922 l 2,62,63
 856 922 856 922 985 887 c 0,64,65
 1114 850 1114 850 1198 786 c 0,66,67
 1284 725 1284 725 1329 645 c 0,68,69
 1372 565 1372 565 1376 479 c 0,70,71
 1376 461 1376 461 1378 446 c 0,72,73
 1378 432 1378 432 1378 408 c 0,74,75
 1378 147 1378 147 1310.5 -53.5 c 128,-1,76
 1243 -254 1243 -254 1134.5 -393 c 128,-1,77
 1026 -532 1026 -532 907 -621 c 0,78,79
 786 -711 786 -711 659 -770 c 0,80,81
 573 -813 573 -813 516 -840.5 c 128,-1,82
 459 -868 459 -868 410 -883 c 0,83,84
 358 -897 358 -897 293 -897 c 0,85,86
 236 -897 236 -897 178 -868 c 0,87,88
 113 -834 113 -834 76 -803 c 0,89,90
 37 -770 37 -770 37 -731 c 0,0,1
EndSplineSet
Validated: 1
EndChar

StartChar: uniEC81
Encoding: 60545 60545 45
Width: 2
GlyphClass: 2
Flags: W
LayerCount: 2
Fore
SplineSet
-578 1356 m 1,0,1
 -477 1413 -477 1413 -426 1460 c 0,2,3
 -377 1507 -377 1507 -336 1571 c 1,4,5
 -322 1602 -322 1602 -322 1630 c 0,6,7
 -322 1671 -322 1671 -344 1692 c 0,8,9
 -362 1710 -362 1710 -395 1710 c 0,10,11
 -424 1710 -424 1710 -461 1698 c 1,12,-1
 -481 1722 l 1,13,14
 -457 1751 -457 1751 -436 1767 c 0,15,16
 -418 1782 -418 1782 -385 1788 c 1,17,18
 -291 1788 -291 1788 -242 1743 c 0,19,20
 -201 1706 -201 1706 -201 1640 c 0,21,22
 -201 1589 -201 1589 -231 1536 c 1,23,24
 -274 1477 -274 1477 -356 1419 c 0,25,26
 -436 1364 -436 1364 -553 1319 c 1,27,-1
 -578 1356 l 1,0,1
EndSplineSet
Validated: 1
EndChar

StartChar: uni604B
Encoding: 24651 24651 46
Width: 1434
GlyphClass: 2
Flags: W
LayerCount: 2
Fore
SplineSet
45 1133 m 1,0,1
 51 1245 51 1245 86 1350 c 0,2,3
 117 1452 117 1452 164 1534 c 0,4,5
 211 1614 211 1614 254 1665 c 0,6,7
 322 1747 322 1747 440 1815 c 0,8,9
 559 1882 559 1882 700 1935 c 0,10,11
 877 2000 877 2000 958 2017 c 0,12,13
 1050 2038 1050 2038 1139 2038 c 0,14,15
 1239 2038 1239 2038 1311 2011 c 1,16,17
 1341 1991 1341 1991 1341 1974 c 1,18,19
 1327 1944 1327 1944 1257.5 1913 c 128,-1,20
 1188 1882 1188 1882 1116 1882 c 1,21,22
 1091 1921 1091 1921 991 1921 c 0,23,24
 910 1921 910 1921 840 1903 c 0,25,26
 723 1874 723 1874 598 1800 c 0,27,28
 475 1724 475 1724 385 1569 c 0,29,30
 293 1413 293 1413 293 1169 c 1,31,32
 315 1026 315 1026 406 942 c 0,33,34
 496 856 496 856 612 823 c 0,35,36
 729 788 729 788 846 788 c 0,37,38
 860 786 860 786 889 786 c 0,39,40
 983 786 983 786 1042.5 820 c 128,-1,41
 1102 854 1102 854 1118 899 c 0,42,43
 1121 906 1121 906 1127 918.5 c 128,-1,44
 1133 931 1133 931 1137 943.5 c 128,-1,45
 1141 956 1141 956 1141 969 c 0,46,47
 1141 1047 1141 1047 975 1069 c 1,48,49
 1060 1137 1060 1137 1163 1137 c 0,50,51
 1248 1137 1248 1137 1309 1093 c 128,-1,52
 1370 1049 1370 1049 1370 987 c 0,53,54
 1370 953 1370 953 1354 926 c 1,55,56
 1317 829 1317 829 1235 772 c 128,-1,57
 1153 715 1153 715 979 690 c 0,58,59
 956 686 956 686 834 674 c 0,60,61
 713 659 713 659 627 641 c 0,62,63
 543 621 543 621 467 578 c 0,64,65
 389 535 389 535 342 461 c 1,66,67
 319 414 319 414 319 358 c 0,68,69
 319 285 319 285 358 215 c 0,70,71
 397 147 397 147 455 117 c 1,72,73
 570 15 570 15 672 -14 c 0,74,75
 790 -51 790 -51 922 -51 c 0,76,77
 982 -51 982 -51 1044 -27 c 1,78,79
 1095 2 1095 2 1120 47 c 128,-1,80
 1145 92 1145 92 1145 162 c 0,81,82
 1145 227 1145 227 1122 297 c 0,83,84
 1098 373 1098 373 1067 403 c 0,85,86
 1034 434 1034 434 1006 442 c 0,87,88
 975 449 975 449 940 457 c 0,89,90
 924 463 924 463 924 469 c 256,91,92
 924 475 924 475 958 483 c 0,93,94
 993 489 993 489 1036 489 c 0,95,96
 1151 489 1151 489 1204 457 c 0,97,98
 1276 416 1276 416 1321 352 c 0,99,100
 1364 289 1364 289 1364 215 c 0,101,102
 1364 186 1364 186 1354 145 c 1,103,104
 1323 66 1323 66 1257 2 c 0,105,106
 1192 -61 1192 -61 1071 -109 c 0,107,108
 1004 -133 1004 -133 915 -145 c 0,109,110
 827 -158 827 -158 743 -158 c 0,111,112
 643 -158 643 -158 563 -145 c 1,113,114
 436 -137 436 -137 317 -76 c 0,115,116
 197 -12 197 -12 123 80 c 0,117,118
 49 170 49 170 49 260 c 0,119,120
 49 354 49 354 75.5 456.5 c 128,-1,121
 102 559 102 559 176 604 c 0,122,123
 258 655 258 655 295 670 c 0,124,125
 330 682 330 682 422 690 c 1,126,127
 279 721 279 721 195 795 c 0,128,129
 109 868 109 868 78 956 c 0,130,131
 45 1044 45 1044 45 1133 c 1,0,1
EndSplineSet
Validated: 1
EndChar

StartChar: uniECBF
Encoding: 60607 60607 47
Width: 2
GlyphClass: 2
Flags: W
LayerCount: 2
Fore
SplineSet
-817 76 m 0,0,1
 -817 117 -817 117 -786.5 149.5 c 128,-1,2
 -756 182 -756 182 -713 182 c 256,3,4
 -670 182 -670 182 -637 152 c 0,5,6
 -606 119 -606 119 -606 76 c 256,7,8
 -606 33 -606 33 -637 2 c 0,9,10
 -670 -31 -670 -31 -713 -31 c 0,11,12
 -754 -31 -754 -31 -784 2 c 0,13,14
 -817 33 -817 33 -817 76 c 0,0,1
EndSplineSet
Validated: 1
EndChar

StartChar: uniEC80
Encoding: 60544 60544 48
Width: 2
GlyphClass: 2
Flags: W
LayerCount: 2
Fore
SplineSet
-397 1356 m 1,0,1
 -299 1413 -299 1413 -264 1444 c 0,2,3
 -231 1475 -231 1475 -195 1532 c 0,4,5
 -180 1563 -180 1563 -180 1583 c 0,6,7
 -180 1614 -180 1614 -203 1632 c 0,8,9
 -229 1657 -229 1657 -270 1657 c 0,10,11
 -293 1657 -293 1657 -328 1647 c 1,12,-1
 -348 1671 l 1,13,14
 -324 1700 -324 1700 -305.5 1712 c 128,-1,15
 -287 1724 -287 1724 -254 1731 c 0,16,17
 -233 1735 -233 1735 -219 1735 c 0,18,19
 -213 1735 -213 1735 -209 1733 c 0,20,21
 -154 1733 -154 1733 -119 1702 c 0,22,23
 -76 1663 -76 1663 -76 1591 c 0,24,25
 -76 1538 -76 1538 -106 1485 c 1,26,27
 -147 1430 -147 1430 -197 1401 c 0,28,29
 -246 1372 -246 1372 -377 1323 c 1,30,-1
 -397 1356 l 1,0,1
EndSplineSet
Validated: 1
EndChar

StartChar: uniEC70
Encoding: 60528 60528 49
Width: 2
GlyphClass: 2
Flags: W
LayerCount: 2
Fore
SplineSet
-397 1325 m 1,0,1
 -358 1464 -358 1464 -324.5 1540 c 128,-1,2
 -291 1616 -291 1616 -233 1667 c 0,3,4
 -201 1696 -201 1696 -166 1708 c 0,5,6
 -129 1722 -129 1722 -78 1722 c 1,7,8
 -43 1716 -43 1716 -23 1688 c 0,9,10
 -2 1659 -2 1659 -2 1614 c 0,11,12
 -4 1573 -4 1573 -14 1544 c 0,13,14
 -25 1518 -25 1518 -49 1485 c 1,15,-1
 -78 1505 l 1,16,17
 -66 1542 -66 1542 -66 1552 c 0,18,19
 -66 1571 -66 1571 -78 1585 c 0,20,21
 -94 1606 -94 1606 -119 1606 c 0,22,23
 -141 1606 -141 1606 -176 1583 c 0,24,25
 -209 1565 -209 1565 -240 1509 c 0,26,27
 -272 1454 -272 1454 -344 1311 c 1,28,-1
 -397 1325 l 1,0,1
EndSplineSet
Validated: 1
EndChar

StartChar: uni604F
Encoding: 24655 24655 50
Width: 2
GlyphClass: 2
Flags: W
LayerCount: 2
Fore
SplineSet
-745 -532 m 0,0,1
 -745 -492 -745 -492 -715 -459 c 0,2,3
 -684 -426 -684 -426 -641 -426 c 256,4,5
 -598 -426 -598 -426 -565 -457 c 0,6,7
 -535 -489 -535 -489 -535 -532 c 256,8,9
 -535 -575 -535 -575 -565 -606 c 0,10,11
 -598 -639 -598 -639 -641 -639 c 0,12,13
 -682 -639 -682 -639 -713 -606 c 0,14,15
 -745 -575 -745 -575 -745 -532 c 0,0,1
EndSplineSet
Validated: 1
EndChar

StartChar: uniEC32
Encoding: 60466 60466 51
Width: 2
GlyphClass: 2
Flags: W
LayerCount: 2
Fore
SplineSet
-1679 1110 m 1,0,1
 -1616 1188 -1616 1188 -1559 1241 c 0,2,3
 -1499 1292 -1499 1292 -1438 1331 c 0,4,5
 -1374 1368 -1374 1368 -1309 1386 c 0,6,7
 -1243 1403 -1243 1403 -1171 1403 c 0,8,9
 -1057 1403 -1057 1403 -909 1356 c 0,10,11
 -780 1313 -780 1313 -735 1299.5 c 128,-1,12
 -690 1286 -690 1286 -629.5 1274 c 128,-1,13
 -569 1262 -569 1262 -526 1262 c 0,14,15
 -455 1262 -455 1262 -381 1290 c 0,16,17
 -305 1319 -305 1319 -215 1382 c 1,18,19
 -227 1356 -227 1356 -256 1300 c 0,20,21
 -287 1241 -287 1241 -330 1192 c 0,22,23
 -373 1141 -373 1141 -440 1108 c 0,24,25
 -510 1075 -510 1075 -606 1075 c 0,26,27
 -743 1075 -743 1075 -909 1143 c 0,28,29
 -1096 1219 -1096 1219 -1243 1219 c 0,30,31
 -1333 1219 -1333 1219 -1419 1196 c 0,32,33
 -1505 1171 -1505 1171 -1679 1110 c 1,0,1
EndSplineSet
Validated: 1
EndChar

StartChar: uniE019
Encoding: 57369 57369 52
Width: 1331
GlyphClass: 2
Flags: W
LayerCount: 2
Fore
SplineSet
47 1393 m 1,0,1
 117 1417 117 1417 190 1473 c 0,2,3
 264 1526 264 1526 322 1595 c 0,4,5
 342 1618 342 1618 356 1618 c 0,6,7
 385 1618 385 1618 385 1516 c 0,8,9
 385 1448 385 1448 373 1333 c 0,10,11
 373 1305 373 1305 373 1249 c 0,12,13
 371 1196 371 1196 371 1163 c 256,14,15
 371 1130 371 1130 371 1090 c 0,16,17
 371 1040 371 1040 371 997 c 0,18,19
 371 956 371 956 373 881 c 0,20,21
 373 803 373 803 373 760 c 1,22,23
 432 799 432 799 485 821 c 0,24,25
 539 846 539 846 592 856 c 0,26,27
 643 866 643 866 707 866 c 0,28,29
 836 862 836 862 969 821 c 0,30,31
 1100 780 1100 780 1188 701.5 c 128,-1,32
 1276 623 1276 623 1276 512 c 0,33,34
 1274 424 1274 424 1239 342 c 0,35,36
 1202 258 1202 258 1143 197 c 0,37,38
 1092 146 1092 146 995 115 c 1,39,-1
 1277 113 l 1,40,41
 1277 35 1277 35 1226 -29 c 0,42,43
 1205 -54 1205 -54 1182 -68 c 0,44,45
 1153 -84 1153 -84 1122 -86 c 1,46,47
 1094 -92 1094 -92 1055 -92 c 2,48,-1
 360 -92 l 1,49,50
 365 -444 365 -444 379 -778 c 1,51,52
 350 -854 350 -854 274 -913 c 0,53,54
 199 -975 199 -975 80 -1001 c 1,55,56
 61 -1001 61 -1001 55 -999 c 128,-1,57
 49 -997 49 -997 49 -989 c 0,58,59
 49 -979 49 -979 59 -954 c 0,60,61
 106 -795 106 -795 133 -602 c 0,62,63
 162 -412 162 -412 170 -252 c 0,64,65
 180 -92 180 -92 180 0 c 1,66,67
 184 78 184 78 184 225 c 0,68,69
 184 352 184 352 180 532 c 0,70,71
 178 584 178 584 176 694 c 0,72,73
 174 807 174 807 166 928 c 1,74,75
 154 1047 154 1047 125 1176 c 0,76,77
 94 1305 94 1305 47 1393 c 1,0,1
360 113 m 1,78,-1
 553 113 l 1,79,80
 735 117 735 117 836 133 c 0,81,82
 936 152 936 152 975 186 c 0,83,84
 1016 221 1016 221 1036 291 c 0,85,86
 1042 317 1042 317 1042 346 c 0,87,88
 1042 406 1042 406 1016 465 c 0,89,90
 987 522 987 522 946 567 c 0,91,92
 903 612 903 612 856 639 c 0,93,94
 793 676 793 676 719 696 c 0,95,96
 643 715 643 715 582 715 c 1,97,98
 496 702 496 702 451 664 c 0,99,100
 406 627 406 627 387 573 c 0,101,102
 371 518 371 518 360 440 c 1,103,-1
 360 113 l 1,78,-1
EndSplineSet
Validated: 1
EndChar

StartChar: uniEC52
Encoding: 60498 60498 53
Width: 2
GlyphClass: 2
Flags: W
LayerCount: 2
Fore
SplineSet
-838 1323 m 1,0,-1
 -543 1620 l 2,1,2
 -512 1651 -512 1651 -479 1670.5 c 128,-1,3
 -446 1690 -446 1690 -414 1690 c 0,4,5
 -397 1690 -397 1690 -377 1667 c 0,6,7
 -358 1642 -358 1642 -358 1622 c 0,8,9
 -358 1591 -358 1591 -383 1565 c 0,10,11
 -399 1546 -399 1546 -444 1518 c 2,12,-1
 -752 1323 l 1,13,-1
 -838 1323 l 1,0,-1
EndSplineSet
Validated: 1
EndChar

StartChar: uniE01E
Encoding: 57374 57374 54
Width: 1946
GlyphClass: 2
Flags: W
LayerCount: 2
Fore
SplineSet
49 356 m 1,0,1
 56 493 56 493 106 590 c 0,2,3
 156 682 156 682 252 758 c 0,4,5
 330 817 330 817 416 854 c 0,6,7
 500 889 500 889 571 889 c 1,8,9
 647 881 647 881 694 824.5 c 128,-1,10
 741 768 741 768 741 715 c 0,11,12
 741 655 741 655 707 614 c 0,13,14
 672 571 672 571 616 571 c 0,15,16
 596 571 596 571 561 582 c 1,17,18
 561 614 561 614 543 643 c 0,19,20
 522 674 522 674 492 690 c 0,21,22
 459 709 459 709 420 709 c 0,23,24
 305 709 305 709 276 598 c 0,25,26
 270 567 270 567 270 541 c 0,27,28
 270 432 270 432 324 350 c 0,29,30
 379 270 379 270 449 229 c 0,31,32
 516 190 516 190 587.5 165.5 c 128,-1,33
 659 141 659 141 719 141 c 0,34,35
 780 141 780 141 819 170 c 1,36,37
 731 266 731 266 731 356 c 1,38,39
 738 493 738 493 788 590 c 0,40,41
 838 682 838 682 934 758 c 0,42,43
 1010 815 1010 815 1098 852 c 128,-1,44
 1186 889 1186 889 1255 889 c 1,45,46
 1331 881 1331 881 1378 825 c 0,47,48
 1423 768 1423 768 1423 715 c 0,49,50
 1423 655 1423 655 1389 614 c 0,51,52
 1354 571 1354 571 1298 571 c 0,53,54
 1278 571 1278 571 1243 582 c 1,55,56
 1243 614 1243 614 1225 643 c 0,57,58
 1204 674 1204 674 1174 690 c 0,59,60
 1141 709 1141 709 1102 709 c 0,61,62
 1040 709 1040 709 1006 686 c 0,63,64
 971 666 971 666 961 598 c 0,65,66
 952 559 952 559 952 539 c 0,67,68
 952 493 952 493 966 442.5 c 128,-1,69
 980 392 980 392 1006 350 c 0,70,71
 1061 272 1061 272 1130 229 c 0,72,73
 1303 123 1303 123 1397 123 c 0,74,75
 1448 123 1448 123 1493 154 c 0,76,77
 1540 182 1540 182 1579 240 c 0,78,79
 1616 295 1616 295 1636 367 c 0,80,81
 1657 438 1657 438 1657 518 c 0,82,83
 1657 547 1657 547 1655 561 c 0,84,85
 1659 721 1659 721 1659 791 c 0,86,87
 1659 922 1659 922 1651 1022 c 0,88,89
 1640 1122 1640 1122 1613.5 1216.5 c 128,-1,90
 1587 1311 1587 1311 1540 1393 c 1,91,92
 1610 1417 1610 1417 1683 1473 c 0,93,94
 1757 1526 1757 1526 1815 1595 c 0,95,96
 1835 1618 1835 1618 1849 1618 c 0,97,98
 1880 1618 1880 1618 1880 1509 c 0,99,100
 1880 1444 1880 1444 1868 1333 c 1,101,102
 1868 1288 1868 1288 1864 1196 c 0,103,104
 1860 1106 1860 1106 1858 1049 c 0,105,106
 1855 993 1855 993 1853 901 c 0,107,108
 1851 811 1851 811 1851 750 c 1,109,110
 1845 670 1845 670 1845 381 c 0,111,112
 1845 270 1845 270 1847 143 c 0,113,114
 1849 14 1849 14 1853 -168 c 0,115,116
 1858 -350 1858 -350 1862 -510 c 0,117,118
 1866 -668 1866 -668 1870 -786 c 1,119,120
 1839 -862 1839 -862 1765 -922 c 0,121,122
 1690 -981 1690 -981 1571 -1010 c 1,123,124
 1538 -1010 1538 -1010 1538 -997 c 0,125,126
 1538 -983 1538 -983 1550 -963 c 1,127,128
 1597 -805 1597 -805 1624 -612 c 0,129,130
 1653 -420 1653 -420 1663 -260 c 0,131,132
 1671 -100 1671 -100 1671 -8 c 0,133,134
 1671 113 1671 113 1667 205 c 1,135,136
 1620 131 1620 131 1569 86 c 0,137,138
 1516 43 1516 43 1448 25 c 0,139,140
 1378 4 1378 4 1272 2 c 0,141,142
 1047 2 1047 2 887 109 c 1,143,144
 803 51 803 51 731 27 c 0,145,146
 657 2 657 2 588 2 c 0,147,148
 467 4 467 4 342 47 c 0,149,150
 215 88 215 88 133 168 c 0,151,152
 49 246 49 246 49 356 c 1,0,1
EndSplineSet
Validated: 1
EndChar

StartChar: uniEC62
Encoding: 60514 60514 55
Width: 2
GlyphClass: 2
Flags: W
LayerCount: 2
Fore
SplineSet
-721 1436 m 0,0,1
 -721 1477 -721 1477 -690 1509 c 0,2,3
 -659 1542 -659 1542 -616 1542 c 256,4,5
 -573 1542 -573 1542 -541.5 1510.5 c 128,-1,6
 -510 1479 -510 1479 -510 1436 c 256,7,8
 -510 1393 -510 1393 -541 1362 c 0,9,10
 -573 1329 -573 1329 -616 1329 c 0,11,12
 -657 1329 -657 1329 -688 1362 c 0,13,14
 -721 1393 -721 1393 -721 1436 c 0,0,1
EndSplineSet
Validated: 1
EndChar

StartChar: uniEC82
Encoding: 60546 60546 56
Width: 2
GlyphClass: 2
Flags: W
LayerCount: 2
Fore
SplineSet
-741 1352 m 1,0,1
 -643 1409 -643 1409 -590 1458 c 128,-1,2
 -537 1507 -537 1507 -496 1571 c 1,3,4
 -481 1602 -481 1602 -481 1630 c 0,5,6
 -481 1671 -481 1671 -504 1692 c 0,7,8
 -522 1710 -522 1710 -555 1710 c 0,9,10
 -584 1710 -584 1710 -621 1698 c 1,11,-1
 -641 1722 l 1,12,13
 -612 1753 -612 1753 -596 1767 c 0,14,15
 -578 1782 -578 1782 -545 1788 c 1,16,17
 -451 1788 -451 1788 -401 1743 c 0,18,19
 -360 1704 -360 1704 -360 1640 c 0,20,21
 -360 1589 -360 1589 -391 1536 c 1,22,23
 -483 1409 -483 1409 -721 1319 c 1,24,-1
 -741 1352 l 1,0,1
EndSplineSet
Validated: 1
EndChar

StartChar: uniEC50
Encoding: 60496 60496 57
Width: 2
GlyphClass: 2
Flags: W
LayerCount: 2
Fore
SplineSet
-393 1327 m 1,0,-1
 -217 1583 l 2,1,2
 -188 1628 -188 1628 -143 1671 c 0,3,4
 -123 1692 -123 1692 -104 1694 c 0,5,6
 -78 1694 -78 1694 -61 1683 c 1,7,8
 -39 1661 -39 1661 -39 1642 c 0,9,10
 -39 1614 -39 1614 -55 1595 c 0,11,12
 -59 1589 -59 1589 -86 1561 c 0,13,14
 -113 1530 -113 1530 -121 1522 c 2,15,-1
 -307 1327 l 1,16,-1
 -393 1327 l 1,0,-1
EndSplineSet
Validated: 1
EndChar

StartChar: uniE01D
Encoding: 57373 57373 58
Width: 1946
GlyphClass: 2
Flags: W
LayerCount: 2
Fore
SplineSet
55 1393 m 1,0,1
 123 1415 123 1415 199 1473 c 0,2,3
 274 1528 274 1528 330 1595 c 0,4,5
 346 1616 346 1616 360 1616 c 0,6,7
 393 1616 393 1616 393 1499 c 0,8,9
 393 1427 393 1427 381 1313 c 1,10,11
 375 1108 375 1108 373 983 c 0,12,13
 369 860 369 860 369 737 c 1,14,15
 430 815 430 815 510 842 c 0,16,17
 588 866 588 866 680 866 c 0,18,19
 918 858 918 858 1065 760 c 1,20,21
 1225 866 1225 866 1364 866 c 1,22,23
 1485 862 1485 862 1610 821 c 128,-1,24
 1735 780 1735 780 1819 701.5 c 128,-1,25
 1903 623 1903 623 1903 512 c 0,26,27
 1903 365 1903 365 1841 268 c 0,28,29
 1808 213 1808 213 1769 175 c 128,-1,30
 1730 137 1730 137 1667 115 c 1,31,-1
 1897 113 l 1,32,33
 1897 49 1897 49 1851 -20 c 0,34,35
 1821 -61 1821 -61 1784 -78 c 0,36,37
 1745 -92 1745 -92 1688 -92 c 2,38,-1
 362 -92 l 1,39,40
 365 -190 365 -190 369 -295 c 0,41,42
 373 -401 373 -401 379 -528 c 0,43,44
 383 -657 383 -657 387 -778 c 1,45,46
 358 -854 358 -854 283 -913 c 0,47,48
 207 -975 207 -975 88 -1001 c 0,49,50
 70 -1001 70 -1001 63 -999 c 0,51,52
 57 -997 57 -997 57 -989 c 0,53,54
 57 -979 57 -979 68 -954 c 0,55,56
 170 -608 170 -608 188 0 c 0,57,58
 188 10 188 10 188 23 c 0,59,60
 188 45 188 45 188 80 c 0,61,62
 190 129 190 129 193 186 c 0,63,64
 195 244 195 244 197 317 c 0,65,66
 197 440 197 440 188 532 c 1,67,-1
 188 584 l 2,68,69
 188 707 188 707 180 844 c 128,-1,70
 172 981 172 981 143 1133 c 0,71,72
 113 1282 113 1282 55 1393 c 1,0,1
356 113 m 1,73,-1
 631 115 l 2,74,75
 649 113 649 113 686 113 c 0,76,77
 799 113 799 113 887 160 c 0,78,79
 973 205 973 205 991 291 c 0,80,81
 999 332 999 332 999 350 c 0,82,83
 999 410 999 410 973 467 c 0,84,85
 946 522 946 522 905 569 c 0,86,87
 862 614 862 614 821 639 c 0,88,89
 647 745 647 745 555 745 c 1,90,91
 500 737 500 737 467 711 c 0,92,93
 432 682 432 682 414 641 c 0,94,95
 395 598 395 598 391 571 c 0,96,97
 387 545 387 545 373 451 c 0,98,99
 362 385 362 385 360 305 c 0,100,101
 356 223 356 223 356 113 c 1,73,-1
997 113 m 1,102,-1
 1391 113 l 2,103,104
 1479 113 1479 113 1532 125 c 0,105,106
 1585 133 1585 133 1622 174 c 0,107,108
 1659 213 1659 213 1673 291 c 0,109,110
 1681 332 1681 332 1681 352 c 0,111,112
 1681 442 1681 442 1626 520 c 0,113,114
 1573 600 1573 600 1503 639 c 0,115,116
 1346 727 1346 727 1233 727 c 0,117,118
 1169 727 1169 727 1133 698 c 1,119,120
 1219 600 1219 600 1221 512 c 0,121,122
 1221 383 1221 383 1164.5 286.5 c 128,-1,123
 1108 190 1108 190 997 113 c 1,102,-1
EndSplineSet
Validated: 1
EndChar

StartChar: uniE01F
Encoding: 57375 57375 59
Width: 1946
GlyphClass: 2
Flags: W
LayerCount: 2
Fore
SplineSet
53 356 m 0,0,1
 57 451 57 451 88 532 c 0,2,3
 117 614 117 614 178 678 c 1,4,5
 245 741 245 741 346 771 c 1,6,-1
 54 770 l 1,7,8
 54 805 54 805 66 832 c 128,-1,9
 78 859 78 859 104 893 c 0,10,11
 139 936 139 936 180 950 c 0,12,13
 221 965 221 965 281 965 c 2,14,-1
 1651 967 l 1,15,16
 1651 1092 1651 1092 1620 1206 c 0,17,18
 1589 1323 1589 1323 1540 1393 c 1,19,20
 1610 1417 1610 1417 1683 1473 c 0,21,22
 1757 1526 1757 1526 1815 1595 c 0,23,24
 1835 1618 1835 1618 1849 1618 c 0,25,26
 1880 1618 1880 1618 1880 1509 c 0,27,28
 1880 1444 1880 1444 1868 1333 c 1,29,30
 1853 926 1853 926 1853 745 c 0,31,32
 1853 610 1853 610 1855 446 c 0,33,34
 1855 281 1855 281 1855 143 c 0,35,36
 1858 4 1858 4 1864 -270 c 0,37,38
 1868 -549 1868 -549 1874 -786 c 1,39,40
 1843 -862 1843 -862 1769 -922 c 0,41,42
 1694 -981 1694 -981 1573 -1010 c 1,43,44
 1554 -1010 1554 -1010 1548 -1008 c 0,45,46
 1542 -1008 1542 -1008 1542 -997 c 0,47,48
 1542 -983 1542 -983 1554 -963 c 1,49,50
 1622 -739 1622 -739 1647 -467 c 0,51,52
 1673 -197 1673 -197 1673 -8 c 0,53,54
 1673 113 1673 113 1671 205 c 1,55,56
 1622 131 1622 131 1573 88 c 0,57,58
 1520 43 1520 43 1450 25 c 0,59,60
 1382 4 1382 4 1274 2 c 0,61,62
 1171 2 1171 2 1071 28.5 c 128,-1,63
 971 55 971 55 891 109 c 1,64,65
 805 51 805 51 733 27 c 0,66,67
 662 2 662 2 592 2 c 0,68,69
 489 2 489 2 391 27 c 0,70,71
 293 49 293 49 217 94 c 0,72,73
 141 137 141 137 98 207 c 1,74,75
 53 272 53 272 53 356 c 0,0,1
287 510 m 0,76,77
 287 422 287 422 338 344 c 0,78,79
 387 266 387 266 453 229 c 0,80,81
 606 141 606 141 723 141 c 0,82,83
 784 141 784 141 823 170 c 1,84,85
 741 260 741 260 735 356 c 1,86,87
 735 426 735 426 753.5 491.5 c 128,-1,88
 772 557 772 557 805 608 c 0,89,90
 838 662 838 662 883 701.5 c 128,-1,91
 928 741 928 741 983 766 c 1,92,-1
 782 766 l 2,93,94
 645 766 645 766 539 745 c 0,95,96
 430 725 430 725 369 682 c 0,97,98
 305 639 305 639 293 573 c 0,99,100
 287 543 287 543 287 510 c 0,76,77
956 518 m 0,101,102
 956 459 956 459 983 401 c 0,103,104
 1010 344 1010 344 1051 301 c 0,105,106
 1090 258 1090 258 1135 229 c 0,107,108
 1307 123 1307 123 1401 123 c 0,109,110
 1499 123 1499 123 1566.5 226.5 c 128,-1,111
 1634 330 1634 330 1634 489 c 0,112,113
 1634 524 1634 524 1632 543 c 0,114,115
 1630 584 1630 584 1630 678 c 0,116,117
 1630 750 1630 750 1622 770 c 1,118,-1
 1405 770 l 2,119,120
 1198 770 1198 770 1090 725 c 0,121,122
 981 678 981 678 965 578 c 0,123,124
 956 530 956 530 956 518 c 0,101,102
EndSplineSet
Validated: 1
EndChar

StartChar: uniEC72
Encoding: 60530 60530 60
Width: 2
GlyphClass: 2
Flags: W
LayerCount: 2
Fore
SplineSet
-866 1325 m 1,0,1
 -829 1438 -829 1438 -799 1507 c 0,2,3
 -768 1577 -768 1577 -729 1626 c 128,-1,4
 -690 1675 -690 1675 -629 1724 c 1,5,6
 -575 1755 -575 1755 -522 1755 c 0,7,8
 -457 1755 -457 1755 -397 1702 c 0,9,10
 -375 1683 -375 1683 -367 1653 c 0,11,12
 -358 1622 -358 1622 -358 1569 c 1,13,14
 -365 1546 -365 1546 -375 1528 c 0,15,16
 -385 1505 -385 1505 -395 1493 c 0,17,18
 -408 1479 -408 1479 -418 1462 c 1,19,-1
 -446 1481 l 1,20,21
 -444 1495 -444 1495 -444 1522 c 0,22,23
 -444 1567 -444 1567 -465 1593 c 0,24,25
 -483 1616 -483 1616 -522 1616 c 0,26,27
 -555 1616 -555 1616 -586 1595 c 0,28,29
 -610 1581 -610 1581 -651 1538 c 128,-1,30
 -692 1495 -692 1495 -733 1438 c 0,31,32
 -776 1380 -776 1380 -811 1311 c 1,33,-1
 -866 1325 l 1,0,1
EndSplineSet
Validated: 1
EndChar

StartChar: uniE01B
Encoding: 57371 57371 61
Width: 1331
GlyphClass: 2
Flags: W
LayerCount: 2
Fore
SplineSet
51 356 m 0,0,1
 53 424 53 424 72 487 c 0,2,3
 88 551 88 551 123 606 c 0,4,5
 156 662 156 662 211 705 c 0,6,7
 262 745 262 745 336 766 c 1,8,-1
 54 765 l 1,9,10
 62 840 62 840 109 897 c 0,11,12
 143 938 143 938 184 953 c 128,-1,13
 225 968 225 968 285 969 c 2,14,-1
 1040 971 l 1,15,16
 1040 1104 1040 1104 1012 1219 c 0,17,18
 981 1333 981 1333 930 1393 c 1,19,20
 999 1417 999 1417 1073 1473 c 0,21,22
 1149 1528 1149 1528 1204 1595 c 0,23,24
 1227 1618 1227 1618 1239 1618 c 0,25,26
 1270 1618 1270 1618 1270 1509 c 0,27,28
 1270 1440 1270 1440 1257 1333 c 1,29,30
 1253 1221 1253 1221 1249 1143 c 128,-1,31
 1245 1065 1245 1065 1243 973 c 256,32,33
 1241 881 1241 881 1241 766 c 1,34,35
 1231 657 1231 657 1231 457 c 0,36,37
 1231 412 1231 412 1231 360 c 0,38,39
 1231 -82 1231 -82 1260 -778 c 1,40,41
 1231 -854 1231 -854 1153 -913 c 0,42,43
 1077 -975 1077 -975 961 -1001 c 1,44,45
 928 -1001 928 -1001 928 -989 c 256,46,47
 928 -977 928 -977 940 -954 c 1,48,49
 985 -801 985 -801 1014 -604 c 0,50,51
 1040 -410 1040 -410 1051 -252 c 0,52,53
 1061 -92 1061 -92 1061 0 c 0,54,55
 1061 121 1061 121 1057 213 c 1,56,57
 993 147 993 147 926 100 c 1,58,59
 854 55 854 55 780 33 c 0,60,61
 705 8 705 8 623 6 c 0,62,63
 524 6 524 6 424 29 c 0,64,65
 322 51 322 51 236 98 c 128,-1,66
 150 145 150 145 100 211 c 0,67,68
 51 274 51 274 51 356 c 0,0,1
283 526 m 0,69,70
 283 465 283 465 310.5 407.5 c 128,-1,71
 338 350 338 350 381 305 c 128,-1,72
 424 260 424 260 471 233 c 0,73,74
 537 197 537 197 610 178 c 0,75,76
 682 160 682 160 748 160 c 1,77,78
 895 172 895 172 969 260 c 0,79,80
 1044 348 1044 348 1044 489 c 0,81,82
 1044 508 1044 508 1040 553 c 0,83,84
 1032 688 1032 688 1016 766 c 1,85,-1
 793 764 l 2,86,87
 573 762 573 762 440 719 c 0,88,89
 305 676 305 676 289 580 c 0,90,91
 283 553 283 553 283 526 c 0,69,70
EndSplineSet
Validated: 1
EndChar

StartChar: uniEC21
Encoding: 60449 60449 62
Width: 2
GlyphClass: 2
Flags: W
LayerCount: 2
Fore
SplineSet
-1069 1110 m 1,0,-1
 -1004 1233 l 1,1,-1
 -233 1233 l 1,2,-1
 -291 1110 l 1,3,-1
 -1069 1110 l 1,0,-1
EndSplineSet
Validated: 1
EndChar

StartChar: uni605C
Encoding: 24668 24668 63
Width: 1024
GlyphClass: 2
Flags: W
LayerCount: 2
Fore
SplineSet
84 369 m 1,0,1
 94 397 94 397 127 459 c 0,2,3
 160 518 160 518 232.5 577.5 c 128,-1,4
 305 637 305 637 403 637 c 0,5,6
 479 637 479 637 573 590 c 0,7,8
 664 543 664 543 729 543 c 0,9,10
 823 543 823 543 958 643 c 1,11,12
 909 514 909 514 842 449 c 0,13,14
 774 381 774 381 682 381 c 0,15,16
 627 381 627 381 553 410 c 0,17,18
 471 444 471 444 442 457 c 0,19,20
 414 467 414 467 369 467 c 0,21,22
 270 467 270 467 84 369 c 1,0,1
EndSplineSet
Validated: 1
EndChar

StartChar: uniE032
Encoding: 57394 57394 64
Width: 1280
GlyphClass: 2
Flags: W
LayerCount: 2
Fore
SplineSet
33 393 m 0,0,1
 33 451 33 451 66 586 c 0,2,3
 82 655 82 655 125 719 c 0,4,5
 168 780 168 780 242 823 c 0,6,7
 336 874 336 874 426 903 c 0,8,9
 514 930 514 930 635 930 c 0,10,11
 729 930 729 930 854 907 c 0,12,13
 872 903 872 903 893 901 c 0,14,15
 913 897 913 897 930 893 c 0,16,17
 944 887 944 887 961 877 c 0,18,19
 1090 799 1090 799 1090 723 c 0,20,21
 1090 702 1090 702 1085 692 c 0,22,23
 1069 639 1069 639 1020 602 c 0,24,25
 969 567 969 567 913 567 c 0,26,27
 868 567 868 567 838 590 c 1,28,29
 815 633 815 633 762 692 c 0,30,31
 709 752 709 752 668 762 c 0,32,33
 580 791 580 791 516 791 c 0,34,35
 420 791 420 791 367 731 c 0,36,37
 311 672 311 672 311 549 c 0,38,39
 311 496 311 496 319 446 c 0,40,41
 328 395 328 395 369 334 c 0,42,43
 408 270 408 270 463 215 c 128,-1,44
 518 160 518 160 573 131 c 0,45,46
 682 74 682 74 831 74 c 0,47,48
 934 74 934 74 1004 98 c 1,49,50
 1051 109 1051 109 1090 129 c 0,51,52
 1128 150 1128 150 1192 193 c 0,53,54
 1253 238 1253 238 1262 242 c 1,55,-1
 1151 41 l 1,56,57
 1135 27 1135 27 1067 2 c 0,58,59
 997 -20 997 -20 850 -20 c 0,60,61
 815 -20 815 -20 754 -23 c 0,62,63
 690 -25 690 -25 649 -25 c 0,64,65
 596 -25 596 -25 561 -20 c 0,66,67
 438 -4 438 -4 344 25 c 0,68,69
 252 53 252 53 178 102 c 0,70,71
 106 154 106 154 70 225 c 0,72,73
 33 297 33 297 33 393 c 0,0,1
EndSplineSet
Validated: 1
EndChar

StartChar: uniEC73
Encoding: 60531 60531 65
Width: 2
GlyphClass: 2
Flags: W
LayerCount: 2
Fore
SplineSet
-1235 1325 m 1,0,1
 -1182 1489 -1182 1489 -1135 1571 c 0,2,3
 -1087 1651 -1087 1651 -997 1724 c 1,4,5
 -944 1755 -944 1755 -891 1755 c 0,6,7
 -825 1755 -825 1755 -766 1702 c 0,8,9
 -743 1683 -743 1683 -735 1655 c 0,10,11
 -727 1622 -727 1622 -727 1569 c 1,12,13
 -733 1542 -733 1542 -758.5 1503 c 128,-1,14
 -784 1464 -784 1464 -786 1462 c 2,15,-1
 -815 1481 l 1,16,17
 -813 1495 -813 1495 -813 1522 c 0,18,19
 -813 1569 -813 1569 -834 1593 c 0,20,21
 -852 1616 -852 1616 -891 1616 c 0,22,23
 -924 1616 -924 1616 -954 1595 c 0,24,25
 -981 1579 -981 1579 -1022 1538 c 0,26,27
 -1063 1495 -1063 1495 -1106 1436 c 0,28,29
 -1149 1374 -1149 1374 -1184 1307 c 1,30,-1
 -1235 1325 l 1,0,1
EndSplineSet
Validated: 1
EndChar

StartChar: uniEBD9
Encoding: 60377 60377 66
Width: 512
GlyphClass: 2
Flags: W
LayerCount: 2
Fore
SplineSet
-270 309 m 1,0,1
 -158 319 -158 319 -78 319 c 0,2,3
 73 319 73 319 174.5 295 c 128,-1,4
 276 271 276 271 344 209 c 1,5,6
 400 167 400 167 442 74 c 0,7,8
 475 2 475 2 475 -80 c 0,9,10
 475 -141 475 -141 457 -203 c 1,11,12
 432 -268 432 -268 365 -301 c 0,13,14
 295 -336 295 -336 211 -336 c 0,15,16
 141 -334 141 -334 96 -293 c 0,17,18
 49 -252 49 -252 41 -180 c 1,19,20
 51 -131 51 -131 74 -106 c 0,21,22
 94 -82 94 -82 121 -82 c 0,23,24
 164 -82 164 -82 199 -131 c 0,25,26
 233 -182 233 -182 233 -254 c 1,27,28
 252 -260 252 -260 270 -260 c 0,29,30
 305 -260 305 -260 340 -242 c 0,31,32
 375 -223 375 -223 395 -193 c 1,33,34
 414 -156 414 -156 414 -106 c 0,35,36
 414 -43 414 -43 379 12 c 0,37,38
 335 75 335 75 274 94 c 1,39,40
 207 121 207 121 61 121 c 0,41,42
 6 121 6 121 -47 119 c 0,43,44
 -102 115 -102 115 -115 113 c 1,45,-1
 -145 213 l 1,46,-1
 -270 309 l 1,0,1
EndSplineSet
Validated: 1
EndChar

StartChar: uniE02E
Encoding: 57390 57390 67
Width: 614
GlyphClass: 2
Flags: W
LayerCount: 2
Fore
SplineSet
102 768 m 1,0,-1
 246 860 l 2,1,2
 268 874 268 874 309 911 c 128,-1,3
 350 948 350 948 375 967 c 0,4,5
 397 985 397 985 418 985 c 0,6,7
 436 985 436 985 451 963 c 0,8,9
 459 946 459 946 459 926 c 0,10,11
 459 915 459 915 455 891 c 0,12,13
 451 857 451 857 451 850 c 2,14,-1
 451 313 l 2,15,16
 453 313 453 313 461 203 c 0,17,18
 469 84 469 84 469 68 c 0,19,20
 457 16 457 16 381 -35 c 128,-1,21
 305 -86 305 -86 260 -94 c 0,22,23
 233 -96 233 -96 215 -98 c 128,-1,24
 197 -100 197 -100 184 -100 c 0,25,26
 156 -100 156 -100 141 -98 c 1,27,28
 180 -33 180 -33 195 2 c 2,29,-1
 246 143 l 1,30,31
 270 262 270 262 270 352 c 0,32,33
 270 371 270 371 268 385 c 128,-1,34
 266 399 266 399 262 420 c 0,35,36
 256 436 256 436 246 471 c 0,37,38
 215 582 215 582 184 662 c 0,39,40
 173 691 173 691 146 717 c 128,-1,41
 119 743 119 743 102 768 c 1,0,-1
EndSplineSet
Validated: 1
EndChar

StartChar: uniE002
Encoding: 57346 57346 68
Width: 1331
GlyphClass: 2
Flags: W
LayerCount: 2
Fore
SplineSet
51 346 m 1,0,1
 59 501 59 501 109 590 c 0,2,3
 162 682 162 682 260 760 c 0,4,5
 340 819 340 819 430 856 c 0,6,7
 522 893 522 893 598 893 c 1,8,9
 653 889 653 889 692 860 c 128,-1,10
 731 831 731 831 754 795 c 0,11,12
 776 756 776 756 778 721 c 0,13,14
 778 662 778 662 741 621 c 0,15,16
 707 578 707 578 645 578 c 0,17,18
 614 578 614 578 588 586 c 1,19,20
 588 637 588 637 545 676 c 0,21,22
 500 713 500 713 440 713 c 0,23,24
 395 713 395 713 356 682 c 0,25,26
 315 649 315 649 289 600 c 1,27,28
 283 571 283 571 283 547 c 0,29,30
 283 458 283 458 311 397 c 0,31,32
 338 342 338 342 381 297 c 128,-1,33
 424 252 424 252 471 223 c 0,34,35
 537 186 537 186 609.5 168 c 128,-1,36
 682 150 682 150 748 150 c 1,37,38
 889 164 889 164 956 246 c 0,39,40
 990 286 990 286 1007 346 c 128,-1,41
 1024 406 1024 406 1024 473 c 0,42,43
 1024 510 1024 510 1018 551 c 0,44,45
 1008 596 1008 596 997.5 615.5 c 128,-1,46
 987 635 987 635 963.5 662.5 c 128,-1,47
 940 690 940 690 926 717 c 1,48,49
 999 743 999 743 1073 799 c 0,50,51
 1145 854 1145 854 1200 920 c 0,52,53
 1223 942 1223 942 1235 942 c 0,54,55
 1266 942 1266 942 1266 834 c 0,56,57
 1266 766 1266 766 1253 657 c 0,58,59
 1244 600 1244 600 1239.5 518.5 c 128,-1,60
 1235 437 1235 437 1235 272 c 0,61,62
 1235 109 1235 109 1237 -78 c 0,63,64
 1241 -262 1241 -262 1247 -463 c 0,65,66
 1255 -666 1255 -666 1260 -778 c 1,67,68
 1231 -854 1231 -854 1153 -913 c 0,69,70
 1077 -975 1077 -975 961 -1001 c 1,71,72
 928 -1001 928 -1001 928 -989 c 256,73,74
 928 -977 928 -977 940 -954 c 1,75,76
 985 -801 985 -801 1014 -604 c 0,77,78
 1040 -410 1040 -410 1051 -252 c 0,79,80
 1061 -92 1061 -92 1061 0 c 0,81,82
 1061 121 1061 121 1057 213 c 1,83,84
 972 123 972 123 926 90 c 0,85,86
 854 45 854 45 779.5 22.5 c 128,-1,87
 705 0 705 0 623 -4 c 1,88,89
 524 -4 524 -4 424 18 c 0,90,91
 322 43 322 43 236 88 c 0,92,93
 150 135 150 135 100 201 c 0,94,95
 51 264 51 264 51 346 c 1,0,1
EndSplineSet
Validated: 1
EndChar

StartChar: uniE013
Encoding: 57363 57363 69
Width: 1946
GlyphClass: 2
Flags: W
LayerCount: 2
Fore
SplineSet
49 346 m 0,0,1
 52 449 52 449 84 532 c 0,2,3
 113 614 113 614 174 678 c 1,4,5
 236 737 236 737 334 766 c 1,6,-1
 49 765 l 1,7,8
 49 822 49 822 100 893 c 0,9,10
 135 936 135 936 176 950 c 0,11,12
 216 965 216 965 276 965 c 2,13,-1
 1874 965 l 1,14,15
 1874 843 1874 843 1864 752 c 0,16,17
 1853 657 1853 657 1853 506 c 0,18,19
 1853 281 1853 281 1874 156 c 1,20,21
 1843 80 1843 80 1769 20 c 0,22,23
 1694 -39 1694 -39 1573 -68 c 1,24,25
 1554 -68 1554 -68 1548 -66 c 0,26,27
 1542 -66 1542 -66 1542 -55 c 0,28,29
 1542 -43 1542 -43 1554 -20 c 1,30,31
 1554 2 1554 2 1563 43 c 0,32,33
 1573 84 1573 84 1573 90 c 1,34,35
 1545 68 1545 68 1524 51.5 c 128,-1,36
 1503 35 1503 35 1491 29 c 0,37,38
 1456 10 1456 10 1405 2 c 128,-1,39
 1354 -6 1354 -6 1272 -8 c 0,40,41
 1047 -8 1047 -8 887 98 c 1,42,43
 803 43 803 43 731 16 c 0,44,45
 657 -8 657 -8 588 -8 c 0,46,47
 467 -4 467 -4 342 37 c 0,48,49
 215 78 215 78 133 158 c 0,50,51
 49 236 49 236 49 346 c 0,0,1
270 520 m 0,52,53
 270 421 270 421 324 342 c 0,54,55
 379 260 379 260 449 219 c 0,56,57
 516 180 516 180 587.5 155.5 c 128,-1,58
 659 131 659 131 719 131 c 0,59,60
 780 131 780 131 819 160 c 1,61,62
 731 256 731 256 731 346 c 0,63,64
 731 425 731 425 750 492 c 0,65,66
 768 557 768 557 801 608 c 0,67,68
 834 662 834 662 879 701.5 c 128,-1,69
 924 741 924 741 979 766 c 1,70,-1
 778 766 l 2,71,72
 567 766 567 766 436 721 c 0,73,74
 303 674 303 674 276 578 c 0,75,76
 270 547 270 547 270 520 c 0,52,53
952 518 m 0,77,78
 952 421 952 421 1006 342 c 0,79,80
 1061 262 1061 262 1130 219 c 0,81,82
 1303 113 1303 113 1397 113 c 0,83,84
 1489 113 1489 113 1563 227 c 0,85,86
 1630 330 1630 330 1630 489 c 0,87,88
 1630 524 1630 524 1628 543 c 0,89,90
 1608 639 1608 639 1597 680 c 0,91,92
 1585 719 1585 719 1559 770 c 1,93,-1
 1401 770 l 2,94,95
 1194 770 1194 770 1085 725 c 0,96,97
 977 678 977 678 961 578 c 0,98,99
 952 541 952 541 952 518 c 0,77,78
EndSplineSet
Validated: 1
EndChar

StartChar: uniE00B
Encoding: 57355 57355 70
Width: 1331
GlyphClass: 2
Flags: W
LayerCount: 2
Fore
SplineSet
49 384 m 0,0,1
 49 585 49 585 211 705 c 0,2,3
 262 745 262 745 336 766 c 1,4,-1
 54 765 l 1,5,6
 54 831 54 831 109 897 c 0,7,8
 143 938 143 938 184 953 c 128,-1,9
 225 968 225 968 285 969 c 2,10,-1
 1040 971 l 1,11,12
 1032 1094 1032 1094 1008 1200 c 0,13,14
 981 1309 981 1309 930 1393 c 1,15,16
 999 1417 999 1417 1073 1473 c 0,17,18
 1149 1528 1149 1528 1204 1595 c 0,19,20
 1227 1618 1227 1618 1239 1618 c 0,21,22
 1270 1618 1270 1618 1270 1509 c 0,23,24
 1270 1440 1270 1440 1257 1333 c 1,25,26
 1249 1081 1249 1081 1249 451 c 0,27,28
 1251 369 1251 369 1251 338 c 256,29,30
 1251 307 1251 307 1255 262 c 0,31,32
 1257 215 1257 215 1264 164 c 1,33,34
 1235 88 1235 88 1157 31 c 1,35,36
 1081 -31 1081 -31 963 -59 c 1,37,38
 944 -59 944 -59 938 -57 c 128,-1,39
 932 -55 932 -55 932 -47 c 0,40,41
 932 -35 932 -35 944 -12 c 1,42,43
 948 10 948 10 957.5 60.5 c 128,-1,44
 967 111 967 111 973 137 c 1,45,46
 890 68 890 68 802 28.5 c 128,-1,47
 714 -11 714 -11 623 -14 c 0,48,49
 489 -14 489 -14 358 29 c 0,50,51
 227 70 227 70 143 150 c 0,52,53
 57 229 57 229 51 336 c 0,54,55
 49 353 49 353 49 384 c 0,0,1
283 516 m 0,56,57
 283 448 283 448 311 387 c 0,58,59
 338 332 338 332 381 287 c 128,-1,60
 424 242 424 242 471 213 c 0,61,62
 537 176 537 176 609.5 157.5 c 128,-1,63
 682 139 682 139 748 139 c 1,64,65
 892 154 892 154 961 279 c 0,66,67
 1018 383 1018 383 1018 551 c 1,68,69
 1001 625 1001 625 989 668 c 128,-1,70
 977 711 977 711 948 766 c 1,71,-1
 793 764 l 2,72,73
 322 758 322 758 289 580 c 0,74,75
 283 552 283 552 283 516 c 0,56,57
EndSplineSet
Validated: 1
EndChar

StartChar: uniE00A
Encoding: 57354 57354 71
Width: 1331
GlyphClass: 2
Flags: W
LayerCount: 2
Fore
SplineSet
51 346 m 1,0,1
 59 501 59 501 109 590 c 0,2,3
 162 682 162 682 260 760 c 0,4,5
 340 819 340 819 430 856 c 0,6,7
 522 893 522 893 598 893 c 1,8,9
 653 889 653 889 692 860 c 128,-1,10
 731 831 731 831 754 795 c 0,11,12
 776 756 776 756 778 721 c 0,13,14
 778 662 778 662 741 621 c 0,15,16
 707 578 707 578 645 578 c 0,17,18
 614 578 614 578 588 586 c 1,19,20
 588 637 588 637 545 676 c 0,21,22
 500 713 500 713 440 713 c 0,23,24
 395 713 395 713 356 682 c 0,25,26
 315 649 315 649 289 600 c 1,27,28
 283 571 283 571 283 547 c 0,29,30
 283 458 283 458 311 397 c 0,31,32
 338 342 338 342 381 297 c 128,-1,33
 424 252 424 252 471 223 c 0,34,35
 537 186 537 186 609.5 168 c 128,-1,36
 682 150 682 150 748 150 c 1,37,38
 899 165 899 165 975 287 c 0,39,40
 1044 397 1044 397 1044 561 c 1,41,42
 1049 694 1049 694 1049 791 c 0,43,44
 1049 922 1049 922 1039.5 1022 c 128,-1,45
 1030 1122 1030 1122 1004 1217 c 0,46,47
 979 1311 979 1311 930 1393 c 1,48,49
 999 1417 999 1417 1073 1473 c 0,50,51
 1149 1528 1149 1528 1204 1595 c 0,52,53
 1227 1618 1227 1618 1239 1618 c 0,54,55
 1270 1618 1270 1618 1270 1509 c 0,56,57
 1270 1440 1270 1440 1257 1333 c 1,58,59
 1249 1081 1249 1081 1249 451 c 0,60,61
 1251 369 1251 369 1251 338 c 256,62,63
 1251 307 1251 307 1255 262 c 0,64,65
 1257 215 1257 215 1264 164 c 1,66,67
 1235 88 1235 88 1157 31 c 1,68,69
 1081 -31 1081 -31 963 -59 c 1,70,71
 944 -59 944 -59 938 -57 c 128,-1,72
 932 -55 932 -55 932 -47 c 0,73,74
 932 -35 932 -35 944 -12 c 1,75,76
 948 10 948 10 957.5 60.5 c 128,-1,77
 967 111 967 111 973 137 c 1,78,79
 807 2 807 2 623 -4 c 0,80,81
 524 -4 524 -4 424 18 c 0,82,83
 322 43 322 43 236 88 c 0,84,85
 150 135 150 135 100 201 c 0,86,87
 51 264 51 264 51 346 c 1,0,1
EndSplineSet
Validated: 1
EndChar

StartChar: uniE009
Encoding: 57353 57353 72
Width: 1331
GlyphClass: 2
Flags: W
LayerCount: 2
Fore
SplineSet
45 -35 m 0,0,1
 45 -23 45 -23 59 -12 c 1,2,3
 109 154 109 154 131 246 c 0,4,5
 156 338 156 338 162 381 c 0,6,7
 168 426 168 426 180 532 c 0,8,9
 186 578 186 578 186 664 c 0,10,11
 186 848 186 848 153.5 1050.5 c 128,-1,12
 121 1253 121 1253 47 1393 c 1,13,14
 117 1417 117 1417 190 1473 c 0,15,16
 264 1526 264 1526 322 1595 c 0,17,18
 342 1618 342 1618 356 1618 c 0,19,20
 385 1618 385 1618 385 1516 c 0,21,22
 385 1448 385 1448 373 1333 c 0,23,24
 373 1305 373 1305 373 1249 c 0,25,26
 371 1196 371 1196 371 1163 c 256,27,28
 371 1130 371 1130 371 1090 c 0,29,30
 371 1040 371 1040 371 997 c 0,31,32
 371 956 371 956 373 881 c 0,33,34
 373 803 373 803 373 760 c 1,35,36
 393 774 393 774 411.5 787 c 128,-1,37
 430 800 430 800 447.5 811 c 128,-1,38
 465 822 465 822 485 831 c 0,39,40
 539 854 539 854 592 866 c 0,41,42
 643 877 643 877 707 877 c 0,43,44
 836 872 836 872 969 831 c 0,45,46
 1100 791 1100 791 1188 713 c 0,47,48
 1276 633 1276 633 1276 522 c 0,49,50
 1276 427 1276 427 1239 342 c 0,51,52
 1202 258 1202 258 1143 197 c 0,53,54
 1084 138 1084 138 1006 113 c 1,55,-1
 1288 113 l 1,56,57
 1288 40 1288 40 1239 -18 c 0,58,59
 1207 -56 1207 -56 1184 -66 c 0,60,61
 1155 -82 1155 -82 1126 -86 c 0,62,63
 1098 -92 1098 -92 1057 -92 c 2,64,-1
 354 -92 l 2,65,66
 248 -92 248 -92 145 -78 c 0,67,68
 45 -63 45 -63 45 -35 c 0,0,1
354 113 m 1,69,-1
 549 113 l 1,70,71
 731 117 731 117 834 133 c 0,72,73
 934 152 934 152 975 185.5 c 128,-1,74
 1016 219 1016 219 1036 291 c 0,75,76
 1042 317 1042 317 1042 346 c 0,77,78
 1042 410 1042 410 1016 473 c 1,79,80
 987 532 987 532 946 578 c 0,81,82
 903 623 903 623 856 649 c 0,83,84
 793 686 793 686 719 707 c 0,85,86
 643 725 643 725 582 725 c 1,87,88
 496 713 496 713 451 674 c 0,89,90
 410 641 410 641 387 573 c 0,91,92
 371 518 371 518 360 440 c 1,93,-1
 354 113 l 1,69,-1
EndSplineSet
Validated: 1
EndChar

StartChar: uniE00E
Encoding: 57358 57358 73
Width: 1946
GlyphClass: 2
Flags: W
LayerCount: 2
Fore
SplineSet
49 346 m 1,0,1
 56 494 56 494 106 590 c 0,2,3
 156 682 156 682 252 758 c 0,4,5
 330 817 330 817 416 854 c 0,6,7
 500 889 500 889 571 889 c 1,8,9
 647 881 647 881 694 824.5 c 128,-1,10
 741 768 741 768 741 715 c 0,11,12
 741 655 741 655 707 614 c 0,13,14
 672 571 672 571 616 571 c 0,15,16
 596 571 596 571 561 582 c 1,17,18
 561 614 561 614 543 643 c 0,19,20
 522 674 522 674 492 690 c 0,21,22
 459 709 459 709 420 709 c 0,23,24
 305 709 305 709 276 598 c 0,25,26
 270 567 270 567 270 541 c 0,27,28
 270 493 270 493 284 437 c 128,-1,29
 298 381 298 381 324 342 c 0,30,31
 379 260 379 260 449 219 c 0,32,33
 516 180 516 180 587.5 155.5 c 128,-1,34
 659 131 659 131 719 131 c 0,35,36
 780 131 780 131 819 160 c 1,37,38
 731 256 731 256 731 346 c 1,39,40
 738 494 738 494 788 590 c 0,41,42
 838 682 838 682 934 758 c 0,43,44
 1010 815 1010 815 1098 852 c 128,-1,45
 1186 889 1186 889 1255 889 c 1,46,47
 1331 881 1331 881 1378 825 c 0,48,49
 1423 768 1423 768 1423 715 c 0,50,51
 1423 655 1423 655 1389 614 c 0,52,53
 1354 571 1354 571 1298 571 c 0,54,55
 1278 571 1278 571 1243 582 c 1,56,57
 1243 614 1243 614 1225 643 c 0,58,59
 1204 674 1204 674 1174 690 c 0,60,61
 1141 709 1141 709 1102 709 c 0,62,63
 1040 709 1040 709 1006 686 c 0,64,65
 971 666 971 666 961 598 c 0,66,67
 952 559 952 559 952 539 c 0,68,69
 952 493 952 493 966 437 c 128,-1,70
 980 381 980 381 1006 342 c 0,71,72
 1061 262 1061 262 1130 219 c 0,73,74
 1303 113 1303 113 1397 113 c 0,75,76
 1456 113 1456 113 1526 176 c 0,77,78
 1583 231 1583 231 1620 332 c 0,79,80
 1655 432 1655 432 1655 561 c 0,81,82
 1659 721 1659 721 1659 791 c 0,83,84
 1659 922 1659 922 1651 1022 c 0,85,86
 1640 1122 1640 1122 1613.5 1216.5 c 128,-1,87
 1587 1311 1587 1311 1540 1393 c 1,88,89
 1610 1417 1610 1417 1683 1473 c 0,90,91
 1757 1526 1757 1526 1815 1595 c 0,92,93
 1835 1618 1835 1618 1849 1618 c 0,94,95
 1880 1618 1880 1618 1880 1509 c 0,96,97
 1880 1444 1880 1444 1868 1333 c 1,98,99
 1860 1081 1860 1081 1860 451 c 0,100,101
 1862 369 1862 369 1864 338 c 0,102,103
 1864 307 1864 307 1866 254 c 0,104,105
 1870 201 1870 201 1874 164 c 1,106,107
 1843 88 1843 88 1769 31 c 0,108,109
 1694 -29 1694 -29 1573 -59 c 1,110,111
 1554 -59 1554 -59 1548 -57 c 128,-1,112
 1542 -55 1542 -55 1542 -47 c 0,113,114
 1542 -35 1542 -35 1554 -12 c 0,115,116
 1561 10 1561 10 1573 98 c 1,117,118
 1547 77 1547 77 1525.5 61.5 c 128,-1,119
 1504 46 1504 46 1484.5 33.5 c 128,-1,120
 1465 21 1465 21 1446 14 c 0,121,122
 1386 -6 1386 -6 1272 -8 c 0,123,124
 1047 -8 1047 -8 887 98 c 1,125,126
 803 43 803 43 731 16 c 0,127,128
 657 -8 657 -8 588 -8 c 0,129,130
 467 -4 467 -4 342 37 c 0,131,132
 215 78 215 78 133 158 c 0,133,134
 49 236 49 236 49 346 c 1,0,1
EndSplineSet
Validated: 1
EndChar

StartChar: uniE012
Encoding: 57362 57362 74
Width: 1946
GlyphClass: 2
Flags: W
LayerCount: 2
Fore
SplineSet
49 346 m 1,0,1
 56 494 56 494 106 590 c 0,2,3
 156 682 156 682 252 758 c 0,4,5
 330 817 330 817 416 854 c 0,6,7
 500 889 500 889 571 889 c 1,8,9
 647 881 647 881 694 824.5 c 128,-1,10
 741 768 741 768 741 715 c 0,11,12
 741 655 741 655 707 614 c 0,13,14
 672 571 672 571 616 571 c 0,15,16
 596 571 596 571 561 582 c 1,17,18
 561 614 561 614 543 643 c 0,19,20
 522 674 522 674 492 690 c 0,21,22
 459 709 459 709 420 709 c 0,23,24
 305 709 305 709 276 598 c 0,25,26
 270 567 270 567 270 541 c 0,27,28
 270 493 270 493 284 437 c 128,-1,29
 298 381 298 381 324 342 c 0,30,31
 379 260 379 260 449 219 c 0,32,33
 516 180 516 180 587.5 155.5 c 128,-1,34
 659 131 659 131 719 131 c 0,35,36
 780 131 780 131 819 160 c 1,37,38
 731 256 731 256 731 346 c 1,39,40
 738 494 738 494 788 590 c 0,41,42
 838 682 838 682 934 758 c 0,43,44
 1010 815 1010 815 1098 852 c 128,-1,45
 1186 889 1186 889 1255 889 c 1,46,47
 1331 881 1331 881 1378 825 c 0,48,49
 1423 768 1423 768 1423 715 c 0,50,51
 1423 655 1423 655 1389 614 c 0,52,53
 1354 571 1354 571 1298 571 c 0,54,55
 1278 571 1278 571 1243 582 c 1,56,57
 1243 614 1243 614 1225 643 c 0,58,59
 1204 674 1204 674 1174 690 c 0,60,61
 1141 709 1141 709 1102 709 c 0,62,63
 1040 709 1040 709 1006 686 c 0,64,65
 971 666 971 666 961 598 c 0,66,67
 952 559 952 559 952 539 c 0,68,69
 952 493 952 493 966 437 c 128,-1,70
 980 381 980 381 1006 342 c 0,71,72
 1061 262 1061 262 1130 219 c 0,73,74
 1303 113 1303 113 1397 113 c 0,75,76
 1489 113 1489 113 1563 227 c 0,77,78
 1630 330 1630 330 1630 489 c 0,79,80
 1630 524 1630 524 1628 543 c 0,81,82
 1618 591 1618 591 1607 609 c 128,-1,83
 1596 627 1596 627 1574.5 652.5 c 128,-1,84
 1553 678 1553 678 1536 709 c 1,85,86
 1610 735 1610 735 1682.5 790.5 c 128,-1,87
 1755 846 1755 846 1810 911 c 1,88,89
 1835 934 1835 934 1845 934 c 0,90,91
 1876 934 1876 934 1876 825 c 0,92,93
 1876 760 1876 760 1864 649 c 0,94,95
 1861 625 1861 625 1859.5 615.5 c 128,-1,96
 1858 606 1858 606 1856 592 c 128,-1,97
 1854 578 1854 578 1854 564 c 0,98,99
 1853 549 1853 549 1853 506 c 0,100,101
 1853 281 1853 281 1874 156 c 1,102,103
 1843 80 1843 80 1769 20 c 0,104,105
 1694 -39 1694 -39 1573 -68 c 1,106,107
 1554 -68 1554 -68 1548 -66 c 0,108,109
 1542 -66 1542 -66 1542 -55 c 0,110,111
 1542 -43 1542 -43 1554 -20 c 1,112,113
 1554 2 1554 2 1563 43 c 0,114,115
 1573 84 1573 84 1573 90 c 1,116,117
 1545 68 1545 68 1524 51.5 c 128,-1,118
 1503 35 1503 35 1491 29 c 0,119,120
 1456 10 1456 10 1405 2 c 128,-1,121
 1354 -6 1354 -6 1272 -8 c 0,122,123
 1047 -8 1047 -8 887 98 c 1,124,125
 803 43 803 43 731 16 c 0,126,127
 657 -8 657 -8 588 -8 c 0,128,129
 467 -4 467 -4 342 37 c 0,130,131
 215 78 215 78 133 158 c 0,132,133
 49 236 49 236 49 346 c 1,0,1
EndSplineSet
Validated: 1
EndChar

StartChar: uniE016
Encoding: 57366 57366 75
Width: 1331
GlyphClass: 2
Flags: W
LayerCount: 2
Fore
SplineSet
51 346 m 1,0,1
 59 501 59 501 109 590 c 0,2,3
 162 682 162 682 260 760 c 0,4,5
 340 819 340 819 430 856 c 0,6,7
 522 893 522 893 598 893 c 1,8,9
 653 889 653 889 692 860 c 128,-1,10
 731 831 731 831 754 795 c 0,11,12
 776 756 776 756 778 721 c 0,13,14
 778 662 778 662 741 621 c 0,15,16
 707 578 707 578 645 578 c 0,17,18
 614 578 614 578 588 586 c 1,19,20
 588 637 588 637 545 676 c 0,21,22
 500 713 500 713 440 713 c 0,23,24
 395 713 395 713 356 682 c 0,25,26
 315 649 315 649 289 600 c 1,27,28
 283 571 283 571 283 547 c 0,29,30
 283 458 283 458 311 397 c 0,31,32
 338 342 338 342 381 297 c 128,-1,33
 424 252 424 252 471 223 c 0,34,35
 537 186 537 186 609.5 168 c 128,-1,36
 682 150 682 150 748 150 c 1,37,38
 881 164 881 164 956 256 c 0,39,40
 1024 338 1024 338 1024 473 c 0,41,42
 1024 510 1024 510 1018 551 c 0,43,44
 1008 596 1008 596 997.5 615.5 c 128,-1,45
 987 635 987 635 963.5 662.5 c 128,-1,46
 940 690 940 690 926 717 c 1,47,48
 999 743 999 743 1073 799 c 0,49,50
 1145 854 1145 854 1200 920 c 0,51,52
 1223 942 1223 942 1235 942 c 0,53,54
 1266 942 1266 942 1266 834 c 0,55,56
 1266 766 1266 766 1253 657 c 0,57,58
 1247 617 1247 617 1246 607 c 128,-1,59
 1245 597 1245 597 1244 581.5 c 128,-1,60
 1243 566 1243 566 1243 514 c 0,61,62
 1243 281 1243 281 1264 164 c 1,63,64
 1235 88 1235 88 1157 31 c 1,65,66
 1081 -31 1081 -31 963 -59 c 1,67,68
 944 -59 944 -59 938 -57 c 128,-1,69
 932 -55 932 -55 932 -47 c 0,70,71
 932 -35 932 -35 944 -12 c 1,72,73
 954 37 954 37 975 135 c 1,74,75
 883 53 883 53 813 29 c 0,76,77
 729 0 729 0 623 -4 c 0,78,79
 524 -4 524 -4 424 18 c 0,80,81
 322 43 322 43 236 88 c 0,82,83
 150 135 150 135 100 201 c 0,84,85
 51 264 51 264 51 346 c 1,0,1
EndSplineSet
Validated: 1
EndChar

StartChar: uniE025
Encoding: 57381 57381 76
Width: 1434
GlyphClass: 2
Flags: W
LayerCount: 2
Fore
SplineSet
53 610 m 0,0,1
 53 721 53 721 90 811 c 1,2,3
 117 860 117 860 144.5 895 c 128,-1,4
 172 930 172 930 240 969 c 0,5,6
 305 1006 305 1006 424 1028 c 0,7,8
 541 1053 541 1053 711 1053 c 0,9,10
 750 1053 750 1053 852 1049 c 1,11,12
 1141 1020 1141 1020 1272 905 c 0,13,14
 1401 788 1401 788 1401 629 c 0,15,16
 1401 582 1401 582 1393 547 c 0,17,18
 1382 487 1382 487 1364 444 c 0,19,20
 1343 399 1343 399 1307 360 c 0,21,22
 1270 322 1270 322 1204 276 c 0,23,24
 1137 231 1137 231 1028 168 c 0,25,26
 891 88 891 88 793 18 c 0,27,28
 692 -51 692 -51 614 -129 c 0,29,30
 537 -205 537 -205 471 -289 c 0,31,32
 408 -373 408 -373 336 -492 c 0,33,34
 328 -508 328 -508 328 -516 c 0,35,36
 328 -551 328 -551 369 -575 c 0,37,38
 410 -602 410 -602 467 -602 c 1,39,40
 465 -602 465 -602 436 -670 c 0,41,42
 408 -735 408 -735 373 -780 c 0,43,44
 336 -827 336 -827 285 -827 c 0,45,46
 264 -827 264 -827 254 -823 c 0,47,48
 238 -819 238 -819 199 -811 c 0,49,50
 158 -801 158 -801 131 -778.5 c 128,-1,51
 104 -756 104 -756 104 -713 c 0,52,53
 104 -696 104 -696 115 -657 c 1,54,55
 160 -547 160 -547 229 -438 c 0,56,57
 297 -334 297 -334 410 -213 c 0,58,59
 520 -90 520 -90 675.5 41 c 128,-1,60
 831 172 831 172 1053 328 c 1,61,62
 1124 410 1124 410 1124 545 c 0,63,64
 1124 621 1124 621 1102 682 c 0,65,66
 1079 745 1079 745 1044 774 c 1,67,68
 1014 811 1014 811 934 858 c 128,-1,69
 854 905 854 905 752 938 c 0,70,71
 647 973 647 973 553 973 c 0,72,73
 424 973 424 973 348 905 c 0,74,75
 287 850 287 850 287 727 c 0,76,77
 287 678 287 678 299 631 c 0,78,79
 311 582 311 582 336 537 c 1,80,81
 465 365 465 365 543 365 c 0,82,83
 598 365 598 365 598 451 c 0,84,85
 598 473 598 473 592 506 c 0,86,87
 588 528 588 528 569 547 c 0,88,89
 553 565 553 565 522 586 c 0,90,91
 492 604 492 604 479 614 c 1,92,93
 494 625 494 625 516 643 c 0,94,95
 539 659 539 659 571 678 c 0,96,97
 604 694 604 694 641 694 c 0,98,99
 659 694 659 694 680 688 c 0,100,101
 803 643 803 643 803 545 c 0,102,103
 803 532 803 532 799 512 c 1,104,105
 799 461 799 461 754 392.5 c 128,-1,106
 709 324 709 324 666 293 c 0,107,108
 655 287 655 287 633 274 c 0,109,110
 606 260 606 260 580 250 c 0,111,112
 551 238 551 238 537 233 c 0,113,114
 494 227 494 227 459 227 c 0,115,116
 399 227 399 227 352 240 c 0,117,118
 303 254 303 254 264 272 c 0,119,120
 225 293 225 293 176 324 c 0,121,122
 119 360 119 360 86 438 c 0,123,124
 53 514 53 514 53 610 c 0,0,1
EndSplineSet
Validated: 1
EndChar

StartChar: uniE022
Encoding: 57378 57378 77
Width: 1536
GlyphClass: 2
Flags: W
LayerCount: 2
Fore
SplineSet
45 774 m 1,0,1
 45 810 45 810 59 836 c 128,-1,2
 73 862 73 862 104 901 c 0,3,4
 139 942 139 942 179.5 957.5 c 128,-1,5
 220 973 220 973 281 973 c 2,6,-1
 1503 974 l 1,7,8
 1503 912 1503 912 1446 842 c 0,9,10
 1423 813 1423 813 1394 797 c 0,11,12
 1368 780 1368 780 1337 776 c 0,13,14
 1317 774 1317 774 1265 774 c 2,15,-1
 922 774 l 1,16,17
 790 753 790 753 653.5 683.5 c 128,-1,18
 517 614 517 614 422.5 482 c 128,-1,19
 328 350 328 350 328 160 c 0,20,21
 326 138 326 138 326 127 c 0,22,23
 326 43 326 43 366 -42 c 128,-1,24
 406 -127 406 -127 459.5 -190.5 c 128,-1,25
 513 -254 513 -254 545 -274 c 1,26,27
 611 -331 611 -331 714.5 -361 c 128,-1,28
 818 -391 818 -391 932 -391 c 0,29,30
 1051 -391 1051 -391 1147 -360 c 0,31,32
 1222 -334 1222 -334 1280 -279 c 128,-1,33
 1338 -224 1338 -224 1370.5 -155 c 128,-1,34
 1403 -86 1403 -86 1403 -25 c 0,35,36
 1403 12 1403 12 1389 45 c 0,37,38
 1382 59 1382 59 1368 76 c 0,39,40
 1354 90 1354 90 1337 100 c 0,41,42
 1321 109 1321 109 1300 109 c 0,43,44
 1270 109 1270 109 1243 84 c 1,45,46
 1217 96 1217 96 1198 131 c 0,47,48
 1180 166 1180 166 1180 203 c 0,49,50
 1180 221 1180 221 1188 250 c 0,51,52
 1206 307 1206 307 1270 307 c 0,53,54
 1321 307 1321 307 1366 285 c 0,55,56
 1409 260 1409 260 1442 203 c 0,57,58
 1475 143 1475 143 1477 47 c 0,59,60
 1477 6 1477 6 1465.5 -59.5 c 128,-1,61
 1454 -125 1454 -125 1423 -195 c 0,62,63
 1412 -218 1412 -218 1399.5 -236.5 c 128,-1,64
 1387 -255 1387 -255 1370.5 -275.5 c 128,-1,65
 1354 -296 1354 -296 1339 -315 c 0,66,67
 1302 -365 1302 -365 1213 -414 c 128,-1,68
 1124 -463 1124 -463 1007 -493.5 c 128,-1,69
 890 -524 890 -524 775 -524 c 0,70,71
 663 -524 663 -524 567 -494 c 1,72,73
 436 -466 436 -466 324 -395.5 c 128,-1,74
 212 -325 212 -325 160 -229 c 0,75,76
 78 -78 78 -78 78 88 c 0,77,78
 78 199 78 199 112 295 c 128,-1,79
 146 391 146 391 205 459 c 1,80,81
 279 572 279 572 388.5 644.5 c 128,-1,82
 498 717 498 717 668 774 c 1,83,-1
 45 774 l 1,0,1
EndSplineSet
Validated: 1
EndChar

StartChar: uniE026
Encoding: 57382 57382 78
Width: 1434
GlyphClass: 2
Flags: W
LayerCount: 2
Fore
SplineSet
57 -377 m 0,0,1
 57 -277 57 -277 111 -197 c 0,2,3
 131 -166 131 -166 149.5 -138 c 128,-1,4
 168 -110 168 -110 188 -88 c 128,-1,5
 208 -66 208 -66 238 -45 c 0,6,7
 333 25 333 25 348 33 c 0,8,9
 428 74 428 74 455 82 c 0,10,11
 525 101 525 101 575 106 c 1,12,13
 301 190 301 190 180 309 c 0,14,15
 59 426 59 426 59 580 c 1,16,17
 70 702 70 702 184 811 c 0,18,19
 299 920 299 920 484.5 1024 c 128,-1,20
 670 1128 670 1128 846 1229 c 0,21,22
 1022 1327 1022 1327 1100 1405 c 0,23,24
 1147 1452 1147 1452 1147 1495 c 0,25,26
 1147 1542 1147 1542 1096 1579 c 1,27,28
 1042 1612 1042 1612 989 1612 c 1,29,30
 1036 1667 1036 1667 1075 1690 c 0,31,32
 1114 1710 1114 1710 1194 1710 c 1,33,34
 1229 1706 1229 1706 1255 1675 c 0,35,36
 1282 1645 1282 1645 1288 1599 c 1,37,38
 1288 1460 1288 1460 1176 1360 c 0,39,40
 1061 1255 1061 1255 836 1126 c 0,41,42
 608 997 608 997 485 897 c 0,43,44
 362 799 362 799 338 664 c 0,45,46
 330 614 330 614 330 594 c 0,47,48
 330 504 330 504 381 430 c 0,49,50
 430 356 430 356 520 305 c 128,-1,51
 610 254 610 254 727 225 c 1,52,53
 784 217 784 217 844 217 c 0,54,55
 981 217 981 217 1053 258 c 0,56,57
 1110 295 1110 295 1126 375 c 0,58,59
 1143 455 1143 455 1143 547 c 1,60,61
 1130 610 1130 610 1085 675.5 c 128,-1,62
 1040 741 1040 741 999 741 c 1,63,64
 977 752 977 752 952 752 c 0,65,66
 924 752 924 752 906.5 734.5 c 128,-1,67
 889 717 889 717 881 688 c 0,68,69
 870 659 870 659 868 637 c 0,70,71
 864 612 864 612 862 596 c 1,72,73
 846 592 846 592 819 592 c 0,74,75
 772 592 772 592 735 615.5 c 128,-1,76
 698 639 698 639 690 678 c 1,77,78
 690 743 690 743 719 782 c 0,79,80
 748 819 748 819 844 850 c 1,81,82
 891 860 891 860 940 860 c 0,83,84
 1022 860 1022 860 1102 840 c 0,85,86
 1184 819 1184 819 1233 786 c 0,87,88
 1309 737 1309 737 1343 670 c 0,89,90
 1376 600 1376 600 1376 498 c 0,91,92
 1376 455 1376 455 1374 432 c 0,93,94
 1346 307 1346 307 1266 238 c 0,95,96
 1184 168 1184 168 1004 139 c 0,97,98
 800 109 800 109 655 53 c 128,-1,99
 510 -3 510 -3 426 -79 c 128,-1,100
 342 -155 342 -155 324 -242 c 1,101,102
 307 -286 307 -286 307 -356 c 0,103,104
 307 -424 307 -424 336 -486.5 c 128,-1,105
 365 -549 365 -549 422 -594 c 1,106,107
 479 -645 479 -645 545 -676 c 0,108,109
 612 -706 612 -706 700 -721 c 0,110,111
 741 -729 741 -729 844 -729 c 0,112,113
 973 -729 973 -729 1063 -678 c 0,114,115
 1114 -646 1114 -646 1135 -582 c 0,116,117
 1163 -503 1163 -503 1163 -434 c 0,118,119
 1163 -397 1163 -397 1143 -322 c 1,120,121
 1114 -266 1114 -266 1092 -238 c 0,122,123
 1054 -195 1054 -195 1024 -184 c 1,124,125
 1004 -172 1004 -172 965 -172 c 0,126,127
 891 -172 891 -172 862 -326 c 1,128,129
 850 -330 850 -330 819 -330 c 0,130,131
 774 -330 774 -330 737 -305 c 0,132,133
 702 -283 702 -283 690 -244 c 0,134,135
 682 -225 682 -225 682 -217 c 0,136,137
 682 -158 682 -158 774 -96 c 0,138,139
 797 -82 797 -82 844 -74 c 0,140,141
 897 -63 897 -63 977 -63 c 0,142,143
 1147 -63 1147 -63 1229 -117 c 0,144,145
 1298 -162 1298 -162 1341 -240 c 0,146,147
 1386 -317 1386 -317 1386 -406 c 0,148,149
 1386 -449 1386 -449 1374 -492 c 0,150,151
 1343 -588 1343 -588 1274 -651 c 0,152,153
 1204 -717 1204 -717 1038 -772 c 0,154,155
 874 -827 874 -827 713 -827 c 0,156,157
 643 -827 643 -827 575 -815 c 1,158,159
 477 -809 477 -809 385 -768 c 0,160,161
 293 -729 293 -729 215 -666 c 0,162,163
 135 -600 135 -600 92 -526 c 0,164,165
 57 -464 57 -464 57 -377 c 0,0,1
EndSplineSet
Validated: 1
EndChar

StartChar: uniE02A
Encoding: 57386 57386 79
Width: 1331
GlyphClass: 2
Flags: W
LayerCount: 2
Fore
SplineSet
82 127 m 0,0,1
 82 170 82 170 119 201 c 0,2,3
 154 231 154 231 197 231 c 0,4,5
 213 231 213 231 229 225 c 1,6,7
 256 178 256 178 324 168 c 1,8,9
 354 174 354 174 383 207 c 0,10,11
 406 230 406 230 422 254 c 2,12,-1
 586 586 l 1,13,14
 586 616 586 616 461 813 c 1,15,16
 414 854 414 854 367 854 c 0,17,18
 309 854 309 854 213 782 c 1,19,-1
 356 969 l 2,20,21
 385 1006 385 1006 432 1006 c 0,22,23
 487 1006 487 1006 528 987 c 0,24,25
 569 969 569 969 608 924 c 128,-1,26
 647 879 647 879 700 793 c 0,27,28
 730 747 730 747 809 616 c 0,29,30
 842 560 842 560 883.5 476 c 128,-1,31
 925 392 925 392 940 369 c 0,32,33
 968 327 968 327 979 310.5 c 128,-1,34
 990 294 990 294 1012 264.5 c 128,-1,35
 1034 235 1034 235 1044 225 c 0,36,37
 1112 152 1112 152 1202 96 c 0,38,39
 1274 53 1274 53 1304.5 43 c 128,-1,40
 1335 33 1335 33 1409 20 c 1,41,-1
 1161 -43 l 1,42,43
 1081 -31 1081 -31 1001 31 c 0,44,45
 922 90 922 90 852 172 c 0,46,47
 829 197 829 197 805 232.5 c 128,-1,48
 781 268 781 268 761.5 298 c 128,-1,49
 742 328 742 328 721 360 c 0,50,51
 698 394 698 394 670 451.5 c 128,-1,52
 642 509 642 509 635 520 c 1,53,54
 608 471 608 471 575 403 c 0,55,56
 541 338 541 338 512 283 c 0,57,58
 481 227 481 227 444 164 c 0,59,60
 336 -31 336 -31 231 -31 c 0,61,62
 205 -31 205 -31 174 -18 c 0,63,64
 133 0 133 0 109 43 c 1,65,66
 82 82 82 82 82 127 c 0,0,1
EndSplineSet
Validated: 1
EndChar

StartChar: uniE023
Encoding: 57379 57379 80
Width: 1536
GlyphClass: 2
Flags: W
LayerCount: 2
Fore
SplineSet
45 774 m 1,0,1
 45 810 45 810 59 836 c 128,-1,2
 73 862 73 862 104 901 c 0,3,4
 139 942 139 942 179.5 958 c 128,-1,5
 220 974 220 974 281 973 c 2,6,-1
 1503 974 l 1,7,8
 1503 912 1503 912 1446 842 c 0,9,10
 1423 813 1423 813 1394 797 c 0,11,12
 1368 780 1368 780 1337 776 c 0,13,14
 1317 774 1317 774 1265 774 c 2,15,-1
 922 774 l 1,16,17
 717 744 717 744 631 668 c 0,18,19
 557 603 557 603 557 504 c 0,20,21
 557 443 557 443 605 404 c 128,-1,22
 653 365 653 365 733 365 c 0,23,24
 773 368 773 368 869 393 c 128,-1,25
 965 418 965 418 1024 418 c 0,26,27
 1215 418 1215 418 1319 349.5 c 128,-1,28
 1423 281 1423 281 1456 195 c 128,-1,29
 1489 109 1489 109 1491 37 c 0,30,31
 1491 -73 1491 -73 1435 -138 c 128,-1,32
 1379 -203 1379 -203 1298 -250 c 1,33,34
 1249 -292 1249 -292 1147 -317 c 128,-1,35
 1045 -342 1045 -342 918 -353.5 c 128,-1,36
 791 -365 791 -365 672 -365 c 0,37,38
 520 -365 520 -365 463 -352 c 0,39,40
 356 -329 356 -329 273 -296 c 128,-1,41
 190 -263 190 -263 137 -206.5 c 128,-1,42
 84 -150 84 -150 84 -61 c 1,43,44
 111 25 111 25 168 82 c 128,-1,45
 225 139 225 139 274 139 c 1,46,-1
 526 23 l 1,47,48
 401 23 401 23 381 -74 c 1,49,50
 381 -152 381 -152 448.5 -196.5 c 128,-1,51
 516 -241 516 -241 639 -266 c 0,52,53
 688 -272 688 -272 780 -272 c 0,54,55
 909 -272 909 -272 995 -254 c 0,56,57
 1073 -238 1073 -238 1125 -191.5 c 128,-1,58
 1177 -145 1177 -145 1203 -79.5 c 128,-1,59
 1229 -14 1229 -14 1229 61 c 1,60,61
 1225 112 1225 112 1196 169 c 128,-1,62
 1167 226 1167 226 1101 271 c 128,-1,63
 1035 316 1035 316 926 324 c 0,64,65
 890 324 890 324 824 310 c 128,-1,66
 758 296 758 296 725 291 c 0,67,68
 632 274 632 274 582 274 c 0,69,70
 436 274 436 274 385 340 c 0,71,72
 318 427 318 427 318 504 c 0,73,74
 318 588 318 588 397 664 c 1,75,76
 463 710 463 710 530 742 c 128,-1,77
 597 774 597 774 668 774 c 2,78,-1
 45 774 l 1,0,1
EndSplineSet
Validated: 33
EndChar

StartChar: uniE017
Encoding: 57367 57367 81
Width: 1331
GlyphClass: 2
Flags: W
LayerCount: 2
Fore
SplineSet
50 380 m 0,0,1
 50 441 50 441 69.5 501.5 c 128,-1,2
 89 562 89 562 123 606 c 1,3,4
 156 662 156 662 211 705 c 0,5,6
 262 745 262 745 336 766 c 1,7,-1
 51 765 l 1,8,9
 51 801 51 801 65 830.5 c 128,-1,10
 79 860 79 860 109 897 c 0,11,12
 143 938 143 938 183.5 953 c 128,-1,13
 224 968 224 968 285 969 c 2,14,-1
 1231 970 l 1,15,16
 1260 932 1260 932 1260 850 c 0,17,18
 1260 809 1260 809 1253 760 c 0,19,20
 1243 664 1243 664 1243 514 c 0,21,22
 1243 281 1243 281 1264 164 c 1,23,24
 1235 88 1235 88 1157 31 c 1,25,26
 1081 -31 1081 -31 963 -59 c 1,27,28
 944 -59 944 -59 938 -57 c 128,-1,29
 932 -55 932 -55 932 -47 c 0,30,31
 932 -35 932 -35 944 -12 c 1,32,33
 954 37 954 37 975 135 c 1,34,35
 883 53 883 53 813 29 c 0,36,37
 729 0 729 0 623 -4 c 0,38,39
 524 -4 524 -4 424 18 c 0,40,41
 322 43 322 43 236 88 c 0,42,43
 150 135 150 135 100 201 c 1,44,45
 50 279 50 279 50 380 c 0,0,1
283 526 m 0,46,47
 283 458 283 458 311 397 c 0,48,49
 338 342 338 342 381 297 c 128,-1,50
 424 252 424 252 471 223 c 0,51,52
 537 186 537 186 609.5 168 c 128,-1,53
 682 150 682 150 748 150 c 1,54,55
 881 164 881 164 956 256 c 0,56,57
 1024 338 1024 338 1024 473 c 0,58,59
 1024 510 1024 510 1018 551 c 0,60,61
 1001 627 1001 627 989 672 c 128,-1,62
 977 717 977 717 948 770 c 1,63,-1
 793 764 l 2,64,65
 567 756 567 756 436 715 c 128,-1,66
 305 674 305 674 289 580 c 0,67,68
 283 553 283 553 283 526 c 0,46,47
EndSplineSet
Validated: 1
EndChar

StartChar: uniE029
Encoding: 57385 57385 82
Width: 1331
GlyphClass: 2
Flags: W
LayerCount: 2
Fore
SplineSet
51 356 m 0,0,1
 51 575 51 575 260 739 c 0,2,3
 307 776 307 776 377 809 c 0,4,5
 444 842 444 842 514 858 c 0,6,7
 582 874 582 874 647 874 c 0,8,9
 897 866 897 866 1044 770 c 1,10,11
 1044 891 1044 891 1040 961 c 0,12,13
 1038 1030 1038 1030 1026 1108 c 0,14,15
 1016 1186 1016 1186 991 1257 c 0,16,17
 967 1331 967 1331 930 1393 c 1,18,19
 999 1417 999 1417 1073 1473 c 0,20,21
 1149 1528 1149 1528 1204 1595 c 0,22,23
 1227 1618 1227 1618 1239 1618 c 0,24,25
 1270 1618 1270 1618 1270 1509 c 0,26,27
 1270 1440 1270 1440 1257 1333 c 1,28,29
 1249 1081 1249 1081 1249 451 c 0,30,31
 1251 342 1251 342 1253 266 c 256,32,33
 1255 190 1255 190 1260 121 c 0,34,35
 1268 -2 1268 -2 1276 -57 c 1,36,37
 1387 -77 1387 -77 1479 -77 c 0,38,39
 1529 -77 1529 -77 1561 -70 c 1,40,41
 1561 -110 1561 -110 1545.5 -151.5 c 128,-1,42
 1530 -193 1530 -193 1503 -223 c 1,43,44
 1426 -283 1426 -283 1294 -283 c 0,45,46
 1209 -283 1209 -283 1122 -259.5 c 128,-1,47
 1035 -236 1035 -236 1008 -217 c 0,48,49
 946 -171 946 -171 946 -96 c 0,50,51
 946 -87 946 -87 948 -69 c 0,52,53
 951 -56 951 -56 959 21 c 128,-1,54
 967 98 967 98 975 135 c 1,55,56
 897 70 897 70 813 39 c 128,-1,57
 729 8 729 8 623 6 c 1,58,59
 465 14 465 14 354 45 c 0,60,61
 244 74 244 74 176 121 c 0,62,63
 109 168 109 168 82 227 c 0,64,65
 53 287 53 287 51 356 c 0,0,1
283 526 m 0,66,67
 283 465 283 465 310.5 407.5 c 128,-1,68
 338 350 338 350 381 305 c 128,-1,69
 424 260 424 260 471 233 c 0,70,71
 537 197 537 197 610 178 c 0,72,73
 682 160 682 160 748 160 c 1,74,75
 891 170 891 170 963 270 c 0,76,77
 993 317 993 317 993 375 c 0,78,79
 993 432 993 432 963 485 c 0,80,81
 930 539 930 539 887 580 c 0,82,83
 842 621 842 621 795 647 c 0,84,85
 752 672 752 672 705 688 c 0,86,87
 657 707 657 707 610 715 c 128,-1,88
 563 723 563 723 522 723 c 0,89,90
 444 721 444 721 379 686 c 0,91,92
 311 651 311 651 289 580 c 0,93,94
 283 553 283 553 283 526 c 0,66,67
EndSplineSet
Validated: 1
EndChar

StartChar: uniEC31
Encoding: 60465 60465 83
Width: 2
GlyphClass: 2
Flags: W
LayerCount: 2
Fore
SplineSet
-1087 1094 m 1,0,1
 -1077 1124 -1077 1124 -1044 1184 c 0,2,3
 -1010 1243 -1010 1243 -938 1302.5 c 128,-1,4
 -866 1362 -866 1362 -768 1362 c 0,5,6
 -688 1362 -688 1362 -598 1315 c 0,7,8
 -506 1268 -506 1268 -442 1268 c 0,9,10
 -393 1268 -393 1268 -338 1292 c 0,11,12
 -283 1317 -283 1317 -213 1368 c 1,13,14
 -262 1237 -262 1237 -330 1171 c 0,15,16
 -397 1106 -397 1106 -489 1106 c 0,17,18
 -543 1106 -543 1106 -618 1135 c 0,19,20
 -694 1167 -694 1167 -725 1180 c 0,21,22
 -758 1192 -758 1192 -803 1192 c 0,23,24
 -903 1192 -903 1192 -1087 1094 c 1,0,1
EndSplineSet
Validated: 1
EndChar

StartChar: uniE001
Encoding: 57345 57345 84
Width: 1331
GlyphClass: 2
Flags: W
LayerCount: 2
Fore
SplineSet
47 717 m 1,0,1
 121 743 121 743 195 799 c 0,2,3
 266 852 266 852 322 920 c 0,4,5
 344 942 344 942 356 942 c 0,6,7
 385 942 385 942 385 840 c 0,8,9
 385 820 385 820 381 810 c 128,-1,10
 377 800 377 800 373 760 c 1,11,12
 393 774 393 774 411.5 787 c 128,-1,13
 430 800 430 800 447.5 811 c 128,-1,14
 465 822 465 822 485 831 c 0,15,16
 539 854 539 854 592 866 c 0,17,18
 643 877 643 877 707 877 c 0,19,20
 836 872 836 872 969 831 c 0,21,22
 1100 791 1100 791 1188 713 c 0,23,24
 1276 633 1276 633 1276 522 c 0,25,26
 1276 427 1276 427 1239 342 c 0,27,28
 1202 258 1202 258 1143 197 c 0,29,30
 1084 138 1084 138 1006 113 c 1,31,-1
 1277 113 l 1,32,33
 1277 34 1277 34 1229 -27 c 0,34,35
 1208 -53 1208 -53 1182 -68 c 0,36,37
 1153 -84 1153 -84 1122 -86 c 1,38,39
 1094 -92 1094 -92 1055 -92 c 2,40,-1
 360 -92 l 1,41,42
 362 -205 362 -205 365 -315 c 0,43,44
 367 -426 367 -426 371 -522 c 0,45,46
 373 -623 373 -623 379 -778 c 1,47,48
 350 -854 350 -854 274 -913 c 0,49,50
 199 -975 199 -975 80 -1001 c 1,51,52
 61 -1001 61 -1001 55 -999 c 128,-1,53
 49 -997 49 -997 49 -989 c 0,54,55
 49 -979 49 -979 59 -954 c 0,56,57
 106 -795 106 -795 133 -602 c 0,58,59
 162 -412 162 -412 170 -252 c 0,60,61
 180 -92 180 -92 180 0 c 2,62,-1
 180 51 l 2,63,64
 180 218 180 218 165 336.5 c 128,-1,65
 150 455 150 455 123 538.5 c 128,-1,66
 96 622 96 622 47 717 c 1,0,1
360 113 m 1,67,-1
 553 113 l 1,68,69
 735 117 735 117 836 133 c 0,70,71
 936 152 936 152 975 186 c 0,72,73
 1016 221 1016 221 1036 291 c 0,74,75
 1042 317 1042 317 1042 346 c 0,76,77
 1042 410 1042 410 1016 473 c 1,78,79
 987 532 987 532 946 578 c 0,80,81
 903 623 903 623 856 649 c 0,82,83
 793 686 793 686 719 707 c 0,84,85
 643 725 643 725 582 725 c 1,86,87
 516 716 516 716 451 664 c 0,88,89
 406 627 406 627 387 573 c 0,90,91
 371 518 371 518 360 440 c 1,92,-1
 360 113 l 1,67,-1
EndSplineSet
Validated: 1
EndChar

StartChar: uniE00D
Encoding: 57357 57357 85
Width: 1946
GlyphClass: 2
Flags: W
LayerCount: 2
Fore
SplineSet
51 -33 m 0,0,1
 51 -25 51 -25 68 -12 c 1,2,3
 111 131 111 131 137 233 c 0,4,5
 164 338 164 338 170 381 c 0,6,7
 176 426 176 426 188 532 c 0,8,9
 195 575 195 575 195 664 c 0,10,11
 195 848 195 848 164 1051 c 1,12,13
 129 1251 129 1251 55 1393 c 1,14,15
 123 1415 123 1415 199 1473 c 0,16,17
 274 1528 274 1528 330 1595 c 0,18,19
 350 1618 350 1618 365 1618 c 0,20,21
 393 1618 393 1618 393 1516 c 0,22,23
 393 1448 393 1448 381 1333 c 1,24,25
 369 956 369 956 369 725 c 1,26,27
 428 806 428 806 512 842 c 0,28,29
 604 877 604 877 680 877 c 0,30,31
 918 868 918 868 1065 770 c 1,32,33
 1225 877 1225 877 1364 877 c 1,34,35
 1485 872 1485 872 1610 831 c 0,36,37
 1735 791 1735 791 1819 713 c 0,38,39
 1903 633 1903 633 1903 522 c 0,40,41
 1903 446 1903 446 1887 381 c 128,-1,42
 1871 316 1871 316 1841 268 c 0,43,44
 1786 178 1786 178 1661 113 c 1,45,-1
 1897 113 l 1,46,47
 1897 49 1897 49 1851 -20 c 0,48,49
 1821 -61 1821 -61 1784 -78 c 0,50,51
 1745 -92 1745 -92 1688 -92 c 2,52,-1
 362 -92 l 2,53,54
 264 -92 264 -92 158 -76 c 0,55,56
 51 -59 51 -59 51 -33 c 0,0,1
358 113 m 1,57,-1
 631 115 l 2,58,59
 649 113 649 113 686 113 c 0,60,61
 799 113 799 113 887 160 c 0,62,63
 973 205 973 205 991 291 c 0,64,65
 999 332 999 332 999 350 c 0,66,67
 999 415 999 415 973 475 c 0,68,69
 946 532 946 532 905 580 c 0,70,71
 862 625 862 625 821 649 c 0,72,73
 647 756 647 756 555 756 c 1,74,75
 500 748 500 748 467 721 c 0,76,77
 439 698 439 698 414 641 c 0,78,79
 395 598 395 598 391 571 c 0,80,81
 387 545 387 545 373 451 c 0,82,83
 365 385 365 385 360 305 c 0,84,85
 358 223 358 223 358 113 c 1,57,-1
997 113 m 1,86,-1
 1391 113 l 2,87,88
 1479 113 1479 113 1532 125 c 0,89,90
 1585 133 1585 133 1622 174 c 0,91,92
 1659 213 1659 213 1673 291 c 0,93,94
 1681 332 1681 332 1681 352 c 0,95,96
 1681 451 1681 451 1626 530 c 0,97,98
 1573 610 1573 610 1503 649 c 0,99,100
 1346 737 1346 737 1233 737 c 0,101,102
 1169 737 1169 737 1133 709 c 1,103,104
 1219 610 1219 610 1221 522 c 0,105,106
 1221 479 1221 479 1214.5 435 c 128,-1,107
 1208 391 1208 391 1197 357 c 128,-1,108
 1186 323 1186 323 1165 287 c 0,109,110
 1108 190 1108 190 997 113 c 1,86,-1
EndSplineSet
Validated: 1
EndChar

StartChar: uniE006
Encoding: 57350 57350 86
Width: 1946
GlyphClass: 2
Flags: W
LayerCount: 2
Fore
SplineSet
49 346 m 1,0,1
 56 494 56 494 106 590 c 0,2,3
 156 682 156 682 252 758 c 0,4,5
 330 817 330 817 416 854 c 0,6,7
 500 889 500 889 571 889 c 1,8,9
 647 881 647 881 694 824.5 c 128,-1,10
 741 768 741 768 741 715 c 0,11,12
 741 655 741 655 707 614 c 0,13,14
 672 571 672 571 616 571 c 0,15,16
 596 571 596 571 561 582 c 1,17,18
 561 614 561 614 543 643 c 0,19,20
 522 674 522 674 492 690 c 0,21,22
 459 709 459 709 420 709 c 0,23,24
 305 709 305 709 276 598 c 0,25,26
 270 567 270 567 270 541 c 0,27,28
 270 493 270 493 284 437 c 128,-1,29
 298 381 298 381 324 342 c 0,30,31
 379 260 379 260 449 219 c 0,32,33
 516 180 516 180 587.5 155.5 c 128,-1,34
 659 131 659 131 719 131 c 0,35,36
 780 131 780 131 819 160 c 1,37,38
 731 256 731 256 731 346 c 1,39,40
 738 494 738 494 788 590 c 0,41,42
 838 682 838 682 934 758 c 0,43,44
 1010 815 1010 815 1098 852 c 128,-1,45
 1186 889 1186 889 1255 889 c 1,46,47
 1331 881 1331 881 1378 825 c 0,48,49
 1423 768 1423 768 1423 715 c 0,50,51
 1423 655 1423 655 1389 614 c 0,52,53
 1354 571 1354 571 1298 571 c 0,54,55
 1278 571 1278 571 1243 582 c 1,56,57
 1243 614 1243 614 1225 643 c 0,58,59
 1204 674 1204 674 1174 690 c 0,60,61
 1141 709 1141 709 1102 709 c 0,62,63
 1040 709 1040 709 1006 686 c 0,64,65
 971 666 971 666 961 598 c 0,66,67
 952 559 952 559 952 539 c 0,68,69
 952 493 952 493 966 437 c 128,-1,70
 980 381 980 381 1006 342 c 0,71,72
 1061 262 1061 262 1130 219 c 0,73,74
 1303 113 1303 113 1397 113 c 0,75,76
 1495 113 1495 113 1562.5 217 c 128,-1,77
 1630 321 1630 321 1630 489 c 0,78,79
 1630 524 1630 524 1628 543 c 0,80,81
 1618 591 1618 591 1607 609 c 128,-1,82
 1596 627 1596 627 1574.5 652.5 c 128,-1,83
 1553 678 1553 678 1536 709 c 1,84,85
 1610 735 1610 735 1682.5 790.5 c 128,-1,86
 1755 846 1755 846 1810 911 c 1,87,88
 1835 934 1835 934 1845 934 c 0,89,90
 1876 934 1876 934 1876 825 c 0,91,92
 1876 760 1876 760 1864 649 c 0,93,94
 1858 626 1858 626 1854.5 619 c 128,-1,95
 1851 612 1851 612 1849 565 c 0,96,97
 1843 444 1843 444 1843 264 c 0,98,99
 1843 100 1843 100 1847 -86 c 0,100,101
 1849 -270 1849 -270 1858 -471 c 0,102,103
 1866 -674 1866 -674 1870 -786 c 1,104,105
 1839 -862 1839 -862 1765 -922 c 0,106,107
 1690 -981 1690 -981 1571 -1010 c 1,108,109
 1538 -1010 1538 -1010 1538 -997 c 0,110,111
 1538 -983 1538 -983 1550 -963 c 1,112,113
 1597 -805 1597 -805 1624 -612 c 0,114,115
 1653 -420 1653 -420 1663 -260 c 0,116,117
 1671 -100 1671 -100 1671 -8 c 0,118,119
 1671 113 1671 113 1667 205 c 1,120,121
 1638 162 1638 162 1614 128.5 c 128,-1,122
 1590 95 1590 95 1569 78 c 0,123,124
 1516 33 1516 33 1448 14 c 0,125,126
 1378 -6 1378 -6 1272 -8 c 0,127,128
 1047 -8 1047 -8 887 98 c 1,129,130
 803 43 803 43 731 16 c 0,131,132
 657 -8 657 -8 588 -8 c 0,133,134
 467 -4 467 -4 342 37 c 0,135,136
 215 78 215 78 133 158 c 0,137,138
 49 236 49 236 49 346 c 1,0,1
EndSplineSet
Validated: 1
EndChar

StartChar: uniE011
Encoding: 57361 57361 87
Width: 1946
GlyphClass: 2
Flags: W
LayerCount: 2
Fore
SplineSet
51 -33 m 0,0,1
 51 -25 51 -25 68 -12 c 1,2,3
 86 49 86 49 102 131 c 0,4,5
 119 213 119 213 131 311 c 0,6,7
 143 410 143 410 143 500 c 0,8,9
 143 554 143 554 137.5 591.5 c 128,-1,10
 132 629 132 629 122.5 647 c 128,-1,11
 113 665 113 665 103 674.5 c 128,-1,12
 93 684 93 684 55 717 c 1,13,14
 127 741 127 741 201 799 c 0,15,16
 274 854 274 854 330 920 c 0,17,18
 352 942 352 942 365 942 c 0,19,20
 393 942 393 942 393 840 c 0,21,22
 393 820 393 820 389 810 c 128,-1,23
 385 800 385 800 381 760 c 1,24,25
 459 831 459 831 522 852 c 0,26,27
 602 877 602 877 680 877 c 0,28,29
 918 868 918 868 1065 770 c 1,30,31
 1225 877 1225 877 1364 877 c 1,32,33
 1485 872 1485 872 1610 831 c 0,34,35
 1735 791 1735 791 1819 713 c 0,36,37
 1903 633 1903 633 1903 522 c 0,38,39
 1903 446 1903 446 1887 381 c 128,-1,40
 1871 316 1871 316 1841 268 c 0,41,42
 1783 173 1783 173 1667 113 c 1,43,-1
 1897 113 l 1,44,45
 1897 49 1897 49 1851 -20 c 0,46,47
 1821 -61 1821 -61 1784 -78 c 0,48,49
 1745 -92 1745 -92 1688 -92 c 2,50,-1
 362 -92 l 2,51,52
 264 -92 264 -92 158 -76 c 0,53,54
 51 -59 51 -59 51 -33 c 0,0,1
358 113 m 1,55,-1
 631 115 l 2,56,57
 649 113 649 113 686 113 c 0,58,59
 799 113 799 113 887 160 c 0,60,61
 973 205 973 205 991 291 c 0,62,63
 999 332 999 332 999 350 c 0,64,65
 999 415 999 415 973 475 c 0,66,67
 946 532 946 532 905 580 c 0,68,69
 862 625 862 625 821 649 c 0,70,71
 647 756 647 756 555 756 c 1,72,73
 500 748 500 748 467 721 c 0,74,75
 439 698 439 698 414 641 c 0,76,77
 395 598 395 598 391 571 c 0,78,79
 387 545 387 545 373 451 c 0,80,81
 365 385 365 385 360 305 c 0,82,83
 358 223 358 223 358 113 c 1,55,-1
997 113 m 1,84,-1
 1391 113 l 2,85,86
 1479 113 1479 113 1532 125 c 0,87,88
 1585 133 1585 133 1622 174 c 0,89,90
 1659 213 1659 213 1673 291 c 0,91,92
 1681 332 1681 332 1681 352 c 0,93,94
 1681 451 1681 451 1626 530 c 0,95,96
 1573 610 1573 610 1503 649 c 0,97,98
 1346 737 1346 737 1233 737 c 0,99,100
 1169 737 1169 737 1133 709 c 1,101,102
 1219 610 1219 610 1221 522 c 0,103,104
 1221 479 1221 479 1214.5 435 c 128,-1,105
 1208 391 1208 391 1197 357 c 128,-1,106
 1186 323 1186 323 1165 287 c 0,107,108
 1108 190 1108 190 997 113 c 1,84,-1
EndSplineSet
Validated: 1
EndChar

StartChar: uniE021
Encoding: 57377 57377 88
Width: 1331
GlyphClass: 2
Flags: W
LayerCount: 2
Fore
SplineSet
12 803 m 1,0,-1
 246 905 l 1,1,2
 271 905 271 905 304 891 c 128,-1,3
 337 877 337 877 363 851 c 128,-1,4
 389 825 389 825 401 788 c 1,5,-1
 770 154 l 1,6,7
 918 277 918 277 975 329 c 128,-1,8
 1032 381 1032 381 1057.5 418 c 128,-1,9
 1083 455 1083 455 1083 494 c 0,10,11
 1083 518 1083 518 1061 604 c 1,12,13
 1039 662 1039 662 1013 698 c 128,-1,14
 987 734 987 734 962 751 c 128,-1,15
 937 768 937 768 910 777 c 128,-1,16
 883 786 883 786 842 795 c 1,17,-1
 1079 895 l 2,18,19
 1107 905 1107 905 1124 905 c 0,20,21
 1202 905 1202 905 1255 811 c 0,22,23
 1307 719 1307 719 1307 625 c 0,24,25
 1307 600 1307 600 1298 571 c 1,26,27
 1287 503 1287 503 1230.5 428.5 c 128,-1,28
 1174 354 1174 354 1092 280 c 128,-1,29
 1010 206 1010 206 909 126.5 c 128,-1,30
 808 47 808 47 655 -72 c 0,31,32
 602 -114 602 -114 579.5 -134.5 c 128,-1,33
 557 -155 557 -155 519.5 -191 c 128,-1,34
 482 -227 482 -227 434 -270 c 0,35,36
 401 -298 401 -298 363.5 -364.5 c 128,-1,37
 326 -431 326 -431 326 -494 c 0,38,39
 326 -544 326 -544 354 -582 c 0,40,41
 444 -702 444 -702 565 -758 c 1,42,43
 452 -863 452 -863 322 -922 c 1,44,45
 305 -903 305 -903 251.5 -847 c 128,-1,46
 198 -791 198 -791 176.5 -763.5 c 128,-1,47
 155 -736 155 -736 133 -688 c 0,48,49
 109 -636 109 -636 109 -582 c 0,50,51
 109 -409 109 -409 324 -217 c 0,52,53
 545 -19 545 -19 580 10 c 1,54,-1
 451 238 l 1,55,56
 385 184 385 184 342.5 150.5 c 128,-1,57
 300 117 300 117 272 92 c 0,58,59
 268 89 268 89 257.5 81.5 c 128,-1,60
 247 74 247 74 238 66 c 128,-1,61
 229 58 229 58 223 47.5 c 128,-1,62
 217 37 217 37 217 25 c 0,63,64
 217 8 217 8 231 -12 c 0,65,66
 240 -22 240 -22 245.5 -28 c 128,-1,67
 251 -34 251 -34 267.5 -39.5 c 128,-1,68
 284 -45 284 -45 289 -47 c 1,69,70
 222 -108 222 -108 166 -129 c 1,71,72
 151 -111 151 -111 142.5 -103 c 128,-1,73
 134 -95 134 -95 132.5 -91.5 c 128,-1,74
 131 -88 131 -88 121 -66 c 0,75,76
 100 -19 100 -19 100 8 c 0,77,78
 100 39 100 39 117.5 67.5 c 128,-1,79
 135 96 135 96 178 135 c 0,80,81
 207 162 207 162 401 319 c 1,82,-1
 221 618 l 2,83,84
 183 682 183 682 156.5 718.5 c 128,-1,85
 130 755 130 755 111 769.5 c 128,-1,86
 92 784 92 784 75.5 788 c 128,-1,87
 59 792 59 792 12 803 c 1,0,-1
EndSplineSet
Validated: 1
EndChar

StartChar: uniE00F
Encoding: 57359 57359 89
Width: 1946
GlyphClass: 2
Flags: W
LayerCount: 2
Fore
SplineSet
41 766 m 1,0,1
 41 799 41 799 54.5 824 c 128,-1,2
 68 849 68 849 100 893 c 0,3,4
 135 936 135 936 176 950 c 0,5,6
 217 965 217 965 276 965 c 2,7,-1
 1655 971 l 1,8,9
 1632 1235 1632 1235 1540 1393 c 1,10,11
 1610 1417 1610 1417 1683 1473 c 0,12,13
 1757 1526 1757 1526 1815 1595 c 0,14,15
 1835 1618 1835 1618 1849 1618 c 0,16,17
 1880 1618 1880 1618 1880 1509 c 0,18,19
 1880 1444 1880 1444 1868 1333 c 1,20,21
 1860 1081 1860 1081 1860 451 c 0,22,23
 1862 369 1862 369 1864 338 c 0,24,25
 1864 307 1864 307 1866 254 c 0,26,27
 1870 201 1870 201 1874 164 c 1,28,29
 1843 88 1843 88 1769 31 c 0,30,31
 1694 -29 1694 -29 1573 -59 c 1,32,33
 1554 -59 1554 -59 1548 -57 c 128,-1,34
 1542 -55 1542 -55 1542 -47 c 0,35,36
 1542 -35 1542 -35 1554 -12 c 0,37,38
 1561 10 1561 10 1573 98 c 1,39,40
 1547 77 1547 77 1525.5 61.5 c 128,-1,41
 1504 46 1504 46 1484.5 33.5 c 128,-1,42
 1465 21 1465 21 1446 14 c 0,43,44
 1386 -6 1386 -6 1272 -8 c 0,45,46
 1047 -8 1047 -8 887 98 c 1,47,48
 803 43 803 43 731 16 c 0,49,50
 657 -8 657 -8 588 -8 c 0,51,52
 467 -4 467 -4 342 37 c 0,53,54
 215 78 215 78 133 158 c 0,55,56
 49 236 49 236 49 346 c 0,57,58
 52 465 52 465 78 532 c 0,59,60
 103 603 103 603 174 678 c 1,61,62
 237 738 237 738 334 766 c 1,63,-1
 41 766 l 1,0,1
270 520 m 1,64,65
 270 421 270 421 324 342 c 0,66,67
 379 260 379 260 449 219 c 0,68,69
 516 180 516 180 587.5 155.5 c 128,-1,70
 659 131 659 131 719 131 c 0,71,72
 780 131 780 131 819 160 c 1,73,74
 731 256 731 256 731 346 c 2,75,-1
 731 395 l 2,76,77
 731 458 731 458 741 492 c 0,78,79
 759 557 759 557 791 606 c 0,80,81
 814 643 814 643 879 702 c 0,82,83
 924 741 924 741 979 766 c 1,84,-1
 778 766 l 2,85,86
 567 766 567 766 436 721 c 0,87,88
 361 695 361 695 319 650.5 c 128,-1,89
 277 606 277 606 270 520 c 1,64,65
952 518 m 1,90,91
 952 421 952 421 1006 342 c 0,92,93
 1061 262 1061 262 1130 219 c 0,94,95
 1303 113 1303 113 1397 113 c 0,96,97
 1456 113 1456 113 1526 176 c 0,98,99
 1583 231 1583 231 1620 332 c 0,100,101
 1655 432 1655 432 1655 561 c 0,102,103
 1653 633 1653 633 1653 674 c 256,104,105
 1653 715 1653 715 1649 770 c 1,106,-1
 1401 770 l 2,107,108
 1194 770 1194 770 1085 725 c 0,109,110
 960 671 960 671 952 518 c 1,90,91
EndSplineSet
Validated: 1
EndChar

StartChar: uniE005
Encoding: 57349 57349 90
Width: 1946
GlyphClass: 2
Flags: W
LayerCount: 2
Fore
SplineSet
55 717 m 1,0,1
 127 741 127 741 201 799 c 0,2,3
 274 854 274 854 330 920 c 0,4,5
 352 942 352 942 365 942 c 0,6,7
 393 942 393 942 393 840 c 0,8,9
 393 820 393 820 389 810 c 128,-1,10
 385 800 385 800 381 760 c 1,11,12
 421 786 421 786 447.5 803 c 128,-1,13
 474 820 474 820 498 833.5 c 128,-1,14
 522 847 522 847 543 854 c 0,15,16
 610 877 610 877 680 877 c 0,17,18
 918 868 918 868 1065 770 c 1,19,20
 1225 877 1225 877 1364 877 c 1,21,22
 1485 872 1485 872 1610 831 c 0,23,24
 1735 791 1735 791 1819 713 c 0,25,26
 1903 633 1903 633 1903 522 c 0,27,28
 1903 446 1903 446 1887 381 c 128,-1,29
 1871 316 1871 316 1841 268 c 0,30,31
 1782 172 1782 172 1669 113 c 1,32,-1
 1897 113 l 1,33,34
 1897 49 1897 49 1851 -20 c 0,35,36
 1821 -61 1821 -61 1784 -78 c 0,37,38
 1745 -92 1745 -92 1688 -92 c 2,39,-1
 362 -92 l 1,40,41
 365 -190 365 -190 369 -295 c 0,42,43
 373 -401 373 -401 379 -528 c 0,44,45
 383 -657 383 -657 387 -778 c 1,46,47
 358 -854 358 -854 283 -913 c 0,48,49
 207 -975 207 -975 88 -1001 c 0,50,51
 70 -1001 70 -1001 63 -999 c 0,52,53
 57 -997 57 -997 57 -989 c 0,54,55
 57 -979 57 -979 68 -954 c 0,56,57
 115 -801 115 -801 141 -606 c 0,58,59
 170 -412 170 -412 178 -252 c 0,60,61
 188 -92 188 -92 188 0 c 2,62,-1
 188 51 l 2,63,64
 188 218 188 218 173 336.5 c 128,-1,65
 158 455 158 455 131 538.5 c 128,-1,66
 104 622 104 622 55 717 c 1,0,1
356 113 m 1,67,-1
 631 115 l 2,68,69
 649 113 649 113 686 113 c 0,70,71
 799 113 799 113 887 160 c 0,72,73
 973 205 973 205 991 291 c 0,74,75
 999 332 999 332 999 350 c 0,76,77
 999 415 999 415 973 475 c 0,78,79
 946 532 946 532 905 580 c 0,80,81
 862 625 862 625 821 649 c 0,82,83
 647 756 647 756 555 756 c 1,84,85
 521 751 521 751 467 711 c 0,86,87
 432 682 432 682 414 641 c 0,88,89
 395 598 395 598 391 571 c 0,90,91
 387 545 387 545 373 451 c 0,92,93
 362 385 362 385 360 305 c 0,94,95
 356 223 356 223 356 113 c 1,67,-1
997 113 m 1,96,-1
 1391 113 l 2,97,98
 1479 113 1479 113 1532 125 c 0,99,100
 1585 133 1585 133 1622 174 c 0,101,102
 1659 213 1659 213 1673 291 c 0,103,104
 1681 343 1681 343 1681 362 c 0,105,106
 1681 453 1681 453 1626 530 c 0,107,108
 1573 610 1573 610 1503 649 c 0,109,110
 1346 737 1346 737 1233 737 c 0,111,112
 1169 737 1169 737 1133 709 c 1,113,114
 1219 610 1219 610 1221 522 c 0,115,116
 1221 479 1221 479 1214.5 435 c 128,-1,117
 1208 391 1208 391 1197 357 c 128,-1,118
 1186 323 1186 323 1165 287 c 0,119,120
 1108 190 1108 190 997 113 c 1,96,-1
EndSplineSet
Validated: 1
EndChar

StartChar: uniE007
Encoding: 57351 57351 91
Width: 1946
GlyphClass: 2
Flags: W
LayerCount: 2
Fore
SplineSet
45 774 m 1,0,1
 45 810 45 810 59 836 c 128,-1,2
 73 862 73 862 104 901 c 0,3,4
 139 942 139 942 180 958 c 128,-1,5
 221 974 221 974 281 973 c 2,6,-1
 1597 975 l 1,7,-1
 1647 975 l 2,8,9
 1788 975 1788 975 1815 1030 c 1,10,11
 1837 1053 1837 1053 1849 1053 c 0,12,13
 1880 1053 1880 1053 1880 938 c 0,14,15
 1880 870 1880 870 1868 760 c 0,16,17
 1858 692 1858 692 1855 573 c 0,18,19
 1849 455 1849 455 1849 272 c 0,20,21
 1849 66 1849 66 1858 -246 c 0,22,23
 1864 -555 1864 -555 1874 -778 c 1,24,25
 1843 -854 1843 -854 1767 -913 c 0,26,27
 1692 -975 1692 -975 1573 -1001 c 1,28,29
 1554 -1001 1554 -1001 1548 -999 c 128,-1,30
 1542 -997 1542 -997 1542 -989 c 0,31,32
 1542 -977 1542 -977 1554 -954 c 1,33,34
 1622 -731 1622 -731 1647 -461 c 0,35,36
 1673 -188 1673 -188 1673 0 c 0,37,38
 1673 121 1673 121 1671 213 c 1,39,40
 1609 117 1609 117 1571 86 c 0,41,42
 1520 43 1520 43 1450 23 c 0,43,44
 1378 0 1378 0 1274 0 c 0,45,46
 1171 0 1171 0 1071 26.5 c 128,-1,47
 971 53 971 53 891 106 c 1,48,49
 805 49 805 49 733 25 c 0,50,51
 662 0 662 0 592 0 c 0,52,53
 489 0 489 0 391 25 c 0,54,55
 293 47 293 47 217 92 c 0,56,57
 141 135 141 135 98 205 c 1,58,59
 53 270 53 270 53 354 c 0,60,61
 56 447 56 447 86 541 c 1,62,63
 117 623 117 623 178 684 c 128,-1,64
 239 745 239 745 338 774 c 1,65,-1
 45 774 l 1,0,1
287 518 m 0,66,67
 287 418 287 418 338 344 c 1,68,69
 385 266 385 266 453 227 c 0,70,71
 602 139 602 139 723 139 c 0,72,73
 786 139 786 139 823 168 c 1,74,75
 741 258 741 258 735 354 c 1,76,77
 735 510 735 510 805 616 c 1,78,79
 872 727 872 727 983 774 c 1,80,-1
 782 774 l 2,81,82
 645 774 645 774 539 754 c 0,83,84
 430 733 430 733 369 690 c 0,85,86
 305 647 305 647 293 582 c 0,87,88
 287 551 287 551 287 518 c 0,66,67
956 526 m 0,89,90
 956 458 956 458 983 399 c 0,91,92
 1010 342 1010 342 1051 299 c 0,93,94
 1092 254 1092 254 1135 227 c 0,95,96
 1305 121 1305 121 1401 121 c 0,97,98
 1499 121 1499 121 1566.5 225 c 128,-1,99
 1634 329 1634 329 1634 498 c 0,100,101
 1634 532 1634 532 1632 551 c 0,102,103
 1612 647 1612 647 1601.5 686 c 128,-1,104
 1591 725 1591 725 1563 778 c 1,105,-1
 1405 778 l 2,106,107
 1198 778 1198 778 1090 731 c 0,108,109
 981 686 981 686 965 586 c 0,110,111
 956 539 956 539 956 526 c 0,89,90
EndSplineSet
Validated: 33
EndChar

StartChar: uniE015
Encoding: 57365 57365 92
Width: 1331
GlyphClass: 2
Flags: W
LayerCount: 2
Fore
SplineSet
45 -33 m 0,0,1
 45 -23 45 -23 59 -12 c 1,2,3
 111 233 111 233 127 326 c 0,4,5
 143 416 143 416 143 492 c 0,6,7
 143 571 143 571 121 645 c 0,8,9
 115 665 115 665 103 670.5 c 128,-1,10
 91 676 91 676 76.5 682.5 c 128,-1,11
 62 689 62 689 47 717 c 1,12,13
 121 743 121 743 195 799 c 0,14,15
 266 852 266 852 322 920 c 0,16,17
 344 942 344 942 356 942 c 0,18,19
 385 942 385 942 385 840 c 0,20,21
 385 820 385 820 381 810 c 128,-1,22
 377 800 377 800 373 760 c 1,23,24
 393 774 393 774 411.5 787 c 128,-1,25
 430 800 430 800 447.5 811 c 128,-1,26
 465 822 465 822 485 831 c 0,27,28
 539 854 539 854 592 866 c 0,29,30
 643 877 643 877 707 877 c 0,31,32
 836 872 836 872 967 831 c 0,33,34
 1098 791 1098 791 1186 713 c 0,35,36
 1274 633 1274 633 1274 522 c 0,37,38
 1274 427 1274 427 1237 342 c 0,39,40
 1200 258 1200 258 1141 197 c 0,41,42
 1083 139 1083 139 1001 113 c 1,43,-1
 1287 113 l 1,44,45
 1287 48 1287 48 1233 -20 c 0,46,47
 1208 -49 1208 -49 1184 -66 c 0,48,49
 1155 -82 1155 -82 1126 -86 c 0,50,51
 1098 -92 1098 -92 1057 -92 c 2,52,-1
 354 -92 l 2,53,54
 276 -92 276 -92 162 -78 c 0,55,56
 45 -63 45 -63 45 -33 c 0,0,1
354 113 m 1,57,-1
 553 113 l 1,58,59
 735 117 735 117 836 133 c 0,60,61
 936 152 936 152 975 186 c 0,62,63
 1016 221 1016 221 1036 291 c 0,64,65
 1042 318 1042 318 1042 356 c 0,66,67
 1042 416 1042 416 1016 473 c 0,68,69
 987 532 987 532 946 578 c 0,70,71
 903 623 903 623 856 649 c 0,72,73
 793 686 793 686 719 707 c 0,74,75
 643 725 643 725 582 725 c 1,76,77
 496 713 496 713 451 674 c 0,78,79
 410 641 410 641 387 573 c 0,80,81
 371 518 371 518 360 440 c 1,82,-1
 354 113 l 1,57,-1
EndSplineSet
Validated: 1
EndChar

StartChar: uniE003
Encoding: 57347 57347 93
Width: 1331
GlyphClass: 2
Flags: W
LayerCount: 2
Fore
SplineSet
51 346 m 0,0,1
 55 430 55 430 72 487 c 0,2,3
 88 551 88 551 123 606 c 0,4,5
 156 662 156 662 211 705 c 0,6,7
 262 745 262 745 336 766 c 1,8,-1
 56 765 l 1,9,10
 56 833 56 833 109 897 c 0,11,12
 143 938 143 938 183.5 953 c 128,-1,13
 224 968 224 968 285 969 c 2,14,-1
 1252 970 l 1,15,16
 1273 959 1273 959 1273 913 c 0,17,18
 1273 899 1273 899 1270 870.5 c 128,-1,19
 1267 842 1267 842 1260.5 803.5 c 128,-1,20
 1254 765 1254 765 1253 760 c 0,21,22
 1235 643 1235 643 1235 272 c 0,23,24
 1235 109 1235 109 1237 -78 c 0,25,26
 1241 -262 1241 -262 1247 -463 c 0,27,28
 1255 -666 1255 -666 1260 -778 c 1,29,30
 1231 -854 1231 -854 1153 -913 c 0,31,32
 1077 -975 1077 -975 961 -1001 c 1,33,34
 928 -1001 928 -1001 928 -989 c 256,35,36
 928 -977 928 -977 940 -954 c 1,37,38
 985 -801 985 -801 1014 -604 c 0,39,40
 1040 -410 1040 -410 1051 -252 c 0,41,42
 1061 -92 1061 -92 1061 0 c 0,43,44
 1061 121 1061 121 1057 213 c 1,45,46
 972 123 972 123 926 90 c 0,47,48
 854 45 854 45 779.5 22.5 c 128,-1,49
 705 0 705 0 623 -4 c 1,50,51
 524 -4 524 -4 424 18 c 0,52,53
 322 43 322 43 236 88 c 0,54,55
 150 135 150 135 100 201 c 0,56,57
 51 264 51 264 51 346 c 0,0,1
283 526 m 0,58,59
 283 458 283 458 311 397 c 0,60,61
 338 342 338 342 381 297 c 128,-1,62
 424 252 424 252 471 223 c 0,63,64
 537 186 537 186 609.5 168 c 128,-1,65
 682 150 682 150 748 150 c 1,66,67
 889 164 889 164 956 246 c 0,68,69
 990 286 990 286 1007 346 c 128,-1,70
 1024 406 1024 406 1024 473 c 0,71,72
 1024 510 1024 510 1018 551 c 0,73,74
 1001 627 1001 627 989 672 c 128,-1,75
 977 717 977 717 948 770 c 1,76,-1
 793 764 l 2,77,78
 567 756 567 756 436 715 c 128,-1,79
 305 674 305 674 289 580 c 0,80,81
 283 553 283 553 283 526 c 0,58,59
EndSplineSet
Validated: 1
EndChar

StartChar: uniEC22
Encoding: 60450 60450 94
Width: 2
GlyphClass: 2
Flags: W
LayerCount: 2
Fore
SplineSet
-1688 1114 m 1,0,-1
 -1622 1237 l 1,1,-1
 -205 1237 l 1,2,-1
 -262 1114 l 1,3,-1
 -1688 1114 l 1,0,-1
EndSplineSet
Validated: 1
EndChar

StartChar: uniEBD0
Encoding: 60368 60368 95
Width: 2
GlyphClass: 2
Flags: W
LayerCount: 2
Fore
SplineSet
-1065 -512 m 0,0,1
 -1065 -462 -1065 -462 -1042 -399 c 0,2,3
 -1014 -320 -1014 -320 -923.5 -235 c 128,-1,4
 -833 -150 -833 -150 -721 -79 c 128,-1,5
 -609 -8 -609 -8 -510 39 c 1,6,-1
 -469 18 l 1,7,8
 -515 -13 -515 -13 -604 -71 c 128,-1,9
 -693 -129 -693 -129 -757 -182 c 128,-1,10
 -821 -235 -821 -235 -865.5 -300 c 128,-1,11
 -910 -365 -910 -365 -915 -438 c 0,12,13
 -915 -491 -915 -491 -893 -522 c 128,-1,14
 -871 -553 -871 -553 -834 -553 c 0,15,16
 -772 -553 -772 -553 -725 -471 c 0,17,18
 -709 -442 -709 -442 -696 -442 c 0,19,20
 -688 -442 -688 -442 -678 -459 c 0,21,22
 -662 -497 -662 -497 -662 -528 c 0,23,24
 -662 -603 -662 -603 -723 -654 c 128,-1,25
 -784 -705 -784 -705 -868 -705 c 0,26,27
 -876 -705 -876 -705 -911 -700 c 0,28,29
 -977 -688 -977 -688 -1021 -638.5 c 128,-1,30
 -1065 -589 -1065 -589 -1065 -512 c 0,0,1
EndSplineSet
Validated: 1
EndChar

StartChar: uniEBD1
Encoding: 60369 60369 96
Width: 2
GlyphClass: 2
Flags: W
LayerCount: 2
Fore
SplineSet
-637 -422 m 0,0,1
 -637 -358 -637 -358 -606 -311 c 1,2,3
 -580 -250 -580 -250 -489.5 -162 c 128,-1,4
 -399 -74 -399 -74 -332 -45 c 1,5,-1
 -287 -74 l 1,6,7
 -391 -154 -391 -154 -451 -229 c 0,8,9
 -510 -303 -510 -303 -524 -385 c 1,10,11
 -524 -412 -524 -412 -516 -428 c 0,12,13
 -510 -449 -510 -449 -498 -461 c 0,14,15
 -485 -473 -485 -473 -469 -483 c 0,16,17
 -451 -494 -451 -494 -446 -496 c 0,18,19
 -432 -504 -432 -504 -408 -504 c 0,20,21
 -369 -504 -369 -504 -334 -479.5 c 128,-1,22
 -299 -455 -299 -455 -289 -408 c 1,23,-1
 -213 -410 l 1,24,25
 -213 -481 -213 -481 -248 -537 c 0,26,27
 -281 -590 -281 -590 -319 -598 c 1,28,29
 -352 -618 -352 -618 -401 -618 c 0,30,31
 -459 -616 -459 -616 -516 -596 c 0,32,33
 -575 -573 -575 -573 -602 -541 c 0,34,35
 -637 -494 -637 -494 -637 -422 c 0,0,1
EndSplineSet
Validated: 1
EndChar

StartChar: uniE02C
Encoding: 57388 57388 97
Width: 614
GlyphClass: 2
Flags: W
LayerCount: 2
Fore
SplineSet
117 768 m 1,0,1
 193 795 193 795 266 850 c 0,2,3
 342 903 342 903 397 971 c 1,4,5
 422 993 422 993 432 993 c 0,6,7
 463 993 463 993 463 889 c 0,8,9
 463 823 463 823 451 709 c 0,10,11
 440 641 440 641 436 522 c 0,12,13
 432 362 432 362 432 272 c 0,14,15
 432 109 432 109 434 -78 c 0,16,17
 438 -262 438 -262 444 -463 c 0,18,19
 453 -666 453 -666 457 -778 c 1,20,21
 426 -854 426 -854 348 -913 c 0,22,23
 268 -975 268 -975 152 -1001 c 1,24,25
 119 -1001 119 -1001 119 -989 c 256,26,27
 119 -977 119 -977 131 -954 c 1,28,29
 199 -731 199 -731 227 -455 c 0,30,31
 254 -176 254 -176 254 0 c 2,32,-1
 254 49 l 2,33,34
 254 302 254 302 220.5 470 c 128,-1,35
 187 638 187 638 117 768 c 1,0,1
EndSplineSet
Validated: 1
EndChar

StartChar: uni607F
Encoding: 24703 24703 98
Width: 1331
GlyphClass: 2
Flags: W
LayerCount: 2
Fore
SplineSet
25 653 m 0,0,1
 25 681 25 681 53 705 c 1,2,-1
 90 762 l 1,3,4
 93 793 93 793 108.5 811 c 128,-1,5
 124 829 124 829 143 829 c 0,6,7
 188 829 188 829 188 750 c 1,8,-1
 385 655 l 1,9,10
 324 628 324 628 324 553 c 1,11,-1
 131 647 l 1,12,13
 97 614 97 614 66 614 c 0,14,15
 47 614 47 614 36 625 c 128,-1,16
 25 636 25 636 25 653 c 0,0,1
74 215 m 0,17,18
 74 233 74 233 86.5 246.5 c 128,-1,19
 99 260 99 260 119 260 c 0,20,21
 145 260 145 260 170 238 c 1,22,-1
 367 365 l 1,23,-1
 438 266 l 1,24,-1
 229 135 l 1,25,26
 233 123 233 123 233 100 c 0,27,28
 233 72 233 72 220.5 56.5 c 128,-1,29
 208 41 208 41 190 41 c 0,30,31
 150 41 150 41 141 96 c 1,32,-1
 111 158 l 1,33,34
 74 183 74 183 74 215 c 0,17,18
365 522 m 0,35,36
 365 576 365 576 403 615 c 128,-1,37
 441 654 441 654 503 673 c 128,-1,38
 565 692 565 692 637 692 c 0,39,40
 720 692 720 692 792.5 669.5 c 128,-1,41
 865 647 865 647 911.5 603.5 c 128,-1,42
 958 560 958 560 958 500 c 0,43,44
 958 410 958 410 852 307 c 1,45,46
 820 186 820 186 768.5 127 c 128,-1,47
 717 68 717 68 662 68 c 0,48,49
 597 68 597 68 543.5 136 c 128,-1,50
 490 204 490 204 475 307 c 1,51,52
 365 428 365 428 365 522 c 0,35,36
498 483 m 0,53,54
 498 463 498 463 513 448 c 0,55,56
 526 434 526 434 549 434 c 0,57,58
 551 434 551 434 553 434 c 0,59,60
 586 435 586 435 604.5 452 c 128,-1,61
 623 469 623 469 623 489 c 256,62,63
 623 509 623 509 607 523.5 c 128,-1,64
 591 538 591 538 561 541 c 0,65,66
 531 540 531 540 514.5 523.5 c 128,-1,67
 498 507 498 507 498 483 c 0,53,54
596 348 m 0,68,69
 596 328 596 328 611 313 c 0,70,71
 624 299 624 299 647 299 c 0,72,73
 649 299 649 299 651 299 c 0,74,75
 684 300 684 300 702.5 317 c 128,-1,76
 721 334 721 334 721 354 c 0,77,78
 721 372 721 372 704 387.5 c 128,-1,79
 687 403 687 403 659 406 c 0,80,81
 630 405 630 405 613 388 c 128,-1,82
 596 371 596 371 596 348 c 0,68,69
698 479 m 0,83,84
 698 459 698 459 713 444 c 0,85,86
 727 430 727 430 750 430 c 0,87,88
 752 430 752 430 754 430 c 0,89,90
 788 431 788 431 805.5 447.5 c 128,-1,91
 823 464 823 464 823 485 c 0,92,93
 823 503 823 503 806.5 518.5 c 128,-1,94
 790 534 790 534 762 537 c 0,95,96
 732 536 732 536 715 519.5 c 128,-1,97
 698 503 698 503 698 479 c 0,83,84
881 283 m 1,98,-1
 958 375 l 1,99,-1
 1153 258 l 1,100,101
 1185 285 1185 285 1217 285 c 0,102,103
 1237 285 1237 285 1248.5 274.5 c 128,-1,104
 1260 264 1260 264 1260 246 c 0,105,106
 1260 219 1260 219 1227 195 c 1,107,-1
 1184 141 l 1,108,109
 1180 110 1180 110 1163 95 c 128,-1,110
 1146 80 1146 80 1128 80 c 0,111,112
 1112 80 1112 80 1097.5 94.5 c 128,-1,113
 1083 109 1083 109 1083 133 c 0,114,115
 1083 152 1083 152 1087 162 c 1,116,-1
 881 283 l 1,98,-1
932 629 m 1,117,-1
 1110 750 l 1,118,119
 1106 762 1106 762 1106 784 c 0,120,121
 1106 813 1106 813 1118.5 828.5 c 128,-1,122
 1131 844 1131 844 1149 844 c 0,123,124
 1165 844 1165 844 1179.5 829.5 c 128,-1,125
 1194 815 1194 815 1198 788 c 1,126,-1
 1229 727 l 1,127,128
 1266 701 1266 701 1266 670 c 0,129,130
 1266 651 1266 651 1253 638 c 128,-1,131
 1240 625 1240 625 1221 625 c 0,132,133
 1195 625 1195 625 1169 647 c 1,134,-1
 989 524 l 1,135,136
 989 567 989 567 975.5 590 c 128,-1,137
 962 613 962 613 932 629 c 1,117,-1
EndSplineSet
Validated: 1
EndChar

StartChar: uni6080
Encoding: 24704 24704 99
Width: 1331
GlyphClass: 2
Flags: W
LayerCount: 2
Fore
SplineSet
25 653 m 0,0,1
 25 681 25 681 53 705 c 1,2,-1
 90 762 l 1,3,4
 93 793 93 793 108.5 811 c 128,-1,5
 124 829 124 829 143 829 c 0,6,7
 188 829 188 829 188 750 c 1,8,-1
 385 655 l 1,9,10
 324 628 324 628 324 553 c 1,11,-1
 131 647 l 1,12,13
 97 614 97 614 66 614 c 0,14,15
 47 614 47 614 36 625 c 128,-1,16
 25 636 25 636 25 653 c 0,0,1
74 215 m 0,17,18
 74 233 74 233 86.5 246.5 c 128,-1,19
 99 260 99 260 119 260 c 0,20,21
 145 260 145 260 170 238 c 1,22,-1
 367 365 l 1,23,-1
 438 266 l 1,24,-1
 229 135 l 1,25,26
 233 123 233 123 233 100 c 0,27,28
 233 72 233 72 220.5 56.5 c 128,-1,29
 208 41 208 41 190 41 c 0,30,31
 150 41 150 41 141 96 c 1,32,-1
 111 158 l 1,33,34
 74 183 74 183 74 215 c 0,17,18
365 522 m 0,35,36
 365 576 365 576 403 615 c 128,-1,37
 441 654 441 654 503 673 c 128,-1,38
 565 692 565 692 637 692 c 0,39,40
 720 692 720 692 792.5 669.5 c 128,-1,41
 865 647 865 647 911.5 603.5 c 128,-1,42
 958 560 958 560 958 500 c 0,43,44
 958 410 958 410 852 307 c 1,45,46
 820 186 820 186 768.5 127 c 128,-1,47
 717 68 717 68 662 68 c 0,48,49
 597 68 597 68 543.5 136 c 128,-1,50
 490 204 490 204 475 307 c 1,51,52
 365 428 365 428 365 522 c 0,35,36
498 483 m 0,53,54
 498 463 498 463 513 448 c 0,55,56
 526 434 526 434 549 434 c 0,57,58
 551 434 551 434 553 434 c 0,59,60
 586 435 586 435 604.5 452 c 128,-1,61
 623 469 623 469 623 489 c 256,62,63
 623 509 623 509 607 523.5 c 128,-1,64
 591 538 591 538 561 541 c 0,65,66
 531 540 531 540 514.5 523.5 c 128,-1,67
 498 507 498 507 498 483 c 0,53,54
596 348 m 0,68,69
 596 328 596 328 611 313 c 0,70,71
 624 299 624 299 647 299 c 0,72,73
 649 299 649 299 651 299 c 0,74,75
 684 300 684 300 702.5 317 c 128,-1,76
 721 334 721 334 721 354 c 0,77,78
 721 372 721 372 704 387.5 c 128,-1,79
 687 403 687 403 659 406 c 0,80,81
 630 405 630 405 613 388 c 128,-1,82
 596 371 596 371 596 348 c 0,68,69
698 479 m 0,83,84
 698 459 698 459 713 444 c 0,85,86
 727 430 727 430 750 430 c 0,87,88
 752 430 752 430 754 430 c 0,89,90
 788 431 788 431 805.5 447.5 c 128,-1,91
 823 464 823 464 823 485 c 0,92,93
 823 503 823 503 806.5 518.5 c 128,-1,94
 790 534 790 534 762 537 c 0,95,96
 732 536 732 536 715 519.5 c 128,-1,97
 698 503 698 503 698 479 c 0,83,84
881 283 m 1,98,-1
 958 375 l 1,99,-1
 1153 258 l 1,100,101
 1185 285 1185 285 1217 285 c 0,102,103
 1237 285 1237 285 1248.5 274.5 c 128,-1,104
 1260 264 1260 264 1260 246 c 0,105,106
 1260 219 1260 219 1227 195 c 1,107,-1
 1184 141 l 1,108,109
 1180 110 1180 110 1163 95 c 128,-1,110
 1146 80 1146 80 1128 80 c 0,111,112
 1112 80 1112 80 1097.5 94.5 c 128,-1,113
 1083 109 1083 109 1083 133 c 0,114,115
 1083 152 1083 152 1087 162 c 1,116,-1
 881 283 l 1,98,-1
932 629 m 1,117,-1
 1110 750 l 1,118,119
 1106 762 1106 762 1106 784 c 0,120,121
 1106 813 1106 813 1118.5 828.5 c 128,-1,122
 1131 844 1131 844 1149 844 c 0,123,124
 1165 844 1165 844 1179.5 829.5 c 128,-1,125
 1194 815 1194 815 1198 788 c 1,126,-1
 1229 727 l 1,127,128
 1266 701 1266 701 1266 670 c 0,129,130
 1266 651 1266 651 1253 638 c 128,-1,131
 1240 625 1240 625 1221 625 c 0,132,133
 1195 625 1195 625 1169 647 c 1,134,-1
 989 524 l 1,135,136
 989 567 989 567 975.5 590 c 128,-1,137
 962 613 962 613 932 629 c 1,117,-1
EndSplineSet
Validated: 1
EndChar

StartChar: uni6081
Encoding: 24705 24705 100
Width: 1331
GlyphClass: 2
Flags: W
LayerCount: 2
Fore
SplineSet
25 653 m 0,0,1
 25 681 25 681 53 705 c 1,2,-1
 90 762 l 1,3,4
 93 793 93 793 108.5 811 c 128,-1,5
 124 829 124 829 143 829 c 0,6,7
 188 829 188 829 188 750 c 1,8,-1
 385 655 l 1,9,10
 324 628 324 628 324 553 c 1,11,-1
 131 647 l 1,12,13
 97 614 97 614 66 614 c 0,14,15
 47 614 47 614 36 625 c 128,-1,16
 25 636 25 636 25 653 c 0,0,1
74 215 m 0,17,18
 74 233 74 233 86.5 246.5 c 128,-1,19
 99 260 99 260 119 260 c 0,20,21
 145 260 145 260 170 238 c 1,22,-1
 367 365 l 1,23,-1
 438 266 l 1,24,-1
 229 135 l 1,25,26
 233 123 233 123 233 100 c 0,27,28
 233 72 233 72 220.5 56.5 c 128,-1,29
 208 41 208 41 190 41 c 0,30,31
 150 41 150 41 141 96 c 1,32,-1
 111 158 l 1,33,34
 74 183 74 183 74 215 c 0,17,18
365 522 m 0,35,36
 365 576 365 576 403 615 c 128,-1,37
 441 654 441 654 503 673 c 128,-1,38
 565 692 565 692 637 692 c 0,39,40
 720 692 720 692 792.5 669.5 c 128,-1,41
 865 647 865 647 911.5 603.5 c 128,-1,42
 958 560 958 560 958 500 c 0,43,44
 958 410 958 410 852 307 c 1,45,46
 820 186 820 186 768.5 127 c 128,-1,47
 717 68 717 68 662 68 c 0,48,49
 597 68 597 68 543.5 136 c 128,-1,50
 490 204 490 204 475 307 c 1,51,52
 365 428 365 428 365 522 c 0,35,36
498 483 m 0,53,54
 498 463 498 463 513 448 c 0,55,56
 526 434 526 434 549 434 c 0,57,58
 551 434 551 434 553 434 c 0,59,60
 586 435 586 435 604.5 452 c 128,-1,61
 623 469 623 469 623 489 c 256,62,63
 623 509 623 509 607 523.5 c 128,-1,64
 591 538 591 538 561 541 c 0,65,66
 531 540 531 540 514.5 523.5 c 128,-1,67
 498 507 498 507 498 483 c 0,53,54
596 348 m 0,68,69
 596 328 596 328 611 313 c 0,70,71
 624 299 624 299 647 299 c 0,72,73
 649 299 649 299 651 299 c 0,74,75
 684 300 684 300 702.5 317 c 128,-1,76
 721 334 721 334 721 354 c 0,77,78
 721 372 721 372 704 387.5 c 128,-1,79
 687 403 687 403 659 406 c 0,80,81
 630 405 630 405 613 388 c 128,-1,82
 596 371 596 371 596 348 c 0,68,69
698 479 m 0,83,84
 698 459 698 459 713 444 c 0,85,86
 727 430 727 430 750 430 c 0,87,88
 752 430 752 430 754 430 c 0,89,90
 788 431 788 431 805.5 447.5 c 128,-1,91
 823 464 823 464 823 485 c 0,92,93
 823 503 823 503 806.5 518.5 c 128,-1,94
 790 534 790 534 762 537 c 0,95,96
 732 536 732 536 715 519.5 c 128,-1,97
 698 503 698 503 698 479 c 0,83,84
881 283 m 1,98,-1
 958 375 l 1,99,-1
 1153 258 l 1,100,101
 1185 285 1185 285 1217 285 c 0,102,103
 1237 285 1237 285 1248.5 274.5 c 128,-1,104
 1260 264 1260 264 1260 246 c 0,105,106
 1260 219 1260 219 1227 195 c 1,107,-1
 1184 141 l 1,108,109
 1180 110 1180 110 1163 95 c 128,-1,110
 1146 80 1146 80 1128 80 c 0,111,112
 1112 80 1112 80 1097.5 94.5 c 128,-1,113
 1083 109 1083 109 1083 133 c 0,114,115
 1083 152 1083 152 1087 162 c 1,116,-1
 881 283 l 1,98,-1
932 629 m 1,117,-1
 1110 750 l 1,118,119
 1106 762 1106 762 1106 784 c 0,120,121
 1106 813 1106 813 1118.5 828.5 c 128,-1,122
 1131 844 1131 844 1149 844 c 0,123,124
 1165 844 1165 844 1179.5 829.5 c 128,-1,125
 1194 815 1194 815 1198 788 c 1,126,-1
 1229 727 l 1,127,128
 1266 701 1266 701 1266 670 c 0,129,130
 1266 651 1266 651 1253 638 c 128,-1,131
 1240 625 1240 625 1221 625 c 0,132,133
 1195 625 1195 625 1169 647 c 1,134,-1
 989 524 l 1,135,136
 989 567 989 567 975.5 590 c 128,-1,137
 962 613 962 613 932 629 c 1,117,-1
EndSplineSet
Validated: 1
EndChar

StartChar: uni608D
Encoding: 24717 24717 101
Width: 1331
GlyphClass: 2
Flags: W
LayerCount: 2
Fore
SplineSet
25 653 m 0,0,1
 25 681 25 681 53 705 c 1,2,-1
 90 762 l 1,3,4
 93 793 93 793 108.5 811 c 128,-1,5
 124 829 124 829 143 829 c 0,6,7
 188 829 188 829 188 750 c 1,8,-1
 385 655 l 1,9,10
 324 628 324 628 324 553 c 1,11,-1
 131 647 l 1,12,13
 97 614 97 614 66 614 c 0,14,15
 47 614 47 614 36 625 c 128,-1,16
 25 636 25 636 25 653 c 0,0,1
74 215 m 0,17,18
 74 233 74 233 86.5 246.5 c 128,-1,19
 99 260 99 260 119 260 c 0,20,21
 145 260 145 260 170 238 c 1,22,-1
 367 365 l 1,23,-1
 438 266 l 1,24,-1
 229 135 l 1,25,26
 233 123 233 123 233 100 c 0,27,28
 233 72 233 72 220.5 56.5 c 128,-1,29
 208 41 208 41 190 41 c 0,30,31
 150 41 150 41 141 96 c 1,32,-1
 111 158 l 1,33,34
 74 183 74 183 74 215 c 0,17,18
365 522 m 0,35,36
 365 576 365 576 403 615 c 128,-1,37
 441 654 441 654 503 673 c 128,-1,38
 565 692 565 692 637 692 c 0,39,40
 720 692 720 692 792.5 669.5 c 128,-1,41
 865 647 865 647 911.5 603.5 c 128,-1,42
 958 560 958 560 958 500 c 0,43,44
 958 410 958 410 852 307 c 1,45,46
 820 186 820 186 768.5 127 c 128,-1,47
 717 68 717 68 662 68 c 0,48,49
 597 68 597 68 543.5 136 c 128,-1,50
 490 204 490 204 475 307 c 1,51,52
 365 428 365 428 365 522 c 0,35,36
498 483 m 0,53,54
 498 463 498 463 513 448 c 0,55,56
 526 434 526 434 549 434 c 0,57,58
 551 434 551 434 553 434 c 0,59,60
 586 435 586 435 604.5 452 c 128,-1,61
 623 469 623 469 623 489 c 256,62,63
 623 509 623 509 607 523.5 c 128,-1,64
 591 538 591 538 561 541 c 0,65,66
 531 540 531 540 514.5 523.5 c 128,-1,67
 498 507 498 507 498 483 c 0,53,54
596 348 m 0,68,69
 596 328 596 328 611 313 c 0,70,71
 624 299 624 299 647 299 c 0,72,73
 649 299 649 299 651 299 c 0,74,75
 684 300 684 300 702.5 317 c 128,-1,76
 721 334 721 334 721 354 c 0,77,78
 721 372 721 372 704 387.5 c 128,-1,79
 687 403 687 403 659 406 c 0,80,81
 630 405 630 405 613 388 c 128,-1,82
 596 371 596 371 596 348 c 0,68,69
698 479 m 0,83,84
 698 459 698 459 713 444 c 0,85,86
 727 430 727 430 750 430 c 0,87,88
 752 430 752 430 754 430 c 0,89,90
 788 431 788 431 805.5 447.5 c 128,-1,91
 823 464 823 464 823 485 c 0,92,93
 823 503 823 503 806.5 518.5 c 128,-1,94
 790 534 790 534 762 537 c 0,95,96
 732 536 732 536 715 519.5 c 128,-1,97
 698 503 698 503 698 479 c 0,83,84
881 283 m 1,98,-1
 958 375 l 1,99,-1
 1153 258 l 1,100,101
 1185 285 1185 285 1217 285 c 0,102,103
 1237 285 1237 285 1248.5 274.5 c 128,-1,104
 1260 264 1260 264 1260 246 c 0,105,106
 1260 219 1260 219 1227 195 c 1,107,-1
 1184 141 l 1,108,109
 1180 110 1180 110 1163 95 c 128,-1,110
 1146 80 1146 80 1128 80 c 0,111,112
 1112 80 1112 80 1097.5 94.5 c 128,-1,113
 1083 109 1083 109 1083 133 c 0,114,115
 1083 152 1083 152 1087 162 c 1,116,-1
 881 283 l 1,98,-1
932 629 m 1,117,-1
 1110 750 l 1,118,119
 1106 762 1106 762 1106 784 c 0,120,121
 1106 813 1106 813 1118.5 828.5 c 128,-1,122
 1131 844 1131 844 1149 844 c 0,123,124
 1165 844 1165 844 1179.5 829.5 c 128,-1,125
 1194 815 1194 815 1198 788 c 1,126,-1
 1229 727 l 1,127,128
 1266 701 1266 701 1266 670 c 0,129,130
 1266 651 1266 651 1253 638 c 128,-1,131
 1240 625 1240 625 1221 625 c 0,132,133
 1195 625 1195 625 1169 647 c 1,134,-1
 989 524 l 1,135,136
 989 567 989 567 975.5 590 c 128,-1,137
 962 613 962 613 932 629 c 1,117,-1
EndSplineSet
Validated: 1
EndChar

StartChar: uni608E
Encoding: 24718 24718 102
Width: 1331
GlyphClass: 2
Flags: W
LayerCount: 2
Fore
SplineSet
25 653 m 0,0,1
 25 681 25 681 53 705 c 1,2,-1
 90 762 l 1,3,4
 93 793 93 793 108.5 811 c 128,-1,5
 124 829 124 829 143 829 c 0,6,7
 188 829 188 829 188 750 c 1,8,-1
 385 655 l 1,9,10
 324 628 324 628 324 553 c 1,11,-1
 131 647 l 1,12,13
 97 614 97 614 66 614 c 0,14,15
 47 614 47 614 36 625 c 128,-1,16
 25 636 25 636 25 653 c 0,0,1
74 215 m 0,17,18
 74 233 74 233 86.5 246.5 c 128,-1,19
 99 260 99 260 119 260 c 0,20,21
 145 260 145 260 170 238 c 1,22,-1
 367 365 l 1,23,-1
 438 266 l 1,24,-1
 229 135 l 1,25,26
 233 123 233 123 233 100 c 0,27,28
 233 72 233 72 220.5 56.5 c 128,-1,29
 208 41 208 41 190 41 c 0,30,31
 150 41 150 41 141 96 c 1,32,-1
 111 158 l 1,33,34
 74 183 74 183 74 215 c 0,17,18
365 522 m 0,35,36
 365 576 365 576 403 615 c 128,-1,37
 441 654 441 654 503 673 c 128,-1,38
 565 692 565 692 637 692 c 0,39,40
 720 692 720 692 792.5 669.5 c 128,-1,41
 865 647 865 647 911.5 603.5 c 128,-1,42
 958 560 958 560 958 500 c 0,43,44
 958 410 958 410 852 307 c 1,45,46
 820 186 820 186 768.5 127 c 128,-1,47
 717 68 717 68 662 68 c 0,48,49
 597 68 597 68 543.5 136 c 128,-1,50
 490 204 490 204 475 307 c 1,51,52
 365 428 365 428 365 522 c 0,35,36
498 483 m 0,53,54
 498 463 498 463 513 448 c 0,55,56
 526 434 526 434 549 434 c 0,57,58
 551 434 551 434 553 434 c 0,59,60
 586 435 586 435 604.5 452 c 128,-1,61
 623 469 623 469 623 489 c 256,62,63
 623 509 623 509 607 523.5 c 128,-1,64
 591 538 591 538 561 541 c 0,65,66
 531 540 531 540 514.5 523.5 c 128,-1,67
 498 507 498 507 498 483 c 0,53,54
596 348 m 0,68,69
 596 328 596 328 611 313 c 0,70,71
 624 299 624 299 647 299 c 0,72,73
 649 299 649 299 651 299 c 0,74,75
 684 300 684 300 702.5 317 c 128,-1,76
 721 334 721 334 721 354 c 0,77,78
 721 372 721 372 704 387.5 c 128,-1,79
 687 403 687 403 659 406 c 0,80,81
 630 405 630 405 613 388 c 128,-1,82
 596 371 596 371 596 348 c 0,68,69
698 479 m 0,83,84
 698 459 698 459 713 444 c 0,85,86
 727 430 727 430 750 430 c 0,87,88
 752 430 752 430 754 430 c 0,89,90
 788 431 788 431 805.5 447.5 c 128,-1,91
 823 464 823 464 823 485 c 0,92,93
 823 503 823 503 806.5 518.5 c 128,-1,94
 790 534 790 534 762 537 c 0,95,96
 732 536 732 536 715 519.5 c 128,-1,97
 698 503 698 503 698 479 c 0,83,84
881 283 m 1,98,-1
 958 375 l 1,99,-1
 1153 258 l 1,100,101
 1185 285 1185 285 1217 285 c 0,102,103
 1237 285 1237 285 1248.5 274.5 c 128,-1,104
 1260 264 1260 264 1260 246 c 0,105,106
 1260 219 1260 219 1227 195 c 1,107,-1
 1184 141 l 1,108,109
 1180 110 1180 110 1163 95 c 128,-1,110
 1146 80 1146 80 1128 80 c 0,111,112
 1112 80 1112 80 1097.5 94.5 c 128,-1,113
 1083 109 1083 109 1083 133 c 0,114,115
 1083 152 1083 152 1087 162 c 1,116,-1
 881 283 l 1,98,-1
932 629 m 1,117,-1
 1110 750 l 1,118,119
 1106 762 1106 762 1106 784 c 0,120,121
 1106 813 1106 813 1118.5 828.5 c 128,-1,122
 1131 844 1131 844 1149 844 c 0,123,124
 1165 844 1165 844 1179.5 829.5 c 128,-1,125
 1194 815 1194 815 1198 788 c 1,126,-1
 1229 727 l 1,127,128
 1266 701 1266 701 1266 670 c 0,129,130
 1266 651 1266 651 1253 638 c 128,-1,131
 1240 625 1240 625 1221 625 c 0,132,133
 1195 625 1195 625 1169 647 c 1,134,-1
 989 524 l 1,135,136
 989 567 989 567 975.5 590 c 128,-1,137
 962 613 962 613 932 629 c 1,117,-1
EndSplineSet
Validated: 1
EndChar

StartChar: uni608F
Encoding: 24719 24719 103
Width: 1331
GlyphClass: 2
Flags: W
LayerCount: 2
Fore
SplineSet
25 653 m 0,0,1
 25 681 25 681 53 705 c 1,2,-1
 90 762 l 1,3,4
 93 793 93 793 108.5 811 c 128,-1,5
 124 829 124 829 143 829 c 0,6,7
 188 829 188 829 188 750 c 1,8,-1
 385 655 l 1,9,10
 324 628 324 628 324 553 c 1,11,-1
 131 647 l 1,12,13
 97 614 97 614 66 614 c 0,14,15
 47 614 47 614 36 625 c 128,-1,16
 25 636 25 636 25 653 c 0,0,1
74 215 m 0,17,18
 74 233 74 233 86.5 246.5 c 128,-1,19
 99 260 99 260 119 260 c 0,20,21
 145 260 145 260 170 238 c 1,22,-1
 367 365 l 1,23,-1
 438 266 l 1,24,-1
 229 135 l 1,25,26
 233 123 233 123 233 100 c 0,27,28
 233 72 233 72 220.5 56.5 c 128,-1,29
 208 41 208 41 190 41 c 0,30,31
 150 41 150 41 141 96 c 1,32,-1
 111 158 l 1,33,34
 74 183 74 183 74 215 c 0,17,18
365 522 m 0,35,36
 365 576 365 576 403 615 c 128,-1,37
 441 654 441 654 503 673 c 128,-1,38
 565 692 565 692 637 692 c 0,39,40
 720 692 720 692 792.5 669.5 c 128,-1,41
 865 647 865 647 911.5 603.5 c 128,-1,42
 958 560 958 560 958 500 c 0,43,44
 958 410 958 410 852 307 c 1,45,46
 820 186 820 186 768.5 127 c 128,-1,47
 717 68 717 68 662 68 c 0,48,49
 597 68 597 68 543.5 136 c 128,-1,50
 490 204 490 204 475 307 c 1,51,52
 365 428 365 428 365 522 c 0,35,36
498 483 m 0,53,54
 498 463 498 463 513 448 c 0,55,56
 526 434 526 434 549 434 c 0,57,58
 551 434 551 434 553 434 c 0,59,60
 586 435 586 435 604.5 452 c 128,-1,61
 623 469 623 469 623 489 c 256,62,63
 623 509 623 509 607 523.5 c 128,-1,64
 591 538 591 538 561 541 c 0,65,66
 531 540 531 540 514.5 523.5 c 128,-1,67
 498 507 498 507 498 483 c 0,53,54
596 348 m 0,68,69
 596 328 596 328 611 313 c 0,70,71
 624 299 624 299 647 299 c 0,72,73
 649 299 649 299 651 299 c 0,74,75
 684 300 684 300 702.5 317 c 128,-1,76
 721 334 721 334 721 354 c 0,77,78
 721 372 721 372 704 387.5 c 128,-1,79
 687 403 687 403 659 406 c 0,80,81
 630 405 630 405 613 388 c 128,-1,82
 596 371 596 371 596 348 c 0,68,69
698 479 m 0,83,84
 698 459 698 459 713 444 c 0,85,86
 727 430 727 430 750 430 c 0,87,88
 752 430 752 430 754 430 c 0,89,90
 788 431 788 431 805.5 447.5 c 128,-1,91
 823 464 823 464 823 485 c 0,92,93
 823 503 823 503 806.5 518.5 c 128,-1,94
 790 534 790 534 762 537 c 0,95,96
 732 536 732 536 715 519.5 c 128,-1,97
 698 503 698 503 698 479 c 0,83,84
881 283 m 1,98,-1
 958 375 l 1,99,-1
 1153 258 l 1,100,101
 1185 285 1185 285 1217 285 c 0,102,103
 1237 285 1237 285 1248.5 274.5 c 128,-1,104
 1260 264 1260 264 1260 246 c 0,105,106
 1260 219 1260 219 1227 195 c 1,107,-1
 1184 141 l 1,108,109
 1180 110 1180 110 1163 95 c 128,-1,110
 1146 80 1146 80 1128 80 c 0,111,112
 1112 80 1112 80 1097.5 94.5 c 128,-1,113
 1083 109 1083 109 1083 133 c 0,114,115
 1083 152 1083 152 1087 162 c 1,116,-1
 881 283 l 1,98,-1
932 629 m 1,117,-1
 1110 750 l 1,118,119
 1106 762 1106 762 1106 784 c 0,120,121
 1106 813 1106 813 1118.5 828.5 c 128,-1,122
 1131 844 1131 844 1149 844 c 0,123,124
 1165 844 1165 844 1179.5 829.5 c 128,-1,125
 1194 815 1194 815 1198 788 c 1,126,-1
 1229 727 l 1,127,128
 1266 701 1266 701 1266 670 c 0,129,130
 1266 651 1266 651 1253 638 c 128,-1,131
 1240 625 1240 625 1221 625 c 0,132,133
 1195 625 1195 625 1169 647 c 1,134,-1
 989 524 l 1,135,136
 989 567 989 567 975.5 590 c 128,-1,137
 962 613 962 613 932 629 c 1,117,-1
EndSplineSet
Validated: 1
EndChar

StartChar: uni6090
Encoding: 24720 24720 104
Width: 1331
GlyphClass: 2
Flags: W
LayerCount: 2
Fore
SplineSet
25 653 m 0,0,1
 25 681 25 681 53 705 c 1,2,-1
 90 762 l 1,3,4
 93 793 93 793 108.5 811 c 128,-1,5
 124 829 124 829 143 829 c 0,6,7
 188 829 188 829 188 750 c 1,8,-1
 385 655 l 1,9,10
 324 628 324 628 324 553 c 1,11,-1
 131 647 l 1,12,13
 97 614 97 614 66 614 c 0,14,15
 47 614 47 614 36 625 c 128,-1,16
 25 636 25 636 25 653 c 0,0,1
74 215 m 0,17,18
 74 233 74 233 86.5 246.5 c 128,-1,19
 99 260 99 260 119 260 c 0,20,21
 145 260 145 260 170 238 c 1,22,-1
 367 365 l 1,23,-1
 438 266 l 1,24,-1
 229 135 l 1,25,26
 233 123 233 123 233 100 c 0,27,28
 233 72 233 72 220.5 56.5 c 128,-1,29
 208 41 208 41 190 41 c 0,30,31
 150 41 150 41 141 96 c 1,32,-1
 111 158 l 1,33,34
 74 183 74 183 74 215 c 0,17,18
365 522 m 0,35,36
 365 576 365 576 403 615 c 128,-1,37
 441 654 441 654 503 673 c 128,-1,38
 565 692 565 692 637 692 c 0,39,40
 720 692 720 692 792.5 669.5 c 128,-1,41
 865 647 865 647 911.5 603.5 c 128,-1,42
 958 560 958 560 958 500 c 0,43,44
 958 410 958 410 852 307 c 1,45,46
 820 186 820 186 768.5 127 c 128,-1,47
 717 68 717 68 662 68 c 0,48,49
 597 68 597 68 543.5 136 c 128,-1,50
 490 204 490 204 475 307 c 1,51,52
 365 428 365 428 365 522 c 0,35,36
498 483 m 0,53,54
 498 463 498 463 513 448 c 0,55,56
 526 434 526 434 549 434 c 0,57,58
 551 434 551 434 553 434 c 0,59,60
 586 435 586 435 604.5 452 c 128,-1,61
 623 469 623 469 623 489 c 256,62,63
 623 509 623 509 607 523.5 c 128,-1,64
 591 538 591 538 561 541 c 0,65,66
 531 540 531 540 514.5 523.5 c 128,-1,67
 498 507 498 507 498 483 c 0,53,54
596 348 m 0,68,69
 596 328 596 328 611 313 c 0,70,71
 624 299 624 299 647 299 c 0,72,73
 649 299 649 299 651 299 c 0,74,75
 684 300 684 300 702.5 317 c 128,-1,76
 721 334 721 334 721 354 c 0,77,78
 721 372 721 372 704 387.5 c 128,-1,79
 687 403 687 403 659 406 c 0,80,81
 630 405 630 405 613 388 c 128,-1,82
 596 371 596 371 596 348 c 0,68,69
698 479 m 0,83,84
 698 459 698 459 713 444 c 0,85,86
 727 430 727 430 750 430 c 0,87,88
 752 430 752 430 754 430 c 0,89,90
 788 431 788 431 805.5 447.5 c 128,-1,91
 823 464 823 464 823 485 c 0,92,93
 823 503 823 503 806.5 518.5 c 128,-1,94
 790 534 790 534 762 537 c 0,95,96
 732 536 732 536 715 519.5 c 128,-1,97
 698 503 698 503 698 479 c 0,83,84
881 283 m 1,98,-1
 958 375 l 1,99,-1
 1153 258 l 1,100,101
 1185 285 1185 285 1217 285 c 0,102,103
 1237 285 1237 285 1248.5 274.5 c 128,-1,104
 1260 264 1260 264 1260 246 c 0,105,106
 1260 219 1260 219 1227 195 c 1,107,-1
 1184 141 l 1,108,109
 1180 110 1180 110 1163 95 c 128,-1,110
 1146 80 1146 80 1128 80 c 0,111,112
 1112 80 1112 80 1097.5 94.5 c 128,-1,113
 1083 109 1083 109 1083 133 c 0,114,115
 1083 152 1083 152 1087 162 c 1,116,-1
 881 283 l 1,98,-1
932 629 m 1,117,-1
 1110 750 l 1,118,119
 1106 762 1106 762 1106 784 c 0,120,121
 1106 813 1106 813 1118.5 828.5 c 128,-1,122
 1131 844 1131 844 1149 844 c 0,123,124
 1165 844 1165 844 1179.5 829.5 c 128,-1,125
 1194 815 1194 815 1198 788 c 1,126,-1
 1229 727 l 1,127,128
 1266 701 1266 701 1266 670 c 0,129,130
 1266 651 1266 651 1253 638 c 128,-1,131
 1240 625 1240 625 1221 625 c 0,132,133
 1195 625 1195 625 1169 647 c 1,134,-1
 989 524 l 1,135,136
 989 567 989 567 975.5 590 c 128,-1,137
 962 613 962 613 932 629 c 1,117,-1
EndSplineSet
Validated: 1
EndChar

StartChar: uni609D
Encoding: 24733 24733 105
Width: 1331
GlyphClass: 2
Flags: W
LayerCount: 2
Fore
SplineSet
25 653 m 0,0,1
 25 681 25 681 53 705 c 1,2,-1
 90 762 l 1,3,4
 93 793 93 793 108.5 811 c 128,-1,5
 124 829 124 829 143 829 c 0,6,7
 188 829 188 829 188 750 c 1,8,-1
 385 655 l 1,9,10
 324 628 324 628 324 553 c 1,11,-1
 131 647 l 1,12,13
 97 614 97 614 66 614 c 0,14,15
 47 614 47 614 36 625 c 128,-1,16
 25 636 25 636 25 653 c 0,0,1
74 215 m 0,17,18
 74 233 74 233 86.5 246.5 c 128,-1,19
 99 260 99 260 119 260 c 0,20,21
 145 260 145 260 170 238 c 1,22,-1
 367 365 l 1,23,-1
 438 266 l 1,24,-1
 229 135 l 1,25,26
 233 123 233 123 233 100 c 0,27,28
 233 72 233 72 220.5 56.5 c 128,-1,29
 208 41 208 41 190 41 c 0,30,31
 150 41 150 41 141 96 c 1,32,-1
 111 158 l 1,33,34
 74 183 74 183 74 215 c 0,17,18
365 522 m 0,35,36
 365 576 365 576 403 615 c 128,-1,37
 441 654 441 654 503 673 c 128,-1,38
 565 692 565 692 637 692 c 0,39,40
 720 692 720 692 792.5 669.5 c 128,-1,41
 865 647 865 647 911.5 603.5 c 128,-1,42
 958 560 958 560 958 500 c 0,43,44
 958 410 958 410 852 307 c 1,45,46
 820 186 820 186 768.5 127 c 128,-1,47
 717 68 717 68 662 68 c 0,48,49
 597 68 597 68 543.5 136 c 128,-1,50
 490 204 490 204 475 307 c 1,51,52
 365 428 365 428 365 522 c 0,35,36
498 483 m 0,53,54
 498 463 498 463 513 448 c 0,55,56
 526 434 526 434 549 434 c 0,57,58
 551 434 551 434 553 434 c 0,59,60
 586 435 586 435 604.5 452 c 128,-1,61
 623 469 623 469 623 489 c 256,62,63
 623 509 623 509 607 523.5 c 128,-1,64
 591 538 591 538 561 541 c 0,65,66
 531 540 531 540 514.5 523.5 c 128,-1,67
 498 507 498 507 498 483 c 0,53,54
596 348 m 0,68,69
 596 328 596 328 611 313 c 0,70,71
 624 299 624 299 647 299 c 0,72,73
 649 299 649 299 651 299 c 0,74,75
 684 300 684 300 702.5 317 c 128,-1,76
 721 334 721 334 721 354 c 0,77,78
 721 372 721 372 704 387.5 c 128,-1,79
 687 403 687 403 659 406 c 0,80,81
 630 405 630 405 613 388 c 128,-1,82
 596 371 596 371 596 348 c 0,68,69
698 479 m 0,83,84
 698 459 698 459 713 444 c 0,85,86
 727 430 727 430 750 430 c 0,87,88
 752 430 752 430 754 430 c 0,89,90
 788 431 788 431 805.5 447.5 c 128,-1,91
 823 464 823 464 823 485 c 0,92,93
 823 503 823 503 806.5 518.5 c 128,-1,94
 790 534 790 534 762 537 c 0,95,96
 732 536 732 536 715 519.5 c 128,-1,97
 698 503 698 503 698 479 c 0,83,84
881 283 m 1,98,-1
 958 375 l 1,99,-1
 1153 258 l 1,100,101
 1185 285 1185 285 1217 285 c 0,102,103
 1237 285 1237 285 1248.5 274.5 c 128,-1,104
 1260 264 1260 264 1260 246 c 0,105,106
 1260 219 1260 219 1227 195 c 1,107,-1
 1184 141 l 1,108,109
 1180 110 1180 110 1163 95 c 128,-1,110
 1146 80 1146 80 1128 80 c 0,111,112
 1112 80 1112 80 1097.5 94.5 c 128,-1,113
 1083 109 1083 109 1083 133 c 0,114,115
 1083 152 1083 152 1087 162 c 1,116,-1
 881 283 l 1,98,-1
932 629 m 1,117,-1
 1110 750 l 1,118,119
 1106 762 1106 762 1106 784 c 0,120,121
 1106 813 1106 813 1118.5 828.5 c 128,-1,122
 1131 844 1131 844 1149 844 c 0,123,124
 1165 844 1165 844 1179.5 829.5 c 128,-1,125
 1194 815 1194 815 1198 788 c 1,126,-1
 1229 727 l 1,127,128
 1266 701 1266 701 1266 670 c 0,129,130
 1266 651 1266 651 1253 638 c 128,-1,131
 1240 625 1240 625 1221 625 c 0,132,133
 1195 625 1195 625 1169 647 c 1,134,-1
 989 524 l 1,135,136
 989 567 989 567 975.5 590 c 128,-1,137
 962 613 962 613 932 629 c 1,117,-1
EndSplineSet
Validated: 1
EndChar

StartChar: uni609E
Encoding: 24734 24734 106
Width: 1331
GlyphClass: 2
Flags: W
LayerCount: 2
Fore
SplineSet
25 653 m 0,0,1
 25 681 25 681 53 705 c 1,2,-1
 90 762 l 1,3,4
 93 793 93 793 108.5 811 c 128,-1,5
 124 829 124 829 143 829 c 0,6,7
 188 829 188 829 188 750 c 1,8,-1
 385 655 l 1,9,10
 324 628 324 628 324 553 c 1,11,-1
 131 647 l 1,12,13
 97 614 97 614 66 614 c 0,14,15
 47 614 47 614 36 625 c 128,-1,16
 25 636 25 636 25 653 c 0,0,1
74 215 m 0,17,18
 74 233 74 233 86.5 246.5 c 128,-1,19
 99 260 99 260 119 260 c 0,20,21
 145 260 145 260 170 238 c 1,22,-1
 367 365 l 1,23,-1
 438 266 l 1,24,-1
 229 135 l 1,25,26
 233 123 233 123 233 100 c 0,27,28
 233 72 233 72 220.5 56.5 c 128,-1,29
 208 41 208 41 190 41 c 0,30,31
 150 41 150 41 141 96 c 1,32,-1
 111 158 l 1,33,34
 74 183 74 183 74 215 c 0,17,18
365 522 m 0,35,36
 365 576 365 576 403 615 c 128,-1,37
 441 654 441 654 503 673 c 128,-1,38
 565 692 565 692 637 692 c 0,39,40
 720 692 720 692 792.5 669.5 c 128,-1,41
 865 647 865 647 911.5 603.5 c 128,-1,42
 958 560 958 560 958 500 c 0,43,44
 958 410 958 410 852 307 c 1,45,46
 820 186 820 186 768.5 127 c 128,-1,47
 717 68 717 68 662 68 c 0,48,49
 597 68 597 68 543.5 136 c 128,-1,50
 490 204 490 204 475 307 c 1,51,52
 365 428 365 428 365 522 c 0,35,36
498 483 m 0,53,54
 498 463 498 463 513 448 c 0,55,56
 526 434 526 434 549 434 c 0,57,58
 551 434 551 434 553 434 c 0,59,60
 586 435 586 435 604.5 452 c 128,-1,61
 623 469 623 469 623 489 c 256,62,63
 623 509 623 509 607 523.5 c 128,-1,64
 591 538 591 538 561 541 c 0,65,66
 531 540 531 540 514.5 523.5 c 128,-1,67
 498 507 498 507 498 483 c 0,53,54
596 348 m 0,68,69
 596 328 596 328 611 313 c 0,70,71
 624 299 624 299 647 299 c 0,72,73
 649 299 649 299 651 299 c 0,74,75
 684 300 684 300 702.5 317 c 128,-1,76
 721 334 721 334 721 354 c 0,77,78
 721 372 721 372 704 387.5 c 128,-1,79
 687 403 687 403 659 406 c 0,80,81
 630 405 630 405 613 388 c 128,-1,82
 596 371 596 371 596 348 c 0,68,69
698 479 m 0,83,84
 698 459 698 459 713 444 c 0,85,86
 727 430 727 430 750 430 c 0,87,88
 752 430 752 430 754 430 c 0,89,90
 788 431 788 431 805.5 447.5 c 128,-1,91
 823 464 823 464 823 485 c 0,92,93
 823 503 823 503 806.5 518.5 c 128,-1,94
 790 534 790 534 762 537 c 0,95,96
 732 536 732 536 715 519.5 c 128,-1,97
 698 503 698 503 698 479 c 0,83,84
881 283 m 1,98,-1
 958 375 l 1,99,-1
 1153 258 l 1,100,101
 1185 285 1185 285 1217 285 c 0,102,103
 1237 285 1237 285 1248.5 274.5 c 128,-1,104
 1260 264 1260 264 1260 246 c 0,105,106
 1260 219 1260 219 1227 195 c 1,107,-1
 1184 141 l 1,108,109
 1180 110 1180 110 1163 95 c 128,-1,110
 1146 80 1146 80 1128 80 c 0,111,112
 1112 80 1112 80 1097.5 94.5 c 128,-1,113
 1083 109 1083 109 1083 133 c 0,114,115
 1083 152 1083 152 1087 162 c 1,116,-1
 881 283 l 1,98,-1
932 629 m 1,117,-1
 1110 750 l 1,118,119
 1106 762 1106 762 1106 784 c 0,120,121
 1106 813 1106 813 1118.5 828.5 c 128,-1,122
 1131 844 1131 844 1149 844 c 0,123,124
 1165 844 1165 844 1179.5 829.5 c 128,-1,125
 1194 815 1194 815 1198 788 c 1,126,-1
 1229 727 l 1,127,128
 1266 701 1266 701 1266 670 c 0,129,130
 1266 651 1266 651 1253 638 c 128,-1,131
 1240 625 1240 625 1221 625 c 0,132,133
 1195 625 1195 625 1169 647 c 1,134,-1
 989 524 l 1,135,136
 989 567 989 567 975.5 590 c 128,-1,137
 962 613 962 613 932 629 c 1,117,-1
EndSplineSet
Validated: 1
EndChar

StartChar: uniEBE0
Encoding: 60384 60384 108
Width: 922
GlyphClass: 2
Flags: W
LayerCount: 2
Fore
SplineSet
-387 -61 m 1,0,-1
 -256 108 l 1,1,-1
 -188 209 l 2,2,3
 -178 227 -178 227 -173 227 c 0,4,5
 -170 227 -170 227 -165 204 c 128,-1,6
 -160 181 -160 181 -147 164 c 128,-1,7
 -134 147 -134 147 -106 147 c 0,8,9
 112 158 112 158 164 340 c 0,10,11
 182 401 182 401 208.5 486.5 c 128,-1,12
 235 572 235 572 269.5 627.5 c 128,-1,13
 304 683 304 683 364 716.5 c 128,-1,14
 424 750 424 750 516 750 c 1,15,16
 643 742 643 742 722 681 c 128,-1,17
 801 620 801 620 835.5 553.5 c 128,-1,18
 870 487 870 487 893 418 c 1,19,20
 906 360 906 360 906 304 c 0,21,22
 906 208 906 208 873 129.5 c 128,-1,23
 840 51 840 51 786 0 c 0,24,25
 750 -30 750 -30 712 -46 c 128,-1,26
 674 -62 674 -62 623 -72 c 0,27,28
 596 -78 596 -78 571 -78 c 0,29,30
 506 -78 506 -78 463 -35 c 1,31,32
 438 6 438 6 436 41 c 0,33,34
 434 53 434 53 434 63 c 0,35,36
 434 84 434 84 440 102 c 0,37,38
 453 129 453 129 471 147 c 0,39,40
 498 172 498 172 528 176 c 0,41,42
 530 176 530 176 532 176 c 0,43,44
 561 176 561 176 582 156 c 1,45,46
 598 135 598 135 606 88 c 1,47,48
 651 55 651 55 692 55 c 0,49,50
 716 55 716 55 744.5 67 c 128,-1,51
 773 79 773 79 786 102 c 0,52,53
 825 168 825 168 825 246 c 0,54,55
 825 341 825 341 766 410 c 1,56,57
 675 501 675 501 602 512 c 0,58,59
 583 518 583 518 559 518 c 0,60,61
 504 518 504 518 459 486.5 c 128,-1,62
 414 455 414 455 410 397 c 1,63,64
 376 248 376 248 337.5 161 c 128,-1,65
 299 74 299 74 250.5 29.5 c 128,-1,66
 202 -15 202 -15 131 -45 c 1,67,68
 26 -76 26 -76 -123 -76 c 0,69,70
 -213 -76 -213 -76 -387 -61 c 1,0,-1
EndSplineSet
Validated: 1
EndChar

StartChar: uniEBDA
Encoding: 60378 60378 109
Width: 973
GlyphClass: 2
Flags: W
LayerCount: 2
Fore
SplineSet
-205 745 m 1,0,-1
 -131 926 l 2,1,2
 -115 970 -115 970 -79 970 c 2,3,-1
 184 971 l 2,4,5
 486 971 486 971 609 939 c 128,-1,6
 732 907 732 907 781 873 c 1,7,8
 833 847 833 847 868.5 797 c 128,-1,9
 904 747 904 747 922 683.5 c 128,-1,10
 940 620 940 620 940 557 c 0,11,12
 940 509 940 509 929 462 c 0,13,14
 913 365 913 365 850.5 286.5 c 128,-1,15
 788 208 788 208 698 165 c 128,-1,16
 608 122 608 122 511 122 c 0,17,18
 487 122 487 122 461 125 c 0,19,20
 332 135 332 135 233 193 c 0,21,22
 133 247 133 247 133 342 c 1,23,24
 145 391 145 391 170 422 c 0,25,26
 197 453 197 453 228.5 467 c 128,-1,27
 260 481 260 481 293 481 c 0,28,29
 338 481 338 481 367 461 c 0,30,31
 395 438 395 438 395 403 c 0,32,33
 395 373 395 373 360 332 c 1,34,35
 388 206 388 206 524 197 c 1,36,37
 620 197 620 197 694.5 259 c 128,-1,38
 769 321 769 321 774 463 c 1,39,40
 770 569 770 569 729 623 c 0,41,42
 696 671 696 671 605 708 c 128,-1,43
 514 745 514 745 232 745 c 2,44,-1
 179 745 l 2,45,46
 151 746 151 746 63 746 c 0,47,48
 -35 746 -35 746 -89 745.5 c 128,-1,49
 -143 745 -143 745 -205 745 c 1,0,-1
EndSplineSet
Validated: 1
EndChar

StartChar: uniEBF8
Encoding: 60408 60408 110
Width: 870
GlyphClass: 2
Flags: W
LayerCount: 2
Fore
SplineSet
-785 -772 m 0,0,1
 -781 -720 -781 -720 -771 -696 c 0,2,3
 -756 -656 -756 -656 -718.5 -626.5 c 128,-1,4
 -681 -597 -681 -597 -627.5 -583 c 128,-1,5
 -574 -569 -574 -569 -515 -569 c 1,6,7
 -482 -582 -482 -582 -482 -594 c 0,8,9
 -482 -616 -482 -616 -542 -639 c 1,10,11
 -564 -661 -564 -661 -564 -692 c 0,12,13
 -564 -732 -564 -732 -531 -767 c 128,-1,14
 -498 -802 -498 -802 -454 -802 c 0,15,16
 -424 -802 -424 -802 -397 -782 c 1,17,18
 -333 -765 -333 -765 -240 -637 c 128,-1,19
 -147 -509 -147 -509 -65 -360 c 128,-1,20
 17 -211 17 -211 78 -82 c 1,21,22
 59 -82 59 -82 -2 -84 c 128,-1,23
 -63 -86 -63 -86 -105 -86 c 0,24,25
 -216 -86 -216 -86 -341 -71.5 c 128,-1,26
 -466 -57 -466 -57 -618 -16 c 1,27,-1
 -549 45 l 1,28,-1
 -324 143 l 1,29,30
 -267 126 -267 126 -19 126 c 0,31,32
 39 126 39 126 84.5 126.5 c 128,-1,33
 130 127 130 127 180 127 c 1,34,35
 201 160 201 160 248 257.5 c 128,-1,36
 295 355 295 355 330.5 416 c 128,-1,37
 366 477 366 477 415 521.5 c 128,-1,38
 464 566 464 566 524 569 c 1,39,40
 597 566 597 566 657.5 544 c 128,-1,41
 718 522 718 522 762 484.5 c 128,-1,42
 806 447 806 447 830 400.5 c 128,-1,43
 854 354 854 354 854 298 c 0,44,45
 854 227 854 227 811 156 c 0,46,47
 756 69 756 69 706 20 c 128,-1,48
 656 -29 656 -29 553 -57 c 0,49,50
 465 -80 465 -80 309 -80 c 0,51,52
 272 -80 272 -80 184 -78 c 1,53,54
 99 -247 99 -247 13.5 -395.5 c 128,-1,55
 -72 -544 -72 -544 -165 -674.5 c 128,-1,56
 -258 -805 -258 -805 -342 -879.5 c 128,-1,57
 -426 -954 -426 -954 -492 -954 c 1,58,59
 -519 -958 -519 -958 -549 -958 c 0,60,61
 -622 -958 -622 -958 -676 -930 c 128,-1,62
 -730 -902 -730 -902 -757.5 -860 c 128,-1,63
 -785 -818 -785 -818 -785 -772 c 0,0,1
270 114 m 1,64,65
 394 112 394 112 438 112 c 0,66,67
 579 112 579 112 635 127 c 0,68,69
 730 151 730 151 730 212 c 0,70,71
 730 242 730 242 706 276.5 c 128,-1,72
 682 311 682 311 644 338 c 128,-1,73
 606 365 606 365 559.5 383 c 128,-1,74
 513 401 513 401 467 401 c 0,75,76
 441 401 441 401 414.5 374 c 128,-1,77
 388 347 388 347 363.5 304.5 c 128,-1,78
 339 262 339 262 308 195.5 c 128,-1,79
 277 129 277 129 270 114 c 1,64,65
EndSplineSet
Validated: 1
EndChar

StartChar: uni60A4
Encoding: 24740 24740 111
Width: 1024
GlyphClass: 2
Flags: W
LayerCount: 2
Fore
SplineSet
27 254 m 1,0,-1
 170 397 l 1,1,2
 68 514 68 514 68 680 c 0,3,4
 68 838 68 838 170 963 c 1,5,-1
 27 1104 l 1,6,-1
 84 1161 l 1,7,-1
 229 1020 l 1,8,9
 281 1065 281 1065 360 1094 c 0,10,11
 440 1120 440 1120 514 1120 c 0,12,13
 584 1120 584 1120 659 1096 c 0,14,15
 735 1069 735 1069 795 1020 c 1,16,-1
 938 1161 l 1,17,-1
 995 1104 l 1,18,-1
 852 963 l 1,19,20
 954 831 954 831 954 682 c 0,21,22
 954 528 954 528 852 397 c 1,23,-1
 995 254 l 1,24,-1
 938 199 l 1,25,-1
 795 342 l 1,26,27
 659 238 659 238 524 238 c 0,28,29
 436 238 436 238 352 268 c 0,30,31
 268 299 268 299 229 342 c 1,32,-1
 84 199 l 1,33,-1
 27 254 l 1,0,-1
150 678 m 0,34,35
 150 530 150 530 256 423.5 c 128,-1,36
 362 317 362 317 512 317 c 0,37,38
 659 317 659 317 768 426 c 0,39,40
 874 532 874 532 874 680 c 0,41,42
 874 770 874 770 825 858 c 128,-1,43
 776 946 776 946 690 993 c 128,-1,44
 604 1040 604 1040 512 1040 c 0,45,46
 360 1040 360 1040 256 934 c 0,47,48
 150 827 150 827 150 678 c 0,34,35
EndSplineSet
Validated: 1
EndChar

StartChar: uniEBF9
Encoding: 60409 60409 112
Width: 1024
GlyphClass: 2
Flags: W
LayerCount: 2
Fore
SplineSet
-767 -774 m 0,0,1
 -767 -736 -767 -736 -751.5 -696 c 128,-1,2
 -736 -656 -736 -656 -698.5 -626.5 c 128,-1,3
 -661 -597 -661 -597 -607.5 -583 c 128,-1,4
 -554 -569 -554 -569 -495 -569 c 1,5,6
 -462 -582 -462 -582 -462 -594 c 0,7,8
 -462 -616 -462 -616 -522 -639 c 1,9,10
 -538 -652 -538 -652 -550.5 -677 c 128,-1,11
 -563 -702 -563 -702 -563 -723 c 0,12,13
 -563 -742 -563 -742 -555.5 -753.5 c 128,-1,14
 -548 -765 -548 -765 -532 -772 c 128,-1,15
 -516 -779 -516 -779 -491 -786 c 0,16,17
 -467 -792 -467 -792 -442 -792 c 0,18,19
 -351 -792 -351 -792 -261.5 -717 c 128,-1,20
 -172 -642 -172 -642 -84 -511.5 c 128,-1,21
 4 -381 4 -381 78.5 -241 c 128,-1,22
 153 -101 153 -101 266 127 c 1,23,-1
 61 121 l 2,24,25
 33 120 33 120 2 120 c 128,-1,26
 -29 120 -29 120 -47 119 c 0,27,28
 -102 115 -102 115 -115 113 c 1,29,-1
 -145 213 l 1,30,-1
 -270 309 l 1,31,32
 -184 317 -184 317 -78 319 c 2,33,-1
 354 324 l 1,34,35
 392 399 392 399 433 480 c 128,-1,36
 474 561 474 561 511.5 619.5 c 128,-1,37
 549 678 549 678 597 718.5 c 128,-1,38
 645 759 645 759 699 766 c 1,39,40
 835 762 835 762 917 688.5 c 128,-1,41
 999 615 999 615 999 509 c 0,42,43
 999 429 999 429 950 349 c 0,44,45
 895 262 895 262 845 213 c 128,-1,46
 795 164 795 164 692 136 c 0,47,48
 617 116 617 116 501 116 c 0,49,50
 465 117 465 117 422 118 c 128,-1,51
 379 119 379 119 348 119 c 1,52,53
 255 -58 255 -58 151.5 -251 c 128,-1,54
 48 -444 48 -444 -45 -583.5 c 128,-1,55
 -138 -723 -138 -723 -245 -818 c 128,-1,56
 -352 -913 -352 -913 -473 -934 c 0,57,58
 -552 -948 -552 -948 -569 -948 c 0,59,60
 -664 -948 -664 -948 -715.5 -897 c 128,-1,61
 -767 -846 -767 -846 -767 -774 c 0,0,1
426 319 m 1,62,63
 475 318 475 318 524 316 c 128,-1,64
 573 314 573 314 616 312.5 c 128,-1,65
 659 311 659 311 677 311 c 0,66,67
 739 311 739 311 774 320 c 0,68,69
 873 345 873 345 873 411 c 0,70,71
 873 451 873 451 835 495.5 c 128,-1,72
 797 540 797 540 740 569 c 128,-1,73
 683 598 683 598 626 598 c 0,74,75
 576 598 576 598 528.5 521 c 128,-1,76
 481 444 481 444 426 319 c 1,62,63
EndSplineSet
Validated: 1
EndChar

StartChar: uniE801
Encoding: 59393 59393 113
Width: 2017
GlyphClass: 2
Flags: W
LayerCount: 2
Fore
SplineSet
47 356 m 0,0,1
 49 424 49 424 68 487 c 1,2,3
 82 551 82 551 115 606 c 0,4,5
 145 662 145 662 197 705 c 0,6,7
 242 744 242 744 313 766 c 1,8,-1
 49 766 l 1,9,10
 49 828 49 828 100 897 c 0,11,12
 133 938 133 938 172 954 c 0,13,14
 209 969 209 969 264 969 c 2,15,-1
 967 971 l 1,16,17
 967 1104 967 1104 940 1219 c 0,18,19
 911 1333 911 1333 864 1393 c 1,20,21
 930 1417 930 1417 997 1473 c 0,22,23
 1069 1528 1069 1528 1120 1595 c 0,24,25
 1141 1618 1141 1618 1153 1618 c 0,26,27
 1182 1618 1182 1618 1182 1509 c 0,28,29
 1182 1440 1182 1440 1169 1333 c 1,30,31
 1165 1221 1165 1221 1161 1143 c 128,-1,32
 1157 1065 1157 1065 1157 973 c 0,33,34
 1156 952 1156 952 1156 907 c 0,35,36
 1155 861 1155 861 1155 830 c 0,37,38
 1155 798 1155 798 1155 760 c 1,39,40
 1238 822 1238 822 1260 831 c 0,41,42
 1309 854 1309 854 1358 866 c 0,43,44
 1405 877 1405 877 1464 877 c 0,45,46
 1585 872 1585 872 1708 831 c 0,47,48
 1831 791 1831 791 1913 713 c 0,49,50
 1995 633 1995 633 1995 522 c 1,51,52
 1983 363 1983 363 1937 276 c 0,53,54
 1886 184 1886 184 1796 111 c 0,55,56
 1724 53 1724 53 1636 18 c 0,57,58
 1548 -16 1548 -16 1479 -16 c 1,59,60
 1403 -8 1403 -8 1360 47 c 0,61,62
 1313 104 1313 104 1313 158 c 0,63,64
 1313 215 1313 215 1348 256 c 0,65,66
 1378 297 1378 297 1436 297 c 0,67,68
 1458 297 1458 297 1493 287 c 1,69,70
 1493 238 1493 238 1534 199 c 128,-1,71
 1575 160 1575 160 1630 160 c 0,72,73
 1673 160 1673 160 1710 190 c 0,74,75
 1749 221 1749 221 1772 270 c 1,76,77
 1778 299 1778 299 1778 326 c 0,78,79
 1778 403 1778 403 1753 473 c 1,80,81
 1726 532 1726 532 1688 578 c 0,82,83
 1647 623 1647 623 1604 649 c 0,84,85
 1544 686 1544 686 1477 707 c 1,86,87
 1405 725 1405 725 1348 725 c 1,88,89
 1290 717 1290 717 1249 692 c 0,90,91
 1217 671 1217 671 1192 625 c 0,92,93
 1171 590 1171 590 1163 551 c 0,94,95
 1157 510 1157 510 1147 451 c 1,96,97
 1147 386 1147 386 1149 190 c 256,98,99
 1151 -6 1151 -6 1153 -100 c 0,100,101
 1155 -195 1155 -195 1161 -431 c 0,102,103
 1167 -668 1167 -668 1171 -778 c 1,104,105
 1145 -854 1145 -854 1073 -913 c 0,106,107
 1001 -975 1001 -975 893 -1001 c 1,108,109
 862 -1001 862 -1001 862 -989 c 256,110,111
 862 -977 862 -977 874 -954 c 1,112,113
 915 -801 915 -801 942 -604 c 0,114,115
 967 -410 967 -410 977 -252 c 0,116,117
 987 -92 987 -92 987 0 c 0,118,119
 987 121 987 121 983 213 c 1,120,121
 924 147 924 147 860 100 c 0,122,123
 795 55 795 55 725 33 c 0,124,125
 655 8 655 8 580 6 c 0,126,127
 487 6 487 6 395 29 c 0,128,129
 299 51 299 51 219 98 c 128,-1,130
 139 145 139 145 94 211 c 0,131,132
 47 274 47 274 47 356 c 0,0,1
262 526 m 0,133,134
 262 465 262 465 289 408 c 0,135,136
 313 350 313 350 354 305 c 128,-1,137
 395 260 395 260 438 233 c 0,138,139
 500 197 500 197 567 178 c 0,140,141
 635 160 635 160 694 160 c 1,142,143
 831 172 831 172 901 260 c 128,-1,144
 971 348 971 348 971 489 c 0,145,146
 971 508 971 508 967 553 c 0,147,148
 961 688 961 688 944 766 c 1,149,-1
 737 764 l 2,150,151
 532 762 532 762 410 719 c 0,152,153
 285 676 285 676 268 580 c 0,154,155
 262 553 262 553 262 526 c 0,133,134
EndSplineSet
Validated: 1
EndChar

StartChar: uniE800
Encoding: 59392 59392 114
Width: 2017
GlyphClass: 2
Flags: W
LayerCount: 2
Fore
SplineSet
47 356 m 0,0,1
 54 501 54 501 100 590 c 0,2,3
 150 682 150 682 242 760 c 0,4,5
 315 819 315 819 399 856 c 0,6,7
 485 893 485 893 557 893 c 1,8,9
 608 889 608 889 643 860 c 0,10,11
 680 831 680 831 700 795 c 0,12,13
 721 756 721 756 723 721 c 0,14,15
 723 662 723 662 690 621 c 0,16,17
 657 578 657 578 600 578 c 0,18,19
 571 578 571 578 547 586 c 1,20,21
 547 637 547 637 506 676 c 0,22,23
 465 713 465 713 410 713 c 0,24,25
 367 713 367 713 332 682 c 0,26,27
 293 649 293 649 268 600 c 1,28,29
 262 571 262 571 262 547 c 0,30,31
 262 468 262 468 289 408 c 0,32,33
 313 350 313 350 354 305 c 128,-1,34
 395 260 395 260 438 233 c 0,35,36
 500 197 500 197 567 178 c 0,37,38
 635 160 635 160 694 160 c 1,39,40
 842 174 842 174 906.5 280.5 c 128,-1,41
 971 387 971 387 971 561 c 1,42,43
 975 694 975 694 975 791 c 0,44,45
 975 922 975 922 966.5 1022 c 128,-1,46
 958 1122 958 1122 934 1217 c 0,47,48
 911 1311 911 1311 864 1393 c 1,49,50
 930 1417 930 1417 997 1473 c 0,51,52
 1069 1528 1069 1528 1120 1595 c 0,53,54
 1141 1618 1141 1618 1153 1618 c 0,55,56
 1182 1618 1182 1618 1182 1509 c 0,57,58
 1182 1440 1182 1440 1169 1333 c 1,59,60
 1167 1239 1167 1239 1163 1073 c 256,61,62
 1159 907 1159 907 1159 762 c 1,63,64
 1241 823 1241 823 1260 831 c 0,65,66
 1309 854 1309 854 1358 866 c 0,67,68
 1405 877 1405 877 1464 877 c 0,69,70
 1585 872 1585 872 1708 831 c 0,71,72
 1831 791 1831 791 1913 713 c 0,73,74
 1995 633 1995 633 1995 522 c 1,75,76
 1983 363 1983 363 1937 276 c 0,77,78
 1886 184 1886 184 1796 111 c 0,79,80
 1724 53 1724 53 1636 18 c 0,81,82
 1548 -16 1548 -16 1479 -16 c 1,83,84
 1403 -8 1403 -8 1360 47 c 0,85,86
 1313 104 1313 104 1313 158 c 0,87,88
 1313 215 1313 215 1348 256 c 0,89,90
 1378 297 1378 297 1436 297 c 0,91,92
 1458 297 1458 297 1493 287 c 1,93,94
 1493 238 1493 238 1534 199 c 128,-1,95
 1575 160 1575 160 1630 160 c 0,96,97
 1673 160 1673 160 1710 190 c 0,98,99
 1749 221 1749 221 1772 270 c 1,100,101
 1778 299 1778 299 1778 326 c 0,102,103
 1778 403 1778 403 1753 473 c 1,104,105
 1726 532 1726 532 1688 578 c 0,106,107
 1647 623 1647 623 1604 649 c 0,108,109
 1544 686 1544 686 1477 707 c 1,110,111
 1405 725 1405 725 1348 725 c 1,112,113
 1290 717 1290 717 1249 692 c 0,114,115
 1217 671 1217 671 1192 625 c 0,116,117
 1171 590 1171 590 1163 551 c 0,118,119
 1157 510 1157 510 1147 451 c 1,120,121
 1147 172 1147 172 1151 -78 c 0,122,123
 1155 -262 1155 -262 1159 -463 c 0,124,125
 1167 -666 1167 -666 1171 -778 c 1,126,127
 1145 -854 1145 -854 1073 -913 c 0,128,129
 1001 -975 1001 -975 893 -1001 c 1,130,131
 862 -1001 862 -1001 862 -989 c 256,132,133
 862 -977 862 -977 874 -954 c 1,134,135
 915 -801 915 -801 942 -604 c 0,136,137
 967 -410 967 -410 977 -252 c 0,138,139
 987 -92 987 -92 987 0 c 0,140,141
 987 121 987 121 983 213 c 1,142,143
 924 147 924 147 860 100 c 0,144,145
 795 55 795 55 725 33 c 0,146,147
 655 8 655 8 580 6 c 0,148,149
 487 6 487 6 395 29 c 0,150,151
 299 51 299 51 219 98 c 128,-1,152
 139 145 139 145 94 211 c 0,153,154
 47 274 47 274 47 356 c 0,0,1
EndSplineSet
Validated: 1
EndChar

StartChar: uniED71
Encoding: 60785 60785 115
Width: 2
GlyphClass: 2
Flags: W
LayerCount: 2
Fore
SplineSet
-627 -539 m 0,0,1
 -627 -500 -627 -500 -602 -461 c 0,2,3
 -580 -422 -580 -422 -541 -401 c 0,4,5
 -504 -385 -504 -385 -459 -385 c 0,6,7
 -383 -385 -383 -385 -336 -432 c 0,8,9
 -295 -475 -295 -475 -295 -530 c 0,10,11
 -295 -571 -295 -571 -315 -608 c 0,12,13
 -340 -649 -340 -649 -377 -668 c 0,14,15
 -416 -688 -416 -688 -465 -688 c 0,16,17
 -541 -688 -541 -688 -588 -639 c 0,18,19
 -627 -596 -627 -596 -627 -539 c 0,0,1
-555 -512 m 0,20,21
 -555 -575 -555 -575 -526.5 -621.5 c 128,-1,22
 -498 -668 -498 -668 -446 -668 c 0,23,24
 -412 -668 -412 -668 -387 -641 c 0,25,26
 -365 -616 -365 -616 -365 -555 c 0,27,28
 -365 -477 -365 -477 -403 -434 c 0,29,30
 -428 -403 -428 -403 -471 -403 c 0,31,32
 -492 -403 -492 -403 -512 -414 c 0,33,34
 -530 -424 -530 -424 -545 -449 c 0,35,36
 -555 -473 -555 -473 -555 -512 c 0,20,21
EndSplineSet
Validated: 1
EndChar

StartChar: uniED70
Encoding: 60784 60784 116
Width: 2
GlyphClass: 2
Flags: W
LayerCount: 2
Fore
SplineSet
-444 -539 m 0,0,1
 -444 -500 -444 -500 -422 -461 c 0,2,3
 -397 -422 -397 -422 -358 -401 c 0,4,5
 -322 -385 -322 -385 -276 -385 c 0,6,7
 -201 -385 -201 -385 -154 -432 c 0,8,9
 -113 -475 -113 -475 -113 -530 c 0,10,11
 -113 -571 -113 -571 -133 -608 c 0,12,13
 -158 -649 -158 -649 -195.5 -668.5 c 128,-1,14
 -233 -688 -233 -688 -283 -688 c 0,15,16
 -358 -688 -358 -688 -406 -639 c 0,17,18
 -444 -596 -444 -596 -444 -539 c 0,0,1
-375 -512 m 0,19,20
 -375 -575 -375 -575 -344 -621 c 0,21,22
 -315 -668 -315 -668 -264 -668 c 0,23,24
 -229 -668 -229 -668 -207 -641 c 0,25,26
 -182 -616 -182 -616 -182 -555 c 0,27,28
 -182 -477 -182 -477 -221 -434 c 0,29,30
 -248 -403 -248 -403 -289 -403 c 0,31,32
 -309 -403 -309 -403 -330 -414 c 0,33,34
 -348 -424 -348 -424 -362 -449 c 0,35,36
 -375 -473 -375 -473 -375 -512 c 0,19,20
EndSplineSet
Validated: 1
EndChar

StartChar: uniED83
Encoding: 60803 60803 117
Width: 2
GlyphClass: 2
Flags: W
LayerCount: 2
Fore
SplineSet
-1251 1681 m 0,0,1
 -1251 1722 -1251 1722 -1221 1755 c 0,2,3
 -1190 1788 -1190 1788 -1147 1788 c 256,4,5
 -1104 1788 -1104 1788 -1071 1757 c 0,6,7
 -1040 1724 -1040 1724 -1040 1681 c 256,8,9
 -1040 1638 -1040 1638 -1071 1608 c 0,10,11
 -1104 1575 -1104 1575 -1147 1575 c 0,12,13
 -1188 1575 -1188 1575 -1219 1608 c 0,14,15
 -1251 1638 -1251 1638 -1251 1681 c 0,0,1
-1092 1432 m 0,16,17
 -1092 1473 -1092 1473 -1061 1505 c 0,18,19
 -1030 1538 -1030 1538 -987 1538 c 256,20,21
 -944 1538 -944 1538 -911 1507 c 0,22,23
 -881 1475 -881 1475 -881 1432 c 256,24,25
 -881 1389 -881 1389 -911 1358 c 0,26,27
 -944 1325 -944 1325 -987 1325 c 0,28,29
 -1028 1325 -1028 1325 -1059 1358 c 0,30,31
 -1092 1389 -1092 1389 -1092 1432 c 0,16,17
-942 1681 m 256,32,33
 -942 1722 -942 1722 -909.5 1755 c 128,-1,34
 -877 1788 -877 1788 -836 1788 c 0,35,36
 -793 1788 -793 1788 -760 1757 c 0,37,38
 -729 1724 -729 1724 -729 1681 c 256,39,40
 -729 1638 -729 1638 -760 1608 c 0,41,42
 -793 1575 -793 1575 -836 1575 c 0,43,44
 -877 1575 -877 1575 -909.5 1607.5 c 128,-1,45
 -942 1640 -942 1640 -942 1681 c 256,32,33
EndSplineSet
Validated: 1
EndChar

StartChar: uniE06A
Encoding: 57450 57450 118
Width: 512
GlyphClass: 2
Flags: W
LayerCount: 2
Fore
SplineSet
86 1700 m 1,0,-1
 227 1765 l 1,1,-1
 227 1407 l 1,2,-1
 113 1358 l 1,3,-1
 102 1378 l 1,4,-1
 119 1393 l 1,5,-1
 119 1655 l 1,6,-1
 109 1679 l 1,7,-1
 88 1681 l 1,8,-1
 86 1700 l 1,0,-1
264 1321 m 1,9,-1
 315 1354 l 1,10,-1
 315 1708 l 1,11,-1
 305 1733 l 1,12,-1
 285 1735 l 1,13,-1
 283 1753 l 1,14,-1
 424 1819 l 1,15,-1
 424 1362 l 1,16,-1
 272 1292 l 1,17,-1
 264 1321 l 1,9,-1
EndSplineSet
Validated: 1
EndChar

StartChar: uniE069
Encoding: 57449 57449 119
Width: 1024
GlyphClass: 2
Flags: W
LayerCount: 2
Fore
SplineSet
84 164 m 1,0,1
 94 193 94 193 127 254 c 0,2,3
 160 313 160 313 232.5 372.5 c 128,-1,4
 305 432 305 432 403 432 c 0,5,6
 479 432 479 432 573 385 c 0,7,8
 664 338 664 338 729 338 c 0,9,10
 823 338 823 338 958 438 c 1,11,12
 909 309 909 309 842 244 c 0,13,14
 774 176 774 176 682 176 c 0,15,16
 627 176 627 176 553 205 c 0,17,18
 471 240 471 240 442 252 c 0,19,20
 414 262 414 262 369 262 c 0,21,22
 270 262 270 262 84 164 c 1,0,1
84 573 m 1,23,24
 94 602 94 602 127 664 c 0,25,26
 160 723 160 723 233 782 c 0,27,28
 305 842 305 842 403 842 c 0,29,30
 479 842 479 842 573 795 c 0,31,32
 664 748 664 748 729 748 c 0,33,34
 823 748 823 748 958 848 c 1,35,36
 909 719 909 719 841.5 652.5 c 128,-1,37
 774 586 774 586 682 586 c 0,38,39
 627 586 627 586 553 614 c 0,40,41
 471 649 471 649 442 662 c 0,42,43
 414 672 414 672 369 672 c 0,44,45
 270 672 270 672 84 573 c 1,23,24
EndSplineSet
Validated: 1
EndChar

StartChar: uni60AD
Encoding: 24749 24749 120
Width: 2
GlyphClass: 2
Flags: W
LayerCount: 2
Fore
SplineSet
-883 1681 m 0,0,1
 -883 1722 -883 1722 -852 1755 c 128,-1,2
 -821 1788 -821 1788 -778 1788 c 256,3,4
 -735 1788 -735 1788 -702 1757 c 0,5,6
 -672 1724 -672 1724 -672 1681 c 256,7,8
 -672 1638 -672 1638 -702 1608 c 0,9,10
 -735 1575 -735 1575 -778 1575 c 0,11,12
 -819 1575 -819 1575 -850 1608 c 0,13,14
 -883 1638 -883 1638 -883 1681 c 0,0,1
-723 1432 m 0,15,16
 -723 1473 -723 1473 -692 1505 c 0,17,18
 -662 1538 -662 1538 -618 1538 c 0,19,20
 -575 1538 -575 1538 -543.5 1506.5 c 128,-1,21
 -512 1475 -512 1475 -512 1432 c 256,22,23
 -512 1389 -512 1389 -543 1358 c 0,24,25
 -575 1325 -575 1325 -618 1325 c 0,26,27
 -659 1325 -659 1325 -690 1358 c 0,28,29
 -723 1389 -723 1389 -723 1432 c 0,15,16
-573 1681 m 256,30,31
 -573 1722 -573 1722 -541 1755 c 0,32,33
 -508 1788 -508 1788 -467 1788 c 0,34,35
 -424 1788 -424 1788 -391 1757 c 0,36,37
 -360 1724 -360 1724 -360 1681 c 256,38,39
 -360 1638 -360 1638 -391 1608 c 0,40,41
 -424 1575 -424 1575 -467 1575 c 0,42,43
 -508 1575 -508 1575 -541 1608 c 0,44,45
 -573 1640 -573 1640 -573 1681 c 256,30,31
EndSplineSet
Validated: 1
EndChar

StartChar: uni60AE
Encoding: 24750 24750 121
Width: 909
GlyphClass: 2
Flags: W
LayerCount: 2
Fore
SplineSet
92 1100 m 0,0,1
 92 1212 92 1212 188 1300 c 0,2,3
 287 1386 287 1386 453 1386 c 0,4,5
 657 1386 657 1386 756 1268 c 0,6,7
 827 1180 827 1180 827 1071 c 0,8,9
 827 999 827 999 795 922 c 0,10,11
 762 846 762 846 672 741 c 0,12,13
 526 578 526 578 494 510 c 0,14,15
 461 440 461 440 455 319 c 1,16,-1
 414 319 l 1,17,18
 420 446 420 446 444 528 c 0,19,20
 469 610 469 610 547 758 c 0,21,22
 606 870 606 870 625 932 c 0,23,24
 643 991 643 991 643 1055 c 0,25,26
 643 1182 643 1182 575 1255 c 0,27,28
 508 1331 508 1331 410 1331 c 0,29,30
 322 1331 322 1331 271.5 1290 c 128,-1,31
 221 1249 221 1249 221 1200 c 0,32,33
 221 1163 221 1163 252 1110 c 128,-1,34
 283 1057 283 1057 283 1028 c 0,35,36
 283 991 283 991 258 969 c 1,37,38
 236 942 236 942 203 942 c 0,39,40
 162 942 162 942 127 985 c 0,41,42
 92 1026 92 1026 92 1100 c 0,0,1
330 84 m 0,43,44
 330 131 330 131 361.5 164 c 128,-1,45
 393 197 393 197 440 197 c 256,46,47
 487 197 487 197 520 164 c 128,-1,48
 553 131 553 131 553 84 c 0,49,50
 553 39 553 39 518 6 c 0,51,52
 485 -27 485 -27 440 -27 c 0,53,54
 393 -27 393 -27 361.5 6 c 128,-1,55
 330 39 330 39 330 84 c 0,43,44
EndSplineSet
Validated: 1
EndChar

StartChar: uniED81
Encoding: 60801 60801 122
Width: 2
GlyphClass: 2
Flags: W
LayerCount: 2
Fore
SplineSet
-723 1677 m 0,0,1
 -723 1718 -723 1718 -692.5 1751 c 128,-1,2
 -662 1784 -662 1784 -618 1784 c 0,3,4
 -575 1784 -575 1784 -543 1753 c 0,5,6
 -512 1720 -512 1720 -512 1677 c 256,7,8
 -512 1634 -512 1634 -543 1604 c 0,9,10
 -575 1571 -575 1571 -618 1571 c 0,11,12
 -659 1571 -659 1571 -690 1604 c 0,13,14
 -723 1634 -723 1634 -723 1677 c 0,0,1
-563 1432 m 0,15,16
 -563 1473 -563 1473 -532 1505 c 0,17,18
 -502 1538 -502 1538 -459 1538 c 256,19,20
 -416 1538 -416 1538 -383 1507 c 0,21,22
 -352 1475 -352 1475 -352 1432 c 256,23,24
 -352 1389 -352 1389 -383 1358 c 0,25,26
 -416 1325 -416 1325 -459 1325 c 0,27,28
 -500 1325 -500 1325 -530 1358 c 0,29,30
 -563 1389 -563 1389 -563 1432 c 0,15,16
-414 1677 m 256,31,32
 -414 1718 -414 1718 -381 1751 c 128,-1,33
 -348 1784 -348 1784 -307 1784 c 0,34,35
 -264 1784 -264 1784 -231 1753 c 0,36,37
 -201 1720 -201 1720 -201 1677 c 256,38,39
 -201 1634 -201 1634 -231 1604 c 0,40,41
 -264 1571 -264 1571 -307 1571 c 0,42,43
 -348 1571 -348 1571 -381 1603.5 c 128,-1,44
 -414 1636 -414 1636 -414 1677 c 256,31,32
EndSplineSet
Validated: 1
EndChar

StartChar: uniEC1F
Encoding: 60447 60447 123
Width: 2
GlyphClass: 2
Flags: W
LayerCount: 2
Fore
SplineSet
-877 369 m 1,0,1
 -836 445 -836 445 -802.5 487.5 c 128,-1,2
 -769 530 -769 530 -719 554 c 128,-1,3
 -669 578 -669 578 -590 578 c 0,4,5
 -541 578 -541 578 -461 565 c 0,6,7
 -417 555 -417 555 -369 555 c 0,8,9
 -332 555 -332 555 -303 561.5 c 128,-1,10
 -274 568 -274 568 -244 581 c 128,-1,11
 -214 594 -214 594 -182.5 612.5 c 128,-1,12
 -151 631 -151 631 -123 647 c 1,13,14
 -156 551 -156 551 -216.5 483.5 c 128,-1,15
 -277 416 -277 416 -397 416 c 0,16,17
 -433 416 -433 416 -483 426 c 0,18,19
 -552 440 -552 440 -612 440 c 0,20,21
 -681 440 -681 440 -740 422 c 128,-1,22
 -799 404 -799 404 -877 369 c 1,0,1
EndSplineSet
Validated: 1
EndChar

StartChar: quoteleft
Encoding: 8216 8216 124
Width: 410
GlyphClass: 2
Flags: W
LayerCount: 2
Fore
SplineSet
74 1604 m 256,0,1
 74 1645 74 1645 106 1677 c 1,2,-1
 332 1862 l 1,3,-1
 369 1810 l 1,4,-1
 254 1679 l 1,5,6
 285 1647 285 1647 285 1604 c 256,7,8
 285 1561 285 1561 256 1530 c 0,9,10
 223 1497 223 1497 180 1497 c 0,11,12
 139 1497 139 1497 106 1530 c 0,13,14
 74 1563 74 1563 74 1604 c 256,0,1
EndSplineSet
Validated: 1
EndChar

StartChar: quoteright
Encoding: 8217 8217 125
Width: 410
GlyphClass: 2
Flags: W
LayerCount: 2
Fore
SplineSet
47 1407 m 1,0,-1
 164 1536 l 1,1,2
 131 1569 131 1569 131 1608 c 0,3,4
 131 1649 131 1649 164 1681 c 0,5,6
 197 1714 197 1714 238 1714 c 0,7,8
 281 1714 281 1714 313 1683 c 0,9,10
 342 1651 342 1651 342 1608 c 256,11,12
 342 1565 342 1565 311 1536 c 1,13,-1
 80 1366 l 1,14,-1
 47 1407 l 1,0,-1
EndSplineSet
Validated: 1
EndChar

